<?xml version="1.0" encoding="utf-8" standalone="no"?>
<!DOCTYPE svg PUBLIC "-//W3C//DTD SVG 1.1//EN"
  "http://www.w3.org/Graphics/SVG/1.1/DTD/svg11.dtd">
<svg xmlns:xlink="http://www.w3.org/1999/xlink" width="894.4pt" height="663.969063pt" viewBox="0 0 894.4 663.969063" xmlns="http://www.w3.org/2000/svg" version="1.1">
 <metadata>
  <rdf:RDF xmlns:dc="http://purl.org/dc/elements/1.1/" xmlns:cc="http://creativecommons.org/ns#" xmlns:rdf="http://www.w3.org/1999/02/22-rdf-syntax-ns#">
   <cc:Work>
    <dc:type rdf:resource="http://purl.org/dc/dcmitype/StillImage"/>
    <dc:date>2022-06-25T00:37:57.618723</dc:date>
    <dc:format>image/svg+xml</dc:format>
    <dc:creator>
     <cc:Agent>
      <dc:title>Matplotlib v3.5.1, https://matplotlib.org/</dc:title>
     </cc:Agent>
    </dc:creator>
   </cc:Work>
  </rdf:RDF>
 </metadata>
 <defs>
  <style type="text/css">*{stroke-linejoin: round; stroke-linecap: butt}</style>
 </defs>
 <g id="figure_1">
  <g id="patch_1">
   <path d="M 0 663.969063 
L 894.4 663.969063 
L 894.4 0 
L 0 0 
L 0 663.969063 
z
" style="fill: none"/>
  </g>
  <g id="axes_1">
   <g id="patch_2">
    <path d="M 50.2 550.8 
L 887.2 550.8 
L 887.2 7.2 
L 50.2 7.2 
z
" style="fill: #ffffff"/>
   </g>
   <g id="patch_3">
    <path d="M 88.245455 550.8 
L 93.603969 550.8 
L 93.603969 104.545765 
L 88.245455 104.545765 
z
" clip-path="url(#p97e644e65d)" style="fill: #1f77b4"/>
   </g>
   <g id="patch_4">
    <path d="M 103.555497 550.8 
L 108.914011 550.8 
L 108.914011 308.641608 
L 103.555497 308.641608 
z
" clip-path="url(#p97e644e65d)" style="fill: #1f77b4"/>
   </g>
   <g id="patch_5">
    <path d="M 118.865539 550.8 
L 124.224053 550.8 
L 124.224053 378.087206 
L 118.865539 378.087206 
z
" clip-path="url(#p97e644e65d)" style="fill: #1f77b4"/>
   </g>
   <g id="patch_6">
    <path d="M 134.175581 550.8 
L 139.534095 550.8 
L 139.534095 419.966613 
L 134.175581 419.966613 
z
" clip-path="url(#p97e644e65d)" style="fill: #1f77b4"/>
   </g>
   <g id="patch_7">
    <path d="M 149.485623 550.8 
L 154.844138 550.8 
L 154.844138 448.274971 
L 149.485623 448.274971 
z
" clip-path="url(#p97e644e65d)" style="fill: #1f77b4"/>
   </g>
   <g id="patch_8">
    <path d="M 164.795665 550.8 
L 170.15418 550.8 
L 170.15418 448.487019 
L 164.795665 448.487019 
z
" clip-path="url(#p97e644e65d)" style="fill: #1f77b4"/>
   </g>
   <g id="patch_9">
    <path d="M 180.105707 550.8 
L 185.464222 550.8 
L 185.464222 458.029162 
L 180.105707 458.029162 
z
" clip-path="url(#p97e644e65d)" style="fill: #1f77b4"/>
   </g>
   <g id="patch_10">
    <path d="M 195.415749 550.8 
L 200.774264 550.8 
L 200.774264 460.149639 
L 195.415749 460.149639 
z
" clip-path="url(#p97e644e65d)" style="fill: #1f77b4"/>
   </g>
   <g id="patch_11">
    <path d="M 210.725791 550.8 
L 216.084306 550.8 
L 216.084306 462.270115 
L 210.725791 462.270115 
z
" clip-path="url(#p97e644e65d)" style="fill: #1f77b4"/>
   </g>
   <g id="patch_12">
    <path d="M 226.035833 550.8 
L 231.394348 550.8 
L 231.394348 462.482163 
L 226.035833 462.482163 
z
" clip-path="url(#p97e644e65d)" style="fill: #1f77b4"/>
   </g>
   <g id="patch_13">
    <path d="M 241.345875 550.8 
L 246.70439 550.8 
L 246.70439 469.373711 
L 241.345875 469.373711 
z
" clip-path="url(#p97e644e65d)" style="fill: #1f77b4"/>
   </g>
   <g id="patch_14">
    <path d="M 256.655917 550.8 
L 262.014432 550.8 
L 262.014432 471.706234 
L 256.655917 471.706234 
z
" clip-path="url(#p97e644e65d)" style="fill: #1f77b4"/>
   </g>
   <g id="patch_15">
    <path d="M 271.965959 550.8 
L 277.324474 550.8 
L 277.324474 472.97852 
L 271.965959 472.97852 
z
" clip-path="url(#p97e644e65d)" style="fill: #1f77b4"/>
   </g>
   <g id="patch_16">
    <path d="M 287.276001 550.8 
L 292.634516 550.8 
L 292.634516 481.566449 
L 287.276001 481.566449 
z
" clip-path="url(#p97e644e65d)" style="fill: #1f77b4"/>
   </g>
   <g id="patch_17">
    <path d="M 302.586044 550.8 
L 307.944558 550.8 
L 307.944558 486.019449 
L 302.586044 486.019449 
z
" clip-path="url(#p97e644e65d)" style="fill: #1f77b4"/>
   </g>
   <g id="patch_18">
    <path d="M 317.896086 550.8 
L 323.2546 550.8 
L 323.2546 488.351973 
L 317.896086 488.351973 
z
" clip-path="url(#p97e644e65d)" style="fill: #1f77b4"/>
   </g>
   <g id="patch_19">
    <path d="M 333.206128 550.8 
L 338.564642 550.8 
L 338.564642 489.518235 
L 333.206128 489.518235 
z
" clip-path="url(#p97e644e65d)" style="fill: #1f77b4"/>
   </g>
   <g id="patch_20">
    <path d="M 348.51617 550.8 
L 353.874684 550.8 
L 353.874684 491.002569 
L 348.51617 491.002569 
z
" clip-path="url(#p97e644e65d)" style="fill: #1f77b4"/>
   </g>
   <g id="patch_21">
    <path d="M 363.826212 550.8 
L 369.184727 550.8 
L 369.184727 501.710974 
L 363.826212 501.710974 
z
" clip-path="url(#p97e644e65d)" style="fill: #1f77b4"/>
   </g>
   <g id="patch_22">
    <path d="M 379.136254 550.8 
L 384.494769 550.8 
L 384.494769 504.997712 
L 379.136254 504.997712 
z
" clip-path="url(#p97e644e65d)" style="fill: #1f77b4"/>
   </g>
   <g id="patch_23">
    <path d="M 394.446296 550.8 
L 399.804811 550.8 
L 399.804811 509.768784 
L 394.446296 509.768784 
z
" clip-path="url(#p97e644e65d)" style="fill: #1f77b4"/>
   </g>
   <g id="patch_24">
    <path d="M 409.756338 550.8 
L 415.114853 550.8 
L 415.114853 510.404927 
L 409.756338 510.404927 
z
" clip-path="url(#p97e644e65d)" style="fill: #1f77b4"/>
   </g>
   <g id="patch_25">
    <path d="M 425.06638 550.8 
L 430.424895 550.8 
L 430.424895 514.11576 
L 425.06638 514.11576 
z
" clip-path="url(#p97e644e65d)" style="fill: #1f77b4"/>
   </g>
   <g id="patch_26">
    <path d="M 440.376422 550.8 
L 445.734937 550.8 
L 445.734937 517.72057 
L 440.376422 517.72057 
z
" clip-path="url(#p97e644e65d)" style="fill: #1f77b4"/>
   </g>
   <g id="patch_27">
    <path d="M 455.686464 550.8 
L 461.044979 550.8 
L 461.044979 517.72057 
L 455.686464 517.72057 
z
" clip-path="url(#p97e644e65d)" style="fill: #1f77b4"/>
   </g>
   <g id="patch_28">
    <path d="M 470.996506 550.8 
L 476.355021 550.8 
L 476.355021 517.826594 
L 470.996506 517.826594 
z
" clip-path="url(#p97e644e65d)" style="fill: #1f77b4"/>
   </g>
   <g id="patch_29">
    <path d="M 486.306548 550.8 
L 491.665063 550.8 
L 491.665063 518.356713 
L 486.306548 518.356713 
z
" clip-path="url(#p97e644e65d)" style="fill: #1f77b4"/>
   </g>
   <g id="patch_30">
    <path d="M 501.61659 550.8 
L 506.975105 550.8 
L 506.975105 518.356713 
L 501.61659 518.356713 
z
" clip-path="url(#p97e644e65d)" style="fill: #1f77b4"/>
   </g>
   <g id="patch_31">
    <path d="M 516.926633 550.8 
L 522.285147 550.8 
L 522.285147 519.522975 
L 516.926633 519.522975 
z
" clip-path="url(#p97e644e65d)" style="fill: #1f77b4"/>
   </g>
   <g id="patch_32">
    <path d="M 532.236675 550.8 
L 537.595189 550.8 
L 537.595189 520.159118 
L 532.236675 520.159118 
z
" clip-path="url(#p97e644e65d)" style="fill: #1f77b4"/>
   </g>
   <g id="patch_33">
    <path d="M 547.546717 550.8 
L 552.905231 550.8 
L 552.905231 521.113332 
L 547.546717 521.113332 
z
" clip-path="url(#p97e644e65d)" style="fill: #1f77b4"/>
   </g>
   <g id="patch_34">
    <path d="M 562.856759 550.8 
L 568.215273 550.8 
L 568.215273 521.431403 
L 562.856759 521.431403 
z
" clip-path="url(#p97e644e65d)" style="fill: #1f77b4"/>
   </g>
   <g id="patch_35">
    <path d="M 578.166801 550.8 
L 583.525316 550.8 
L 583.525316 522.385618 
L 578.166801 522.385618 
z
" clip-path="url(#p97e644e65d)" style="fill: #1f77b4"/>
   </g>
   <g id="patch_36">
    <path d="M 593.476843 550.8 
L 598.835358 550.8 
L 598.835358 522.491642 
L 593.476843 522.491642 
z
" clip-path="url(#p97e644e65d)" style="fill: #1f77b4"/>
   </g>
   <g id="patch_37">
    <path d="M 608.786885 550.8 
L 614.1454 550.8 
L 614.1454 523.233808 
L 608.786885 523.233808 
z
" clip-path="url(#p97e644e65d)" style="fill: #1f77b4"/>
   </g>
   <g id="patch_38">
    <path d="M 624.096927 550.8 
L 629.455442 550.8 
L 629.455442 523.233808 
L 624.096927 523.233808 
z
" clip-path="url(#p97e644e65d)" style="fill: #1f77b4"/>
   </g>
   <g id="patch_39">
    <path d="M 639.406969 550.8 
L 644.765484 550.8 
L 644.765484 523.869951 
L 639.406969 523.869951 
z
" clip-path="url(#p97e644e65d)" style="fill: #1f77b4"/>
   </g>
   <g id="patch_40">
    <path d="M 654.717011 550.8 
L 660.075526 550.8 
L 660.075526 524.188023 
L 654.717011 524.188023 
z
" clip-path="url(#p97e644e65d)" style="fill: #1f77b4"/>
   </g>
   <g id="patch_41">
    <path d="M 670.027053 550.8 
L 675.385568 550.8 
L 675.385568 526.62657 
L 670.027053 526.62657 
z
" clip-path="url(#p97e644e65d)" style="fill: #1f77b4"/>
   </g>
   <g id="patch_42">
    <path d="M 685.337095 550.8 
L 690.69561 550.8 
L 690.69561 528.322951 
L 685.337095 528.322951 
z
" clip-path="url(#p97e644e65d)" style="fill: #1f77b4"/>
   </g>
   <g id="patch_43">
    <path d="M 700.647137 550.8 
L 706.005652 550.8 
L 706.005652 528.641023 
L 700.647137 528.641023 
z
" clip-path="url(#p97e644e65d)" style="fill: #1f77b4"/>
   </g>
   <g id="patch_44">
    <path d="M 715.957179 550.8 
L 721.315694 550.8 
L 721.315694 529.383189 
L 715.957179 529.383189 
z
" clip-path="url(#p97e644e65d)" style="fill: #1f77b4"/>
   </g>
   <g id="patch_45">
    <path d="M 731.267222 550.8 
L 736.625736 550.8 
L 736.625736 530.125356 
L 731.267222 530.125356 
z
" clip-path="url(#p97e644e65d)" style="fill: #1f77b4"/>
   </g>
   <g id="patch_46">
    <path d="M 746.577264 550.8 
L 751.935778 550.8 
L 751.935778 530.23138 
L 746.577264 530.23138 
z
" clip-path="url(#p97e644e65d)" style="fill: #1f77b4"/>
   </g>
   <g id="patch_47">
    <path d="M 761.887306 550.8 
L 767.24582 550.8 
L 767.24582 530.443428 
L 761.887306 530.443428 
z
" clip-path="url(#p97e644e65d)" style="fill: #1f77b4"/>
   </g>
   <g id="patch_48">
    <path d="M 777.197348 550.8 
L 782.555862 550.8 
L 782.555862 530.549451 
L 777.197348 530.549451 
z
" clip-path="url(#p97e644e65d)" style="fill: #1f77b4"/>
   </g>
   <g id="patch_49">
    <path d="M 792.50739 550.8 
L 797.865905 550.8 
L 797.865905 530.867523 
L 792.50739 530.867523 
z
" clip-path="url(#p97e644e65d)" style="fill: #1f77b4"/>
   </g>
   <g id="patch_50">
    <path d="M 807.817432 550.8 
L 813.175947 550.8 
L 813.175947 532.033785 
L 807.817432 532.033785 
z
" clip-path="url(#p97e644e65d)" style="fill: #1f77b4"/>
   </g>
   <g id="patch_51">
    <path d="M 823.127474 550.8 
L 828.485989 550.8 
L 828.485989 532.563904 
L 823.127474 532.563904 
z
" clip-path="url(#p97e644e65d)" style="fill: #1f77b4"/>
   </g>
   <g id="patch_52">
    <path d="M 838.437516 550.8 
L 843.796031 550.8 
L 843.796031 533.730166 
L 838.437516 533.730166 
z
" clip-path="url(#p97e644e65d)" style="fill: #1f77b4"/>
   </g>
   <g id="patch_53">
    <path d="M 93.603969 550.8 
L 98.962484 550.8 
L 98.962484 33.085714 
L 93.603969 33.085714 
z
" clip-path="url(#p97e644e65d)" style="fill: #ff7f0e"/>
   </g>
   <g id="patch_54">
    <path d="M 108.914011 550.8 
L 114.272526 550.8 
L 114.272526 280.863369 
L 108.914011 280.863369 
z
" clip-path="url(#p97e644e65d)" style="fill: #ff7f0e"/>
   </g>
   <g id="patch_55">
    <path d="M 124.224053 550.8 
L 129.582568 550.8 
L 129.582568 358.366777 
L 124.224053 358.366777 
z
" clip-path="url(#p97e644e65d)" style="fill: #ff7f0e"/>
   </g>
   <g id="patch_56">
    <path d="M 139.534095 550.8 
L 144.89261 550.8 
L 144.89261 410.318446 
L 139.534095 410.318446 
z
" clip-path="url(#p97e644e65d)" style="fill: #ff7f0e"/>
   </g>
   <g id="patch_57">
    <path d="M 154.844138 550.8 
L 160.202652 550.8 
L 160.202652 435.976209 
L 154.844138 435.976209 
z
" clip-path="url(#p97e644e65d)" style="fill: #ff7f0e"/>
   </g>
   <g id="patch_58">
    <path d="M 170.15418 550.8 
L 175.512694 550.8 
L 175.512694 436.8244 
L 170.15418 436.8244 
z
" clip-path="url(#p97e644e65d)" style="fill: #ff7f0e"/>
   </g>
   <g id="patch_59">
    <path d="M 185.464222 550.8 
L 190.822736 550.8 
L 190.822736 448.274971 
L 185.464222 448.274971 
z
" clip-path="url(#p97e644e65d)" style="fill: #ff7f0e"/>
   </g>
   <g id="patch_60">
    <path d="M 200.774264 550.8 
L 206.132778 550.8 
L 206.132778 447.002686 
L 200.774264 447.002686 
z
" clip-path="url(#p97e644e65d)" style="fill: #ff7f0e"/>
   </g>
   <g id="patch_61">
    <path d="M 216.084306 550.8 
L 221.442821 550.8 
L 221.442821 454.000257 
L 216.084306 454.000257 
z
" clip-path="url(#p97e644e65d)" style="fill: #ff7f0e"/>
   </g>
   <g id="patch_62">
    <path d="M 231.394348 550.8 
L 236.752863 550.8 
L 236.752863 455.908686 
L 231.394348 455.908686 
z
" clip-path="url(#p97e644e65d)" style="fill: #ff7f0e"/>
   </g>
   <g id="patch_63">
    <path d="M 246.70439 550.8 
L 252.062905 550.8 
L 252.062905 461.952044 
L 246.70439 461.952044 
z
" clip-path="url(#p97e644e65d)" style="fill: #ff7f0e"/>
   </g>
   <g id="patch_64">
    <path d="M 262.014432 550.8 
L 267.372947 550.8 
L 267.372947 461.952044 
L 262.014432 461.952044 
z
" clip-path="url(#p97e644e65d)" style="fill: #ff7f0e"/>
   </g>
   <g id="patch_65">
    <path d="M 277.324474 550.8 
L 282.682989 550.8 
L 282.682989 465.238782 
L 277.324474 465.238782 
z
" clip-path="url(#p97e644e65d)" style="fill: #ff7f0e"/>
   </g>
   <g id="patch_66">
    <path d="M 292.634516 550.8 
L 297.993031 550.8 
L 297.993031 475.947187 
L 292.634516 475.947187 
z
" clip-path="url(#p97e644e65d)" style="fill: #ff7f0e"/>
   </g>
   <g id="patch_67">
    <path d="M 307.944558 550.8 
L 313.303073 550.8 
L 313.303073 480.612235 
L 307.944558 480.612235 
z
" clip-path="url(#p97e644e65d)" style="fill: #ff7f0e"/>
   </g>
   <g id="patch_68">
    <path d="M 323.2546 550.8 
L 328.613115 550.8 
L 328.613115 484.323068 
L 323.2546 484.323068 
z
" clip-path="url(#p97e644e65d)" style="fill: #ff7f0e"/>
   </g>
   <g id="patch_69">
    <path d="M 338.564642 550.8 
L 343.923157 550.8 
L 343.923157 482.732711 
L 338.564642 482.732711 
z
" clip-path="url(#p97e644e65d)" style="fill: #ff7f0e"/>
   </g>
   <g id="patch_70">
    <path d="M 353.874684 550.8 
L 359.233199 550.8 
L 359.233199 483.580902 
L 353.874684 483.580902 
z
" clip-path="url(#p97e644e65d)" style="fill: #ff7f0e"/>
   </g>
   <g id="patch_71">
    <path d="M 369.184727 550.8 
L 374.543241 550.8 
L 374.543241 498.00014 
L 369.184727 498.00014 
z
" clip-path="url(#p97e644e65d)" style="fill: #ff7f0e"/>
   </g>
   <g id="patch_72">
    <path d="M 384.494769 550.8 
L 389.853283 550.8 
L 389.853283 502.241093 
L 384.494769 502.241093 
z
" clip-path="url(#p97e644e65d)" style="fill: #ff7f0e"/>
   </g>
   <g id="patch_73">
    <path d="M 399.804811 550.8 
L 405.163325 550.8 
L 405.163325 505.633855 
L 399.804811 505.633855 
z
" clip-path="url(#p97e644e65d)" style="fill: #ff7f0e"/>
   </g>
   <g id="patch_74">
    <path d="M 415.114853 550.8 
L 420.473367 550.8 
L 420.473367 508.28445 
L 415.114853 508.28445 
z
" clip-path="url(#p97e644e65d)" style="fill: #ff7f0e"/>
   </g>
   <g id="patch_75">
    <path d="M 430.424895 550.8 
L 435.78341 550.8 
L 435.78341 513.26757 
L 430.424895 513.26757 
z
" clip-path="url(#p97e644e65d)" style="fill: #ff7f0e"/>
   </g>
   <g id="patch_76">
    <path d="M 445.734937 550.8 
L 451.093452 550.8 
L 451.093452 514.539855 
L 445.734937 514.539855 
z
" clip-path="url(#p97e644e65d)" style="fill: #ff7f0e"/>
   </g>
   <g id="patch_77">
    <path d="M 461.044979 550.8 
L 466.403494 550.8 
L 466.403494 515.069975 
L 461.044979 515.069975 
z
" clip-path="url(#p97e644e65d)" style="fill: #ff7f0e"/>
   </g>
   <g id="patch_78">
    <path d="M 476.355021 550.8 
L 481.713536 550.8 
L 481.713536 513.903713 
L 476.355021 513.903713 
z
" clip-path="url(#p97e644e65d)" style="fill: #ff7f0e"/>
   </g>
   <g id="patch_79">
    <path d="M 491.665063 550.8 
L 497.023578 550.8 
L 497.023578 518.462737 
L 491.665063 518.462737 
z
" clip-path="url(#p97e644e65d)" style="fill: #ff7f0e"/>
   </g>
   <g id="patch_80">
    <path d="M 506.975105 550.8 
L 512.33362 550.8 
L 512.33362 515.812141 
L 506.975105 515.812141 
z
" clip-path="url(#p97e644e65d)" style="fill: #ff7f0e"/>
   </g>
   <g id="patch_81">
    <path d="M 522.285147 550.8 
L 527.643662 550.8 
L 527.643662 516.024189 
L 522.285147 516.024189 
z
" clip-path="url(#p97e644e65d)" style="fill: #ff7f0e"/>
   </g>
   <g id="patch_82">
    <path d="M 537.595189 550.8 
L 542.953704 550.8 
L 542.953704 517.508522 
L 537.595189 517.508522 
z
" clip-path="url(#p97e644e65d)" style="fill: #ff7f0e"/>
   </g>
   <g id="patch_83">
    <path d="M 552.905231 550.8 
L 558.263746 550.8 
L 558.263746 518.992856 
L 552.905231 518.992856 
z
" clip-path="url(#p97e644e65d)" style="fill: #ff7f0e"/>
   </g>
   <g id="patch_84">
    <path d="M 568.215273 550.8 
L 573.573788 550.8 
L 573.573788 519.098879 
L 568.215273 519.098879 
z
" clip-path="url(#p97e644e65d)" style="fill: #ff7f0e"/>
   </g>
   <g id="patch_85">
    <path d="M 583.525316 550.8 
L 588.88383 550.8 
L 588.88383 488.776069 
L 583.525316 488.776069 
z
" clip-path="url(#p97e644e65d)" style="fill: #ff7f0e"/>
   </g>
   <g id="patch_86">
    <path d="M 598.835358 550.8 
L 604.193872 550.8 
L 604.193872 520.583213 
L 598.835358 520.583213 
z
" clip-path="url(#p97e644e65d)" style="fill: #ff7f0e"/>
   </g>
   <g id="patch_87">
    <path d="M 614.1454 550.8 
L 619.503914 550.8 
L 619.503914 550.8 
L 614.1454 550.8 
z
" clip-path="url(#p97e644e65d)" style="fill: #ff7f0e"/>
   </g>
   <g id="patch_88">
    <path d="M 629.455442 550.8 
L 634.813956 550.8 
L 634.813956 521.961522 
L 629.455442 521.961522 
z
" clip-path="url(#p97e644e65d)" style="fill: #ff7f0e"/>
   </g>
   <g id="patch_89">
    <path d="M 644.765484 550.8 
L 650.123999 550.8 
L 650.123999 521.749475 
L 644.765484 521.749475 
z
" clip-path="url(#p97e644e65d)" style="fill: #ff7f0e"/>
   </g>
   <g id="patch_90">
    <path d="M 660.075526 550.8 
L 665.434041 550.8 
L 665.434041 521.749475 
L 660.075526 521.749475 
z
" clip-path="url(#p97e644e65d)" style="fill: #ff7f0e"/>
   </g>
   <g id="patch_91">
    <path d="M 675.385568 550.8 
L 680.744083 550.8 
L 680.744083 524.718142 
L 675.385568 524.718142 
z
" clip-path="url(#p97e644e65d)" style="fill: #ff7f0e"/>
   </g>
   <g id="patch_92">
    <path d="M 690.69561 550.8 
L 696.054125 550.8 
L 696.054125 525.884404 
L 690.69561 525.884404 
z
" clip-path="url(#p97e644e65d)" style="fill: #ff7f0e"/>
   </g>
   <g id="patch_93">
    <path d="M 706.005652 550.8 
L 711.364167 550.8 
L 711.364167 550.8 
L 706.005652 550.8 
z
" clip-path="url(#p97e644e65d)" style="fill: #ff7f0e"/>
   </g>
   <g id="patch_94">
    <path d="M 721.315694 550.8 
L 726.674209 550.8 
L 726.674209 526.732594 
L 721.315694 526.732594 
z
" clip-path="url(#p97e644e65d)" style="fill: #ff7f0e"/>
   </g>
   <g id="patch_95">
    <path d="M 736.625736 550.8 
L 741.984251 550.8 
L 741.984251 527.898856 
L 736.625736 527.898856 
z
" clip-path="url(#p97e644e65d)" style="fill: #ff7f0e"/>
   </g>
   <g id="patch_96">
    <path d="M 751.935778 550.8 
L 757.294293 550.8 
L 757.294293 528.85307 
L 751.935778 528.85307 
z
" clip-path="url(#p97e644e65d)" style="fill: #ff7f0e"/>
   </g>
   <g id="patch_97">
    <path d="M 767.24582 550.8 
L 772.604335 550.8 
L 772.604335 530.019332 
L 767.24582 530.019332 
z
" clip-path="url(#p97e644e65d)" style="fill: #ff7f0e"/>
   </g>
   <g id="patch_98">
    <path d="M 782.555862 550.8 
L 787.914377 550.8 
L 787.914377 527.686808 
L 782.555862 527.686808 
z
" clip-path="url(#p97e644e65d)" style="fill: #ff7f0e"/>
   </g>
   <g id="patch_99">
    <path d="M 797.865905 550.8 
L 803.224419 550.8 
L 803.224419 550.8 
L 797.865905 550.8 
z
" clip-path="url(#p97e644e65d)" style="fill: #ff7f0e"/>
   </g>
   <g id="patch_100">
    <path d="M 813.175947 550.8 
L 818.534461 550.8 
L 818.534461 529.171142 
L 813.175947 529.171142 
z
" clip-path="url(#p97e644e65d)" style="fill: #ff7f0e"/>
   </g>
   <g id="patch_101">
    <path d="M 828.485989 550.8 
L 833.844503 550.8 
L 833.844503 531.291618 
L 828.485989 531.291618 
z
" clip-path="url(#p97e644e65d)" style="fill: #ff7f0e"/>
   </g>
   <g id="patch_102">
    <path d="M 843.796031 550.8 
L 849.154545 550.8 
L 849.154545 532.45788 
L 843.796031 532.45788 
z
" clip-path="url(#p97e644e65d)" style="fill: #ff7f0e"/>
   </g>
   <g id="matplotlib.axis_1">
    <g id="xtick_1">
     <g id="line2d_1">
      <defs>
       <path id="m188fe4489c" d="M 0 0 
L 0 3.5 
" style="stroke: #000000; stroke-width: 0.8"/>
      </defs>
      <g>
       <use xlink:href="#m188fe4489c" x="93.603969" y="550.8" style="stroke: #000000; stroke-width: 0.8"/>
      </g>
     </g>
     <g id="text_1">
      <!-- happy -->
      <g transform="translate(89.296626 557.8)rotate(-270)scale(0.18 -0.18)">
       <defs>
        <path id="TimesNewRomanPSMT-68" d="M 1041 4444 
L 1041 2350 
Q 1388 2731 1591 2839 
Q 1794 2947 1997 2947 
Q 2241 2947 2416 2812 
Q 2591 2678 2675 2391 
Q 2734 2191 2734 1659 
L 2734 647 
Q 2734 375 2778 275 
Q 2809 200 2884 156 
Q 2959 113 3159 113 
L 3159 0 
L 1753 0 
L 1753 113 
L 1819 113 
Q 2019 113 2097 173 
Q 2175 234 2206 353 
Q 2216 403 2216 647 
L 2216 1659 
Q 2216 2128 2167 2275 
Q 2119 2422 2012 2495 
Q 1906 2569 1756 2569 
Q 1603 2569 1437 2487 
Q 1272 2406 1041 2159 
L 1041 647 
Q 1041 353 1073 281 
Q 1106 209 1195 161 
Q 1284 113 1503 113 
L 1503 0 
L 84 0 
L 84 113 
Q 275 113 384 172 
Q 447 203 484 290 
Q 522 378 522 647 
L 522 3238 
Q 522 3728 498 3840 
Q 475 3953 426 3993 
Q 378 4034 297 4034 
Q 231 4034 84 3984 
L 41 4094 
L 897 4444 
L 1041 4444 
z
" transform="scale(0.015625)"/>
        <path id="TimesNewRomanPSMT-61" d="M 1822 413 
Q 1381 72 1269 19 
Q 1100 -59 909 -59 
Q 613 -59 420 144 
Q 228 347 228 678 
Q 228 888 322 1041 
Q 450 1253 767 1440 
Q 1084 1628 1822 1897 
L 1822 2009 
Q 1822 2438 1686 2597 
Q 1550 2756 1291 2756 
Q 1094 2756 978 2650 
Q 859 2544 859 2406 
L 866 2225 
Q 866 2081 792 2003 
Q 719 1925 600 1925 
Q 484 1925 411 2006 
Q 338 2088 338 2228 
Q 338 2497 613 2722 
Q 888 2947 1384 2947 
Q 1766 2947 2009 2819 
Q 2194 2722 2281 2516 
Q 2338 2381 2338 1966 
L 2338 994 
Q 2338 584 2353 492 
Q 2369 400 2405 369 
Q 2441 338 2488 338 
Q 2538 338 2575 359 
Q 2641 400 2828 588 
L 2828 413 
Q 2478 -56 2159 -56 
Q 2006 -56 1915 50 
Q 1825 156 1822 413 
z
M 1822 616 
L 1822 1706 
Q 1350 1519 1213 1441 
Q 966 1303 859 1153 
Q 753 1003 753 825 
Q 753 600 887 451 
Q 1022 303 1197 303 
Q 1434 303 1822 616 
z
" transform="scale(0.015625)"/>
        <path id="TimesNewRomanPSMT-70" d="M -6 2578 
L 875 2934 
L 994 2934 
L 994 2266 
Q 1216 2644 1439 2795 
Q 1663 2947 1909 2947 
Q 2341 2947 2628 2609 
Q 2981 2197 2981 1534 
Q 2981 794 2556 309 
Q 2206 -88 1675 -88 
Q 1444 -88 1275 -22 
Q 1150 25 994 166 
L 994 -706 
Q 994 -1000 1030 -1079 
Q 1066 -1159 1155 -1206 
Q 1244 -1253 1478 -1253 
L 1478 -1369 
L -22 -1369 
L -22 -1253 
L 56 -1253 
Q 228 -1256 350 -1188 
Q 409 -1153 442 -1076 
Q 475 -1000 475 -688 
L 475 2019 
Q 475 2297 450 2372 
Q 425 2447 370 2484 
Q 316 2522 222 2522 
Q 147 2522 31 2478 
L -6 2578 
z
M 994 2081 
L 994 1013 
Q 994 666 1022 556 
Q 1066 375 1236 237 
Q 1406 100 1666 100 
Q 1978 100 2172 344 
Q 2425 663 2425 1241 
Q 2425 1897 2138 2250 
Q 1938 2494 1663 2494 
Q 1513 2494 1366 2419 
Q 1253 2363 994 2081 
z
" transform="scale(0.015625)"/>
        <path id="TimesNewRomanPSMT-79" d="M 38 2863 
L 1372 2863 
L 1372 2747 
L 1306 2747 
Q 1166 2747 1095 2686 
Q 1025 2625 1025 2534 
Q 1025 2413 1128 2197 
L 1825 753 
L 2466 2334 
Q 2519 2463 2519 2588 
Q 2519 2644 2497 2672 
Q 2472 2706 2419 2726 
Q 2366 2747 2231 2747 
L 2231 2863 
L 3163 2863 
L 3163 2747 
Q 3047 2734 2984 2696 
Q 2922 2659 2847 2556 
Q 2819 2513 2741 2316 
L 1575 -541 
Q 1406 -956 1132 -1168 
Q 859 -1381 606 -1381 
Q 422 -1381 303 -1275 
Q 184 -1169 184 -1031 
Q 184 -900 270 -820 
Q 356 -741 506 -741 
Q 609 -741 788 -809 
Q 913 -856 944 -856 
Q 1038 -856 1148 -759 
Q 1259 -663 1372 -384 
L 1575 113 
L 547 2272 
Q 500 2369 397 2513 
Q 319 2622 269 2659 
Q 197 2709 38 2747 
L 38 2863 
z
" transform="scale(0.015625)"/>
       </defs>
       <use xlink:href="#TimesNewRomanPSMT-68"/>
       <use xlink:href="#TimesNewRomanPSMT-61" x="50"/>
       <use xlink:href="#TimesNewRomanPSMT-70" x="94.384766"/>
       <use xlink:href="#TimesNewRomanPSMT-70" x="144.384766"/>
       <use xlink:href="#TimesNewRomanPSMT-79" x="194.384766"/>
      </g>
     </g>
    </g>
    <g id="xtick_2">
     <g id="line2d_2">
      <g>
       <use xlink:href="#m188fe4489c" x="108.914011" y="550.8" style="stroke: #000000; stroke-width: 0.8"/>
      </g>
     </g>
     <g id="text_2">
      <!-- excited -->
      <g transform="translate(104.589793 557.8)rotate(-270)scale(0.18 -0.18)">
       <defs>
        <path id="TimesNewRomanPSMT-65" d="M 681 1784 
Q 678 1147 991 784 
Q 1303 422 1725 422 
Q 2006 422 2214 576 
Q 2422 731 2563 1106 
L 2659 1044 
Q 2594 616 2278 264 
Q 1963 -88 1488 -88 
Q 972 -88 605 314 
Q 238 716 238 1394 
Q 238 2128 614 2539 
Q 991 2950 1559 2950 
Q 2041 2950 2350 2633 
Q 2659 2316 2659 1784 
L 681 1784 
z
M 681 1966 
L 2006 1966 
Q 1991 2241 1941 2353 
Q 1863 2528 1708 2628 
Q 1553 2728 1384 2728 
Q 1125 2728 920 2526 
Q 716 2325 681 1966 
z
" transform="scale(0.015625)"/>
        <path id="TimesNewRomanPSMT-78" d="M 84 2863 
L 1431 2863 
L 1431 2747 
Q 1303 2747 1251 2703 
Q 1200 2659 1200 2588 
Q 1200 2513 1309 2356 
Q 1344 2306 1413 2200 
L 1616 1875 
L 1850 2200 
Q 2075 2509 2075 2591 
Q 2075 2656 2022 2701 
Q 1969 2747 1850 2747 
L 1850 2863 
L 2819 2863 
L 2819 2747 
Q 2666 2738 2553 2663 
Q 2400 2556 2134 2200 
L 1744 1678 
L 2456 653 
Q 2719 275 2831 198 
Q 2944 122 3122 113 
L 3122 0 
L 1772 0 
L 1772 113 
Q 1913 113 1991 175 
Q 2050 219 2050 291 
Q 2050 363 1850 653 
L 1431 1266 
L 972 653 
Q 759 369 759 316 
Q 759 241 829 180 
Q 900 119 1041 113 
L 1041 0 
L 106 0 
L 106 113 
Q 219 128 303 191 
Q 422 281 703 653 
L 1303 1450 
L 759 2238 
Q 528 2575 401 2661 
Q 275 2747 84 2747 
L 84 2863 
z
" transform="scale(0.015625)"/>
        <path id="TimesNewRomanPSMT-63" d="M 2631 1088 
Q 2516 522 2178 217 
Q 1841 -88 1431 -88 
Q 944 -88 581 321 
Q 219 731 219 1428 
Q 219 2103 620 2525 
Q 1022 2947 1584 2947 
Q 2006 2947 2278 2723 
Q 2550 2500 2550 2259 
Q 2550 2141 2473 2067 
Q 2397 1994 2259 1994 
Q 2075 1994 1981 2113 
Q 1928 2178 1911 2362 
Q 1894 2547 1784 2644 
Q 1675 2738 1481 2738 
Q 1169 2738 978 2506 
Q 725 2200 725 1697 
Q 725 1184 976 792 
Q 1228 400 1656 400 
Q 1963 400 2206 609 
Q 2378 753 2541 1131 
L 2631 1088 
z
" transform="scale(0.015625)"/>
        <path id="TimesNewRomanPSMT-69" d="M 928 4444 
Q 1059 4444 1151 4351 
Q 1244 4259 1244 4128 
Q 1244 3997 1151 3903 
Q 1059 3809 928 3809 
Q 797 3809 703 3903 
Q 609 3997 609 4128 
Q 609 4259 701 4351 
Q 794 4444 928 4444 
z
M 1188 2947 
L 1188 647 
Q 1188 378 1227 289 
Q 1266 200 1342 156 
Q 1419 113 1622 113 
L 1622 0 
L 231 0 
L 231 113 
Q 441 113 512 153 
Q 584 194 626 287 
Q 669 381 669 647 
L 669 1750 
Q 669 2216 641 2353 
Q 619 2453 572 2492 
Q 525 2531 444 2531 
Q 356 2531 231 2484 
L 188 2597 
L 1050 2947 
L 1188 2947 
z
" transform="scale(0.015625)"/>
        <path id="TimesNewRomanPSMT-74" d="M 1031 3803 
L 1031 2863 
L 1700 2863 
L 1700 2644 
L 1031 2644 
L 1031 788 
Q 1031 509 1111 412 
Q 1191 316 1316 316 
Q 1419 316 1516 380 
Q 1613 444 1666 569 
L 1788 569 
Q 1678 263 1478 108 
Q 1278 -47 1066 -47 
Q 922 -47 784 33 
Q 647 113 581 261 
Q 516 409 516 719 
L 516 2644 
L 63 2644 
L 63 2747 
Q 234 2816 414 2980 
Q 594 3144 734 3369 
Q 806 3488 934 3803 
L 1031 3803 
z
" transform="scale(0.015625)"/>
        <path id="TimesNewRomanPSMT-64" d="M 2222 322 
Q 2013 103 1813 7 
Q 1613 -88 1381 -88 
Q 913 -88 563 304 
Q 213 697 213 1313 
Q 213 1928 600 2439 
Q 988 2950 1597 2950 
Q 1975 2950 2222 2709 
L 2222 3238 
Q 2222 3728 2198 3840 
Q 2175 3953 2125 3993 
Q 2075 4034 2000 4034 
Q 1919 4034 1784 3984 
L 1744 4094 
L 2597 4444 
L 2738 4444 
L 2738 1134 
Q 2738 631 2761 520 
Q 2784 409 2836 365 
Q 2888 322 2956 322 
Q 3041 322 3181 375 
L 3216 266 
L 2366 -88 
L 2222 -88 
L 2222 322 
z
M 2222 541 
L 2222 2016 
Q 2203 2228 2109 2403 
Q 2016 2578 1861 2667 
Q 1706 2756 1559 2756 
Q 1284 2756 1069 2509 
Q 784 2184 784 1559 
Q 784 928 1059 592 
Q 1334 256 1672 256 
Q 1956 256 2222 541 
z
" transform="scale(0.015625)"/>
       </defs>
       <use xlink:href="#TimesNewRomanPSMT-65"/>
       <use xlink:href="#TimesNewRomanPSMT-78" x="44.384766"/>
       <use xlink:href="#TimesNewRomanPSMT-63" x="94.384766"/>
       <use xlink:href="#TimesNewRomanPSMT-69" x="138.769531"/>
       <use xlink:href="#TimesNewRomanPSMT-74" x="166.552734"/>
       <use xlink:href="#TimesNewRomanPSMT-65" x="194.335938"/>
       <use xlink:href="#TimesNewRomanPSMT-64" x="238.720703"/>
      </g>
     </g>
    </g>
    <g id="xtick_3">
     <g id="line2d_3">
      <g>
       <use xlink:href="#m188fe4489c" x="124.224053" y="550.8" style="stroke: #000000; stroke-width: 0.8"/>
      </g>
     </g>
     <g id="text_3">
      <!-- sad -->
      <g transform="translate(119.899835 557.8)rotate(-270)scale(0.18 -0.18)">
       <defs>
        <path id="TimesNewRomanPSMT-73" d="M 2050 2947 
L 2050 1972 
L 1947 1972 
Q 1828 2431 1642 2597 
Q 1456 2763 1169 2763 
Q 950 2763 815 2647 
Q 681 2531 681 2391 
Q 681 2216 781 2091 
Q 878 1963 1175 1819 
L 1631 1597 
Q 2266 1288 2266 781 
Q 2266 391 1970 151 
Q 1675 -88 1309 -88 
Q 1047 -88 709 6 
Q 606 38 541 38 
Q 469 38 428 -44 
L 325 -44 
L 325 978 
L 428 978 
Q 516 541 762 319 
Q 1009 97 1316 97 
Q 1531 97 1667 223 
Q 1803 350 1803 528 
Q 1803 744 1651 891 
Q 1500 1038 1047 1263 
Q 594 1488 453 1669 
Q 313 1847 313 2119 
Q 313 2472 555 2709 
Q 797 2947 1181 2947 
Q 1350 2947 1591 2875 
Q 1750 2828 1803 2828 
Q 1853 2828 1881 2850 
Q 1909 2872 1947 2947 
L 2050 2947 
z
" transform="scale(0.015625)"/>
       </defs>
       <use xlink:href="#TimesNewRomanPSMT-73"/>
       <use xlink:href="#TimesNewRomanPSMT-61" x="38.916016"/>
       <use xlink:href="#TimesNewRomanPSMT-64" x="83.300781"/>
      </g>
     </g>
    </g>
    <g id="xtick_4">
     <g id="line2d_4">
      <g>
       <use xlink:href="#m188fe4489c" x="139.534095" y="550.8" style="stroke: #000000; stroke-width: 0.8"/>
      </g>
     </g>
     <g id="text_4">
      <!-- proud -->
      <g transform="translate(135.209877 557.8)rotate(-270)scale(0.18 -0.18)">
       <defs>
        <path id="TimesNewRomanPSMT-72" d="M 1038 2947 
L 1038 2303 
Q 1397 2947 1775 2947 
Q 1947 2947 2059 2842 
Q 2172 2738 2172 2600 
Q 2172 2478 2090 2393 
Q 2009 2309 1897 2309 
Q 1788 2309 1652 2417 
Q 1516 2525 1450 2525 
Q 1394 2525 1328 2463 
Q 1188 2334 1038 2041 
L 1038 669 
Q 1038 431 1097 309 
Q 1138 225 1241 169 
Q 1344 113 1538 113 
L 1538 0 
L 72 0 
L 72 113 
Q 291 113 397 181 
Q 475 231 506 341 
Q 522 394 522 644 
L 522 1753 
Q 522 2253 501 2348 
Q 481 2444 426 2487 
Q 372 2531 291 2531 
Q 194 2531 72 2484 
L 41 2597 
L 906 2947 
L 1038 2947 
z
" transform="scale(0.015625)"/>
        <path id="TimesNewRomanPSMT-6f" d="M 1600 2947 
Q 2250 2947 2644 2453 
Q 2978 2031 2978 1484 
Q 2978 1100 2793 706 
Q 2609 313 2286 112 
Q 1963 -88 1566 -88 
Q 919 -88 538 428 
Q 216 863 216 1403 
Q 216 1797 411 2186 
Q 606 2575 925 2761 
Q 1244 2947 1600 2947 
z
M 1503 2744 
Q 1338 2744 1170 2645 
Q 1003 2547 900 2300 
Q 797 2053 797 1666 
Q 797 1041 1045 587 
Q 1294 134 1700 134 
Q 2003 134 2200 384 
Q 2397 634 2397 1244 
Q 2397 2006 2069 2444 
Q 1847 2744 1503 2744 
z
" transform="scale(0.015625)"/>
        <path id="TimesNewRomanPSMT-75" d="M 2709 2863 
L 2709 1128 
Q 2709 631 2732 520 
Q 2756 409 2807 365 
Q 2859 322 2928 322 
Q 3025 322 3147 375 
L 3191 266 
L 2334 -88 
L 2194 -88 
L 2194 519 
Q 1825 119 1631 15 
Q 1438 -88 1222 -88 
Q 981 -88 804 51 
Q 628 191 559 409 
Q 491 628 491 1028 
L 491 2306 
Q 491 2509 447 2587 
Q 403 2666 317 2708 
Q 231 2750 6 2747 
L 6 2863 
L 1009 2863 
L 1009 947 
Q 1009 547 1148 422 
Q 1288 297 1484 297 
Q 1619 297 1789 381 
Q 1959 466 2194 703 
L 2194 2325 
Q 2194 2569 2105 2655 
Q 2016 2741 1734 2747 
L 1734 2863 
L 2709 2863 
z
" transform="scale(0.015625)"/>
       </defs>
       <use xlink:href="#TimesNewRomanPSMT-70"/>
       <use xlink:href="#TimesNewRomanPSMT-72" x="50"/>
       <use xlink:href="#TimesNewRomanPSMT-6f" x="83.300781"/>
       <use xlink:href="#TimesNewRomanPSMT-75" x="133.300781"/>
       <use xlink:href="#TimesNewRomanPSMT-64" x="183.300781"/>
      </g>
     </g>
    </g>
    <g id="xtick_5">
     <g id="line2d_5">
      <g>
       <use xlink:href="#m188fe4489c" x="154.844138" y="550.8" style="stroke: #000000; stroke-width: 0.8"/>
      </g>
     </g>
     <g id="text_5">
      <!-- scared -->
      <g transform="translate(150.519919 557.8)rotate(-270)scale(0.18 -0.18)">
       <use xlink:href="#TimesNewRomanPSMT-73"/>
       <use xlink:href="#TimesNewRomanPSMT-63" x="38.916016"/>
       <use xlink:href="#TimesNewRomanPSMT-61" x="83.300781"/>
       <use xlink:href="#TimesNewRomanPSMT-72" x="127.685547"/>
       <use xlink:href="#TimesNewRomanPSMT-65" x="160.986328"/>
       <use xlink:href="#TimesNewRomanPSMT-64" x="205.371094"/>
      </g>
     </g>
    </g>
    <g id="xtick_6">
     <g id="line2d_6">
      <g>
       <use xlink:href="#m188fe4489c" x="170.15418" y="550.8" style="stroke: #000000; stroke-width: 0.8"/>
      </g>
     </g>
     <g id="text_6">
      <!-- angry -->
      <g transform="translate(165.863711 557.8)rotate(-270)scale(0.18 -0.18)">
       <defs>
        <path id="TimesNewRomanPSMT-6e" d="M 1034 2341 
Q 1538 2947 1994 2947 
Q 2228 2947 2397 2830 
Q 2566 2713 2666 2444 
Q 2734 2256 2734 1869 
L 2734 647 
Q 2734 375 2778 278 
Q 2813 200 2889 156 
Q 2966 113 3172 113 
L 3172 0 
L 1756 0 
L 1756 113 
L 1816 113 
Q 2016 113 2095 173 
Q 2175 234 2206 353 
Q 2219 400 2219 647 
L 2219 1819 
Q 2219 2209 2117 2386 
Q 2016 2563 1775 2563 
Q 1403 2563 1034 2156 
L 1034 647 
Q 1034 356 1069 288 
Q 1113 197 1189 155 
Q 1266 113 1500 113 
L 1500 0 
L 84 0 
L 84 113 
L 147 113 
Q 366 113 442 223 
Q 519 334 519 647 
L 519 1709 
Q 519 2225 495 2337 
Q 472 2450 423 2490 
Q 375 2531 294 2531 
Q 206 2531 84 2484 
L 38 2597 
L 900 2947 
L 1034 2947 
L 1034 2341 
z
" transform="scale(0.015625)"/>
        <path id="TimesNewRomanPSMT-67" d="M 966 1044 
Q 703 1172 562 1401 
Q 422 1631 422 1909 
Q 422 2334 742 2640 
Q 1063 2947 1563 2947 
Q 1972 2947 2272 2747 
L 2878 2747 
Q 3013 2747 3034 2739 
Q 3056 2731 3066 2713 
Q 3084 2684 3084 2613 
Q 3084 2531 3069 2500 
Q 3059 2484 3036 2475 
Q 3013 2466 2878 2466 
L 2506 2466 
Q 2681 2241 2681 1891 
Q 2681 1491 2375 1206 
Q 2069 922 1553 922 
Q 1341 922 1119 984 
Q 981 866 932 777 
Q 884 688 884 625 
Q 884 572 936 522 
Q 988 472 1138 450 
Q 1225 438 1575 428 
Q 2219 413 2409 384 
Q 2700 344 2873 169 
Q 3047 -6 3047 -263 
Q 3047 -616 2716 -925 
Q 2228 -1381 1444 -1381 
Q 841 -1381 425 -1109 
Q 191 -953 191 -784 
Q 191 -709 225 -634 
Q 278 -519 444 -313 
Q 466 -284 763 25 
Q 600 122 533 198 
Q 466 275 466 372 
Q 466 481 555 628 
Q 644 775 966 1044 
z
M 1509 2797 
Q 1278 2797 1122 2612 
Q 966 2428 966 2047 
Q 966 1553 1178 1281 
Q 1341 1075 1591 1075 
Q 1828 1075 1981 1253 
Q 2134 1431 2134 1813 
Q 2134 2309 1919 2591 
Q 1759 2797 1509 2797 
z
M 934 0 
Q 788 -159 713 -296 
Q 638 -434 638 -550 
Q 638 -700 819 -813 
Q 1131 -1006 1722 -1006 
Q 2284 -1006 2551 -807 
Q 2819 -609 2819 -384 
Q 2819 -222 2659 -153 
Q 2497 -84 2016 -72 
Q 1313 -53 934 0 
z
" transform="scale(0.015625)"/>
       </defs>
       <use xlink:href="#TimesNewRomanPSMT-61"/>
       <use xlink:href="#TimesNewRomanPSMT-6e" x="44.384766"/>
       <use xlink:href="#TimesNewRomanPSMT-67" x="94.384766"/>
       <use xlink:href="#TimesNewRomanPSMT-72" x="144.384766"/>
       <use xlink:href="#TimesNewRomanPSMT-79" x="177.685547"/>
      </g>
     </g>
    </g>
    <g id="xtick_7">
     <g id="line2d_7">
      <g>
       <use xlink:href="#m188fe4489c" x="185.464222" y="550.8" style="stroke: #000000; stroke-width: 0.8"/>
      </g>
     </g>
     <g id="text_7">
      <!-- relieved -->
      <g transform="translate(181.140003 557.8)rotate(-270)scale(0.18 -0.18)">
       <defs>
        <path id="TimesNewRomanPSMT-6c" d="M 1184 4444 
L 1184 647 
Q 1184 378 1223 290 
Q 1263 203 1344 158 
Q 1425 113 1647 113 
L 1647 0 
L 244 0 
L 244 113 
Q 441 113 512 153 
Q 584 194 625 287 
Q 666 381 666 647 
L 666 3247 
Q 666 3731 644 3842 
Q 622 3953 573 3993 
Q 525 4034 450 4034 
Q 369 4034 244 3984 
L 191 4094 
L 1044 4444 
L 1184 4444 
z
" transform="scale(0.015625)"/>
        <path id="TimesNewRomanPSMT-76" d="M 53 2863 
L 1400 2863 
L 1400 2747 
L 1313 2747 
Q 1191 2747 1127 2687 
Q 1063 2628 1063 2528 
Q 1063 2419 1128 2269 
L 1794 688 
L 2463 2328 
Q 2534 2503 2534 2594 
Q 2534 2638 2509 2666 
Q 2475 2713 2422 2730 
Q 2369 2747 2206 2747 
L 2206 2863 
L 3141 2863 
L 3141 2747 
Q 2978 2734 2916 2681 
Q 2806 2588 2719 2369 
L 1703 -88 
L 1575 -88 
L 553 2328 
Q 484 2497 421 2570 
Q 359 2644 263 2694 
Q 209 2722 53 2747 
L 53 2863 
z
" transform="scale(0.015625)"/>
       </defs>
       <use xlink:href="#TimesNewRomanPSMT-72"/>
       <use xlink:href="#TimesNewRomanPSMT-65" x="33.300781"/>
       <use xlink:href="#TimesNewRomanPSMT-6c" x="77.685547"/>
       <use xlink:href="#TimesNewRomanPSMT-69" x="105.46875"/>
       <use xlink:href="#TimesNewRomanPSMT-65" x="133.251953"/>
       <use xlink:href="#TimesNewRomanPSMT-76" x="177.636719"/>
       <use xlink:href="#TimesNewRomanPSMT-65" x="227.636719"/>
       <use xlink:href="#TimesNewRomanPSMT-64" x="272.021484"/>
      </g>
     </g>
    </g>
    <g id="xtick_8">
     <g id="line2d_8">
      <g>
       <use xlink:href="#m188fe4489c" x="200.774264" y="550.8" style="stroke: #000000; stroke-width: 0.8"/>
      </g>
     </g>
     <g id="text_8">
      <!-- disappointed -->
      <g transform="translate(196.450045 557.8)rotate(-270)scale(0.18 -0.18)">
       <use xlink:href="#TimesNewRomanPSMT-64"/>
       <use xlink:href="#TimesNewRomanPSMT-69" x="50"/>
       <use xlink:href="#TimesNewRomanPSMT-73" x="77.783203"/>
       <use xlink:href="#TimesNewRomanPSMT-61" x="116.699219"/>
       <use xlink:href="#TimesNewRomanPSMT-70" x="161.083984"/>
       <use xlink:href="#TimesNewRomanPSMT-70" x="211.083984"/>
       <use xlink:href="#TimesNewRomanPSMT-6f" x="261.083984"/>
       <use xlink:href="#TimesNewRomanPSMT-69" x="311.083984"/>
       <use xlink:href="#TimesNewRomanPSMT-6e" x="338.867188"/>
       <use xlink:href="#TimesNewRomanPSMT-74" x="388.867188"/>
       <use xlink:href="#TimesNewRomanPSMT-65" x="416.650391"/>
       <use xlink:href="#TimesNewRomanPSMT-64" x="461.035156"/>
      </g>
     </g>
    </g>
    <g id="xtick_9">
     <g id="line2d_9">
      <g>
       <use xlink:href="#m188fe4489c" x="216.084306" y="550.8" style="stroke: #000000; stroke-width: 0.8"/>
      </g>
     </g>
     <g id="text_9">
      <!-- nervous -->
      <g transform="translate(211.760087 557.8)rotate(-270)scale(0.18 -0.18)">
       <use xlink:href="#TimesNewRomanPSMT-6e"/>
       <use xlink:href="#TimesNewRomanPSMT-65" x="50"/>
       <use xlink:href="#TimesNewRomanPSMT-72" x="94.384766"/>
       <use xlink:href="#TimesNewRomanPSMT-76" x="127.685547"/>
       <use xlink:href="#TimesNewRomanPSMT-6f" x="177.685547"/>
       <use xlink:href="#TimesNewRomanPSMT-75" x="227.685547"/>
       <use xlink:href="#TimesNewRomanPSMT-73" x="277.685547"/>
      </g>
     </g>
    </g>
    <g id="xtick_10">
     <g id="line2d_10">
      <g>
       <use xlink:href="#m188fe4489c" x="231.394348" y="550.8" style="stroke: #000000; stroke-width: 0.8"/>
      </g>
     </g>
     <g id="text_10">
      <!-- annoyed -->
      <g transform="translate(227.087004 557.8)rotate(-270)scale(0.18 -0.18)">
       <use xlink:href="#TimesNewRomanPSMT-61"/>
       <use xlink:href="#TimesNewRomanPSMT-6e" x="44.384766"/>
       <use xlink:href="#TimesNewRomanPSMT-6e" x="94.384766"/>
       <use xlink:href="#TimesNewRomanPSMT-6f" x="144.384766"/>
       <use xlink:href="#TimesNewRomanPSMT-79" x="194.384766"/>
       <use xlink:href="#TimesNewRomanPSMT-65" x="244.384766"/>
       <use xlink:href="#TimesNewRomanPSMT-64" x="288.769531"/>
      </g>
     </g>
    </g>
    <g id="xtick_11">
     <g id="line2d_11">
      <g>
       <use xlink:href="#m188fe4489c" x="246.70439" y="550.8" style="stroke: #000000; stroke-width: 0.8"/>
      </g>
     </g>
     <g id="text_11">
      <!-- upset -->
      <g transform="translate(242.380171 557.8)rotate(-270)scale(0.18 -0.18)">
       <use xlink:href="#TimesNewRomanPSMT-75"/>
       <use xlink:href="#TimesNewRomanPSMT-70" x="50"/>
       <use xlink:href="#TimesNewRomanPSMT-73" x="100"/>
       <use xlink:href="#TimesNewRomanPSMT-65" x="138.916016"/>
       <use xlink:href="#TimesNewRomanPSMT-74" x="183.300781"/>
      </g>
     </g>
    </g>
    <g id="xtick_12">
     <g id="line2d_12">
      <g>
       <use xlink:href="#m188fe4489c" x="262.014432" y="550.8" style="stroke: #000000; stroke-width: 0.8"/>
      </g>
     </g>
     <g id="text_12">
      <!-- surprised -->
      <g transform="translate(257.690213 557.8)rotate(-270)scale(0.18 -0.18)">
       <use xlink:href="#TimesNewRomanPSMT-73"/>
       <use xlink:href="#TimesNewRomanPSMT-75" x="38.916016"/>
       <use xlink:href="#TimesNewRomanPSMT-72" x="88.916016"/>
       <use xlink:href="#TimesNewRomanPSMT-70" x="122.216797"/>
       <use xlink:href="#TimesNewRomanPSMT-72" x="172.216797"/>
       <use xlink:href="#TimesNewRomanPSMT-69" x="205.517578"/>
       <use xlink:href="#TimesNewRomanPSMT-73" x="233.300781"/>
       <use xlink:href="#TimesNewRomanPSMT-65" x="272.216797"/>
       <use xlink:href="#TimesNewRomanPSMT-64" x="316.601562"/>
      </g>
     </g>
    </g>
    <g id="xtick_13">
     <g id="line2d_13">
      <g>
       <use xlink:href="#m188fe4489c" x="277.324474" y="550.8" style="stroke: #000000; stroke-width: 0.8"/>
      </g>
     </g>
     <g id="text_13">
      <!-- frustrated -->
      <g transform="translate(273.000255 557.8)rotate(-270)scale(0.18 -0.18)">
       <defs>
        <path id="TimesNewRomanPSMT-66" d="M 1319 2638 
L 1319 756 
Q 1319 356 1406 250 
Q 1522 113 1716 113 
L 1975 113 
L 1975 0 
L 266 0 
L 266 113 
L 394 113 
Q 519 113 622 175 
Q 725 238 764 344 
Q 803 450 803 756 
L 803 2638 
L 247 2638 
L 247 2863 
L 803 2863 
L 803 3050 
Q 803 3478 940 3775 
Q 1078 4072 1361 4255 
Q 1644 4438 1997 4438 
Q 2325 4438 2600 4225 
Q 2781 4084 2781 3909 
Q 2781 3816 2700 3733 
Q 2619 3650 2525 3650 
Q 2453 3650 2373 3701 
Q 2294 3753 2178 3923 
Q 2063 4094 1966 4153 
Q 1869 4213 1750 4213 
Q 1606 4213 1506 4136 
Q 1406 4059 1362 3898 
Q 1319 3738 1319 3069 
L 1319 2863 
L 2056 2863 
L 2056 2638 
L 1319 2638 
z
" transform="scale(0.015625)"/>
       </defs>
       <use xlink:href="#TimesNewRomanPSMT-66"/>
       <use xlink:href="#TimesNewRomanPSMT-72" x="33.300781"/>
       <use xlink:href="#TimesNewRomanPSMT-75" x="66.601562"/>
       <use xlink:href="#TimesNewRomanPSMT-73" x="116.601562"/>
       <use xlink:href="#TimesNewRomanPSMT-74" x="155.517578"/>
       <use xlink:href="#TimesNewRomanPSMT-72" x="183.300781"/>
       <use xlink:href="#TimesNewRomanPSMT-61" x="216.601562"/>
       <use xlink:href="#TimesNewRomanPSMT-74" x="260.986328"/>
       <use xlink:href="#TimesNewRomanPSMT-65" x="288.769531"/>
       <use xlink:href="#TimesNewRomanPSMT-64" x="333.154297"/>
      </g>
     </g>
    </g>
    <g id="xtick_14">
     <g id="line2d_14">
      <g>
       <use xlink:href="#m188fe4489c" x="292.634516" y="550.8" style="stroke: #000000; stroke-width: 0.8"/>
      </g>
     </g>
     <g id="text_14">
      <!-- worried -->
      <g transform="translate(288.310297 557.8)rotate(-270)scale(0.18 -0.18)">
       <defs>
        <path id="TimesNewRomanPSMT-77" d="M 41 2863 
L 1241 2863 
L 1241 2747 
Q 1075 2734 1023 2687 
Q 972 2641 972 2553 
Q 972 2456 1025 2319 
L 1638 672 
L 2253 2013 
L 2091 2434 
Q 2016 2622 1894 2694 
Q 1825 2738 1638 2747 
L 1638 2863 
L 3000 2863 
L 3000 2747 
Q 2775 2738 2681 2666 
Q 2619 2616 2619 2506 
Q 2619 2444 2644 2378 
L 3294 734 
L 3897 2319 
Q 3959 2488 3959 2588 
Q 3959 2647 3898 2694 
Q 3838 2741 3659 2747 
L 3659 2863 
L 4563 2863 
L 4563 2747 
Q 4291 2706 4163 2378 
L 3206 -88 
L 3078 -88 
L 2363 1741 
L 1528 -88 
L 1413 -88 
L 494 2319 
Q 403 2547 315 2626 
Q 228 2706 41 2747 
L 41 2863 
z
" transform="scale(0.015625)"/>
       </defs>
       <use xlink:href="#TimesNewRomanPSMT-77"/>
       <use xlink:href="#TimesNewRomanPSMT-6f" x="72.216797"/>
       <use xlink:href="#TimesNewRomanPSMT-72" x="122.216797"/>
       <use xlink:href="#TimesNewRomanPSMT-72" x="155.517578"/>
       <use xlink:href="#TimesNewRomanPSMT-69" x="188.818359"/>
       <use xlink:href="#TimesNewRomanPSMT-65" x="216.601562"/>
       <use xlink:href="#TimesNewRomanPSMT-64" x="260.986328"/>
      </g>
     </g>
    </g>
    <g id="xtick_15">
     <g id="line2d_15">
      <g>
       <use xlink:href="#m188fe4489c" x="307.944558" y="550.8" style="stroke: #000000; stroke-width: 0.8"/>
      </g>
     </g>
     <g id="text_15">
      <!-- satisfied -->
      <g transform="translate(303.62034 557.8)rotate(-270)scale(0.18 -0.18)">
       <use xlink:href="#TimesNewRomanPSMT-73"/>
       <use xlink:href="#TimesNewRomanPSMT-61" x="38.916016"/>
       <use xlink:href="#TimesNewRomanPSMT-74" x="83.300781"/>
       <use xlink:href="#TimesNewRomanPSMT-69" x="111.083984"/>
       <use xlink:href="#TimesNewRomanPSMT-73" x="138.867188"/>
       <use xlink:href="#TimesNewRomanPSMT-66" x="177.783203"/>
       <use xlink:href="#TimesNewRomanPSMT-69" x="211.083984"/>
       <use xlink:href="#TimesNewRomanPSMT-65" x="238.867188"/>
       <use xlink:href="#TimesNewRomanPSMT-64" x="283.251953"/>
      </g>
     </g>
    </g>
    <g id="xtick_16">
     <g id="line2d_16">
      <g>
       <use xlink:href="#m188fe4489c" x="323.2546" y="550.8" style="stroke: #000000; stroke-width: 0.8"/>
      </g>
     </g>
     <g id="text_16">
      <!-- determined -->
      <g transform="translate(318.930382 557.8)rotate(-270)scale(0.18 -0.18)">
       <defs>
        <path id="TimesNewRomanPSMT-6d" d="M 1050 2338 
Q 1363 2650 1419 2697 
Q 1559 2816 1721 2881 
Q 1884 2947 2044 2947 
Q 2313 2947 2506 2790 
Q 2700 2634 2766 2338 
Q 3088 2713 3309 2830 
Q 3531 2947 3766 2947 
Q 3994 2947 4170 2830 
Q 4347 2713 4450 2447 
Q 4519 2266 4519 1878 
L 4519 647 
Q 4519 378 4559 278 
Q 4591 209 4675 161 
Q 4759 113 4950 113 
L 4950 0 
L 3538 0 
L 3538 113 
L 3597 113 
Q 3781 113 3884 184 
Q 3956 234 3988 344 
Q 4000 397 4000 647 
L 4000 1878 
Q 4000 2228 3916 2372 
Q 3794 2572 3525 2572 
Q 3359 2572 3192 2489 
Q 3025 2406 2788 2181 
L 2781 2147 
L 2788 2013 
L 2788 647 
Q 2788 353 2820 281 
Q 2853 209 2943 161 
Q 3034 113 3253 113 
L 3253 0 
L 1806 0 
L 1806 113 
Q 2044 113 2133 169 
Q 2222 225 2256 338 
Q 2272 391 2272 647 
L 2272 1878 
Q 2272 2228 2169 2381 
Q 2031 2581 1784 2581 
Q 1616 2581 1450 2491 
Q 1191 2353 1050 2181 
L 1050 647 
Q 1050 366 1089 281 
Q 1128 197 1204 155 
Q 1281 113 1516 113 
L 1516 0 
L 100 0 
L 100 113 
Q 297 113 375 155 
Q 453 197 493 289 
Q 534 381 534 647 
L 534 1741 
Q 534 2213 506 2350 
Q 484 2453 437 2492 
Q 391 2531 309 2531 
Q 222 2531 100 2484 
L 53 2597 
L 916 2947 
L 1050 2947 
L 1050 2338 
z
" transform="scale(0.015625)"/>
       </defs>
       <use xlink:href="#TimesNewRomanPSMT-64"/>
       <use xlink:href="#TimesNewRomanPSMT-65" x="50"/>
       <use xlink:href="#TimesNewRomanPSMT-74" x="94.384766"/>
       <use xlink:href="#TimesNewRomanPSMT-65" x="122.167969"/>
       <use xlink:href="#TimesNewRomanPSMT-72" x="166.552734"/>
       <use xlink:href="#TimesNewRomanPSMT-6d" x="199.853516"/>
       <use xlink:href="#TimesNewRomanPSMT-69" x="277.636719"/>
       <use xlink:href="#TimesNewRomanPSMT-6e" x="305.419922"/>
       <use xlink:href="#TimesNewRomanPSMT-65" x="355.419922"/>
       <use xlink:href="#TimesNewRomanPSMT-64" x="399.804688"/>
      </g>
     </g>
    </g>
    <g id="xtick_17">
     <g id="line2d_17">
      <g>
       <use xlink:href="#m188fe4489c" x="338.564642" y="550.8" style="stroke: #000000; stroke-width: 0.8"/>
      </g>
     </g>
     <g id="text_17">
      <!-- anxious -->
      <g transform="translate(334.240424 557.8)rotate(-270)scale(0.18 -0.18)">
       <use xlink:href="#TimesNewRomanPSMT-61"/>
       <use xlink:href="#TimesNewRomanPSMT-6e" x="44.384766"/>
       <use xlink:href="#TimesNewRomanPSMT-78" x="94.384766"/>
       <use xlink:href="#TimesNewRomanPSMT-69" x="144.384766"/>
       <use xlink:href="#TimesNewRomanPSMT-6f" x="172.167969"/>
       <use xlink:href="#TimesNewRomanPSMT-75" x="222.167969"/>
       <use xlink:href="#TimesNewRomanPSMT-73" x="272.167969"/>
      </g>
     </g>
    </g>
    <g id="xtick_18">
     <g id="line2d_18">
      <g>
       <use xlink:href="#m188fe4489c" x="353.874684" y="550.8" style="stroke: #000000; stroke-width: 0.8"/>
      </g>
     </g>
     <g id="text_18">
      <!-- hopeful -->
      <g transform="translate(349.550466 557.8)rotate(-270)scale(0.18 -0.18)">
       <use xlink:href="#TimesNewRomanPSMT-68"/>
       <use xlink:href="#TimesNewRomanPSMT-6f" x="50"/>
       <use xlink:href="#TimesNewRomanPSMT-70" x="100"/>
       <use xlink:href="#TimesNewRomanPSMT-65" x="150"/>
       <use xlink:href="#TimesNewRomanPSMT-66" x="194.384766"/>
       <use xlink:href="#TimesNewRomanPSMT-75" x="227.685547"/>
       <use xlink:href="#TimesNewRomanPSMT-6c" x="277.685547"/>
      </g>
     </g>
    </g>
    <g id="xtick_19">
     <g id="line2d_19">
      <g>
       <use xlink:href="#m188fe4489c" x="369.184727" y="550.8" style="stroke: #000000; stroke-width: 0.8"/>
      </g>
     </g>
     <g id="text_19">
      <!-- accomplished -->
      <g transform="translate(364.860508 557.8)rotate(-270)scale(0.18 -0.18)">
       <use xlink:href="#TimesNewRomanPSMT-61"/>
       <use xlink:href="#TimesNewRomanPSMT-63" x="44.384766"/>
       <use xlink:href="#TimesNewRomanPSMT-63" x="88.769531"/>
       <use xlink:href="#TimesNewRomanPSMT-6f" x="133.154297"/>
       <use xlink:href="#TimesNewRomanPSMT-6d" x="183.154297"/>
       <use xlink:href="#TimesNewRomanPSMT-70" x="260.9375"/>
       <use xlink:href="#TimesNewRomanPSMT-6c" x="310.9375"/>
       <use xlink:href="#TimesNewRomanPSMT-69" x="338.720703"/>
       <use xlink:href="#TimesNewRomanPSMT-73" x="366.503906"/>
       <use xlink:href="#TimesNewRomanPSMT-68" x="405.419922"/>
       <use xlink:href="#TimesNewRomanPSMT-65" x="455.419922"/>
       <use xlink:href="#TimesNewRomanPSMT-64" x="499.804688"/>
      </g>
     </g>
    </g>
    <g id="xtick_20">
     <g id="line2d_20">
      <g>
       <use xlink:href="#m188fe4489c" x="384.494769" y="550.8" style="stroke: #000000; stroke-width: 0.8"/>
      </g>
     </g>
     <g id="text_20">
      <!-- grateful -->
      <g transform="translate(380.187425 557.8)rotate(-270)scale(0.18 -0.18)">
       <use xlink:href="#TimesNewRomanPSMT-67"/>
       <use xlink:href="#TimesNewRomanPSMT-72" x="50"/>
       <use xlink:href="#TimesNewRomanPSMT-61" x="83.300781"/>
       <use xlink:href="#TimesNewRomanPSMT-74" x="127.685547"/>
       <use xlink:href="#TimesNewRomanPSMT-65" x="155.46875"/>
       <use xlink:href="#TimesNewRomanPSMT-66" x="199.853516"/>
       <use xlink:href="#TimesNewRomanPSMT-75" x="233.154297"/>
       <use xlink:href="#TimesNewRomanPSMT-6c" x="283.154297"/>
      </g>
     </g>
    </g>
    <g id="xtick_21">
     <g id="line2d_21">
      <g>
       <use xlink:href="#m188fe4489c" x="399.804811" y="550.8" style="stroke: #000000; stroke-width: 0.8"/>
      </g>
     </g>
     <g id="text_21">
      <!-- content -->
      <g transform="translate(395.480592 557.8)rotate(-270)scale(0.18 -0.18)">
       <use xlink:href="#TimesNewRomanPSMT-63"/>
       <use xlink:href="#TimesNewRomanPSMT-6f" x="44.384766"/>
       <use xlink:href="#TimesNewRomanPSMT-6e" x="94.384766"/>
       <use xlink:href="#TimesNewRomanPSMT-74" x="144.384766"/>
       <use xlink:href="#TimesNewRomanPSMT-65" x="172.167969"/>
       <use xlink:href="#TimesNewRomanPSMT-6e" x="216.552734"/>
       <use xlink:href="#TimesNewRomanPSMT-74" x="266.552734"/>
      </g>
     </g>
    </g>
    <g id="xtick_22">
     <g id="line2d_22">
      <g>
       <use xlink:href="#m188fe4489c" x="415.114853" y="550.8" style="stroke: #000000; stroke-width: 0.8"/>
      </g>
     </g>
     <g id="text_22">
      <!-- anticipation -->
      <g transform="translate(410.790634 557.8)rotate(-270)scale(0.18 -0.18)">
       <use xlink:href="#TimesNewRomanPSMT-61"/>
       <use xlink:href="#TimesNewRomanPSMT-6e" x="44.384766"/>
       <use xlink:href="#TimesNewRomanPSMT-74" x="94.384766"/>
       <use xlink:href="#TimesNewRomanPSMT-69" x="122.167969"/>
       <use xlink:href="#TimesNewRomanPSMT-63" x="149.951172"/>
       <use xlink:href="#TimesNewRomanPSMT-69" x="194.335938"/>
       <use xlink:href="#TimesNewRomanPSMT-70" x="222.119141"/>
       <use xlink:href="#TimesNewRomanPSMT-61" x="272.119141"/>
       <use xlink:href="#TimesNewRomanPSMT-74" x="316.503906"/>
       <use xlink:href="#TimesNewRomanPSMT-69" x="344.287109"/>
       <use xlink:href="#TimesNewRomanPSMT-6f" x="372.070312"/>
       <use xlink:href="#TimesNewRomanPSMT-6e" x="422.070312"/>
      </g>
     </g>
    </g>
    <g id="xtick_23">
     <g id="line2d_23">
      <g>
       <use xlink:href="#m188fe4489c" x="430.424895" y="550.8" style="stroke: #000000; stroke-width: 0.8"/>
      </g>
     </g>
     <g id="text_23">
      <!-- helpful -->
      <g transform="translate(426.100676 557.8)rotate(-270)scale(0.18 -0.18)">
       <use xlink:href="#TimesNewRomanPSMT-68"/>
       <use xlink:href="#TimesNewRomanPSMT-65" x="50"/>
       <use xlink:href="#TimesNewRomanPSMT-6c" x="94.384766"/>
       <use xlink:href="#TimesNewRomanPSMT-70" x="122.167969"/>
       <use xlink:href="#TimesNewRomanPSMT-66" x="172.167969"/>
       <use xlink:href="#TimesNewRomanPSMT-75" x="205.46875"/>
       <use xlink:href="#TimesNewRomanPSMT-6c" x="255.46875"/>
      </g>
     </g>
    </g>
    <g id="xtick_24">
     <g id="line2d_24">
      <g>
       <use xlink:href="#m188fe4489c" x="445.734937" y="550.8" style="stroke: #000000; stroke-width: 0.8"/>
      </g>
     </g>
     <g id="text_24">
      <!-- curious -->
      <g transform="translate(441.410718 557.8)rotate(-270)scale(0.18 -0.18)">
       <use xlink:href="#TimesNewRomanPSMT-63"/>
       <use xlink:href="#TimesNewRomanPSMT-75" x="44.384766"/>
       <use xlink:href="#TimesNewRomanPSMT-72" x="94.384766"/>
       <use xlink:href="#TimesNewRomanPSMT-69" x="127.685547"/>
       <use xlink:href="#TimesNewRomanPSMT-6f" x="155.46875"/>
       <use xlink:href="#TimesNewRomanPSMT-75" x="205.46875"/>
       <use xlink:href="#TimesNewRomanPSMT-73" x="255.46875"/>
      </g>
     </g>
    </g>
    <g id="xtick_25">
     <g id="line2d_25">
      <g>
       <use xlink:href="#m188fe4489c" x="461.044979" y="550.8" style="stroke: #000000; stroke-width: 0.8"/>
      </g>
     </g>
     <g id="text_25">
      <!-- afraid -->
      <g transform="translate(456.72076 557.8)rotate(-270)scale(0.18 -0.18)">
       <use xlink:href="#TimesNewRomanPSMT-61"/>
       <use xlink:href="#TimesNewRomanPSMT-66" x="44.384766"/>
       <use xlink:href="#TimesNewRomanPSMT-72" x="77.685547"/>
       <use xlink:href="#TimesNewRomanPSMT-61" x="110.986328"/>
       <use xlink:href="#TimesNewRomanPSMT-69" x="155.371094"/>
       <use xlink:href="#TimesNewRomanPSMT-64" x="183.154297"/>
      </g>
     </g>
    </g>
    <g id="xtick_26">
     <g id="line2d_26">
      <g>
       <use xlink:href="#m188fe4489c" x="476.355021" y="550.8" style="stroke: #000000; stroke-width: 0.8"/>
      </g>
     </g>
     <g id="text_26">
      <!-- tired -->
      <g transform="translate(472.030802 557.8)rotate(-270)scale(0.18 -0.18)">
       <use xlink:href="#TimesNewRomanPSMT-74"/>
       <use xlink:href="#TimesNewRomanPSMT-69" x="27.783203"/>
       <use xlink:href="#TimesNewRomanPSMT-72" x="55.566406"/>
       <use xlink:href="#TimesNewRomanPSMT-65" x="88.867188"/>
       <use xlink:href="#TimesNewRomanPSMT-64" x="133.251953"/>
      </g>
     </g>
    </g>
    <g id="xtick_27">
     <g id="line2d_27">
      <g>
       <use xlink:href="#m188fe4489c" x="491.665063" y="550.8" style="stroke: #000000; stroke-width: 0.8"/>
      </g>
     </g>
     <g id="text_27">
      <!-- positive -->
      <g transform="translate(487.340844 557.8)rotate(-270)scale(0.18 -0.18)">
       <use xlink:href="#TimesNewRomanPSMT-70"/>
       <use xlink:href="#TimesNewRomanPSMT-6f" x="50"/>
       <use xlink:href="#TimesNewRomanPSMT-73" x="100"/>
       <use xlink:href="#TimesNewRomanPSMT-69" x="138.916016"/>
       <use xlink:href="#TimesNewRomanPSMT-74" x="166.699219"/>
       <use xlink:href="#TimesNewRomanPSMT-69" x="194.482422"/>
       <use xlink:href="#TimesNewRomanPSMT-76" x="222.265625"/>
       <use xlink:href="#TimesNewRomanPSMT-65" x="272.265625"/>
      </g>
     </g>
    </g>
    <g id="xtick_28">
     <g id="line2d_28">
      <g>
       <use xlink:href="#m188fe4489c" x="506.975105" y="550.8" style="stroke: #000000; stroke-width: 0.8"/>
      </g>
     </g>
     <g id="text_28">
      <!-- confused -->
      <g transform="translate(502.650886 557.8)rotate(-270)scale(0.18 -0.18)">
       <use xlink:href="#TimesNewRomanPSMT-63"/>
       <use xlink:href="#TimesNewRomanPSMT-6f" x="44.384766"/>
       <use xlink:href="#TimesNewRomanPSMT-6e" x="94.384766"/>
       <use xlink:href="#TimesNewRomanPSMT-66" x="144.384766"/>
       <use xlink:href="#TimesNewRomanPSMT-75" x="177.685547"/>
       <use xlink:href="#TimesNewRomanPSMT-73" x="227.685547"/>
       <use xlink:href="#TimesNewRomanPSMT-65" x="266.601562"/>
       <use xlink:href="#TimesNewRomanPSMT-64" x="310.986328"/>
      </g>
     </g>
    </g>
    <g id="xtick_29">
     <g id="line2d_29">
      <g>
       <use xlink:href="#m188fe4489c" x="522.285147" y="550.8" style="stroke: #000000; stroke-width: 0.8"/>
      </g>
     </g>
     <g id="text_29">
      <!-- joy -->
      <g transform="translate(517.973585 557.8)rotate(-270)scale(0.18 -0.18)">
       <defs>
        <path id="TimesNewRomanPSMT-6a" d="M 925 4447 
Q 1059 4447 1153 4353 
Q 1247 4259 1247 4125 
Q 1247 3994 1153 3900 
Q 1059 3806 925 3806 
Q 794 3806 700 3900 
Q 606 3994 606 4125 
Q 606 4259 700 4353 
Q 794 4447 925 4447 
z
M 1194 2947 
L 1194 66 
Q 1194 -669 881 -1025 
Q 569 -1381 69 -1381 
Q -216 -1381 -353 -1278 
Q -491 -1175 -491 -1066 
Q -491 -956 -414 -878 
Q -338 -800 -234 -800 
Q -153 -800 -69 -841 
Q -16 -863 136 -998 
Q 288 -1134 391 -1134 
Q 466 -1134 537 -1076 
Q 609 -1019 643 -883 
Q 678 -747 678 -294 
L 678 1744 
Q 678 2216 650 2350 
Q 628 2453 581 2492 
Q 534 2531 453 2531 
Q 366 2531 241 2484 
L 197 2597 
L 1059 2947 
L 1194 2947 
z
" transform="scale(0.015625)"/>
       </defs>
       <use xlink:href="#TimesNewRomanPSMT-6a"/>
       <use xlink:href="#TimesNewRomanPSMT-6f" x="27.783203"/>
       <use xlink:href="#TimesNewRomanPSMT-79" x="77.783203"/>
      </g>
     </g>
    </g>
    <g id="xtick_30">
     <g id="line2d_30">
      <g>
       <use xlink:href="#m188fe4489c" x="537.595189" y="550.8" style="stroke: #000000; stroke-width: 0.8"/>
      </g>
     </g>
     <g id="text_30">
      <!-- hungry -->
      <g transform="translate(533.287846 557.8)rotate(-270)scale(0.18 -0.18)">
       <use xlink:href="#TimesNewRomanPSMT-68"/>
       <use xlink:href="#TimesNewRomanPSMT-75" x="50"/>
       <use xlink:href="#TimesNewRomanPSMT-6e" x="100"/>
       <use xlink:href="#TimesNewRomanPSMT-67" x="150"/>
       <use xlink:href="#TimesNewRomanPSMT-72" x="200"/>
       <use xlink:href="#TimesNewRomanPSMT-79" x="233.300781"/>
      </g>
     </g>
    </g>
    <g id="xtick_31">
     <g id="line2d_31">
      <g>
       <use xlink:href="#m188fe4489c" x="552.905231" y="550.8" style="stroke: #000000; stroke-width: 0.8"/>
      </g>
     </g>
     <g id="text_31">
      <!-- ashamed -->
      <g transform="translate(548.581013 557.8)rotate(-270)scale(0.18 -0.18)">
       <use xlink:href="#TimesNewRomanPSMT-61"/>
       <use xlink:href="#TimesNewRomanPSMT-73" x="44.384766"/>
       <use xlink:href="#TimesNewRomanPSMT-68" x="83.300781"/>
       <use xlink:href="#TimesNewRomanPSMT-61" x="133.300781"/>
       <use xlink:href="#TimesNewRomanPSMT-6d" x="177.685547"/>
       <use xlink:href="#TimesNewRomanPSMT-65" x="255.46875"/>
       <use xlink:href="#TimesNewRomanPSMT-64" x="299.853516"/>
      </g>
     </g>
    </g>
    <g id="xtick_32">
     <g id="line2d_32">
      <g>
       <use xlink:href="#m188fe4489c" x="568.215273" y="550.8" style="stroke: #000000; stroke-width: 0.8"/>
      </g>
     </g>
     <g id="text_32">
      <!-- guilty -->
      <g transform="translate(563.90793 557.8)rotate(-270)scale(0.18 -0.18)">
       <use xlink:href="#TimesNewRomanPSMT-67"/>
       <use xlink:href="#TimesNewRomanPSMT-75" x="50"/>
       <use xlink:href="#TimesNewRomanPSMT-69" x="100"/>
       <use xlink:href="#TimesNewRomanPSMT-6c" x="127.783203"/>
       <use xlink:href="#TimesNewRomanPSMT-74" x="155.566406"/>
       <use xlink:href="#TimesNewRomanPSMT-79" x="183.349609"/>
      </g>
     </g>
    </g>
    <g id="xtick_33">
     <g id="line2d_33">
      <g>
       <use xlink:href="#m188fe4489c" x="583.525316" y="550.8" style="stroke: #000000; stroke-width: 0.8"/>
      </g>
     </g>
     <g id="text_33">
      <!-- embarrassed -->
      <g transform="translate(579.201097 557.8)rotate(-270)scale(0.18 -0.18)">
       <defs>
        <path id="TimesNewRomanPSMT-62" d="M 984 2369 
Q 1400 2947 1881 2947 
Q 2322 2947 2650 2570 
Q 2978 2194 2978 1541 
Q 2978 778 2472 313 
Q 2038 -88 1503 -88 
Q 1253 -88 995 3 
Q 738 94 469 275 
L 469 3241 
Q 469 3728 445 3840 
Q 422 3953 372 3993 
Q 322 4034 247 4034 
Q 159 4034 28 3984 
L -16 4094 
L 844 4444 
L 984 4444 
L 984 2369 
z
M 984 2169 
L 984 456 
Q 1144 300 1314 220 
Q 1484 141 1663 141 
Q 1947 141 2192 453 
Q 2438 766 2438 1363 
Q 2438 1913 2192 2208 
Q 1947 2503 1634 2503 
Q 1469 2503 1303 2419 
Q 1178 2356 984 2169 
z
" transform="scale(0.015625)"/>
       </defs>
       <use xlink:href="#TimesNewRomanPSMT-65"/>
       <use xlink:href="#TimesNewRomanPSMT-6d" x="44.384766"/>
       <use xlink:href="#TimesNewRomanPSMT-62" x="122.167969"/>
       <use xlink:href="#TimesNewRomanPSMT-61" x="172.167969"/>
       <use xlink:href="#TimesNewRomanPSMT-72" x="216.552734"/>
       <use xlink:href="#TimesNewRomanPSMT-72" x="249.853516"/>
       <use xlink:href="#TimesNewRomanPSMT-61" x="283.154297"/>
       <use xlink:href="#TimesNewRomanPSMT-73" x="327.539062"/>
       <use xlink:href="#TimesNewRomanPSMT-73" x="366.455078"/>
       <use xlink:href="#TimesNewRomanPSMT-65" x="405.371094"/>
       <use xlink:href="#TimesNewRomanPSMT-64" x="449.755859"/>
      </g>
     </g>
    </g>
    <g id="xtick_34">
     <g id="line2d_34">
      <g>
       <use xlink:href="#m188fe4489c" x="598.835358" y="550.8" style="stroke: #000000; stroke-width: 0.8"/>
      </g>
     </g>
     <g id="text_34">
      <!-- eager -->
      <g transform="translate(594.544889 557.8)rotate(-270)scale(0.18 -0.18)">
       <use xlink:href="#TimesNewRomanPSMT-65"/>
       <use xlink:href="#TimesNewRomanPSMT-61" x="44.384766"/>
       <use xlink:href="#TimesNewRomanPSMT-67" x="88.769531"/>
       <use xlink:href="#TimesNewRomanPSMT-65" x="138.769531"/>
       <use xlink:href="#TimesNewRomanPSMT-72" x="183.154297"/>
      </g>
     </g>
    </g>
    <g id="xtick_35">
     <g id="line2d_35">
      <g>
       <use xlink:href="#m188fe4489c" x="614.1454" y="550.8" style="stroke: #000000; stroke-width: 0.8"/>
      </g>
     </g>
     <g id="text_35">
      <!-- Happy -->
      <g transform="translate(609.854931 557.8)rotate(-270)scale(0.18 -0.18)">
       <defs>
        <path id="TimesNewRomanPSMT-48" d="M 1316 2272 
L 3284 2272 
L 3284 3484 
Q 3284 3809 3244 3913 
Q 3213 3991 3113 4047 
Q 2978 4122 2828 4122 
L 2678 4122 
L 2678 4238 
L 4491 4238 
L 4491 4122 
L 4341 4122 
Q 4191 4122 4056 4050 
Q 3956 4000 3920 3898 
Q 3884 3797 3884 3484 
L 3884 750 
Q 3884 428 3925 325 
Q 3956 247 4053 191 
Q 4191 116 4341 116 
L 4491 116 
L 4491 0 
L 2678 0 
L 2678 116 
L 2828 116 
Q 3088 116 3206 269 
Q 3284 369 3284 750 
L 3284 2041 
L 1316 2041 
L 1316 750 
Q 1316 428 1356 325 
Q 1388 247 1488 191 
Q 1622 116 1772 116 
L 1925 116 
L 1925 0 
L 109 0 
L 109 116 
L 259 116 
Q 522 116 641 269 
Q 716 369 716 750 
L 716 3484 
Q 716 3809 675 3913 
Q 644 3991 547 4047 
Q 409 4122 259 4122 
L 109 4122 
L 109 4238 
L 1925 4238 
L 1925 4122 
L 1772 4122 
Q 1622 4122 1488 4050 
Q 1391 4000 1353 3898 
Q 1316 3797 1316 3484 
L 1316 2272 
z
" transform="scale(0.015625)"/>
       </defs>
       <use xlink:href="#TimesNewRomanPSMT-48"/>
       <use xlink:href="#TimesNewRomanPSMT-61" x="72.216797"/>
       <use xlink:href="#TimesNewRomanPSMT-70" x="116.601562"/>
       <use xlink:href="#TimesNewRomanPSMT-70" x="166.601562"/>
       <use xlink:href="#TimesNewRomanPSMT-79" x="216.601562"/>
      </g>
     </g>
    </g>
    <g id="xtick_36">
     <g id="line2d_36">
      <g>
       <use xlink:href="#m188fe4489c" x="629.455442" y="550.8" style="stroke: #000000; stroke-width: 0.8"/>
      </g>
     </g>
     <g id="text_36">
      <!-- shocked -->
      <g transform="translate(625.131223 557.8)rotate(-270)scale(0.18 -0.18)">
       <defs>
        <path id="TimesNewRomanPSMT-6b" d="M 1047 4444 
L 1047 1597 
L 1775 2259 
Q 2006 2472 2044 2528 
Q 2069 2566 2069 2603 
Q 2069 2666 2017 2711 
Q 1966 2756 1847 2763 
L 1847 2863 
L 3091 2863 
L 3091 2763 
Q 2834 2756 2664 2684 
Q 2494 2613 2291 2428 
L 1556 1750 
L 2291 822 
Q 2597 438 2703 334 
Q 2853 188 2966 144 
Q 3044 113 3238 113 
L 3238 0 
L 1847 0 
L 1847 113 
Q 1966 116 2008 148 
Q 2050 181 2050 241 
Q 2050 313 1925 472 
L 1047 1594 
L 1047 644 
Q 1047 366 1086 278 
Q 1125 191 1197 153 
Q 1269 116 1509 113 
L 1509 0 
L 53 0 
L 53 113 
Q 272 113 381 166 
Q 447 200 481 272 
Q 528 375 528 628 
L 528 3234 
Q 528 3731 506 3842 
Q 484 3953 434 3995 
Q 384 4038 303 4038 
Q 238 4038 106 3984 
L 53 4094 
L 903 4444 
L 1047 4444 
z
" transform="scale(0.015625)"/>
       </defs>
       <use xlink:href="#TimesNewRomanPSMT-73"/>
       <use xlink:href="#TimesNewRomanPSMT-68" x="38.916016"/>
       <use xlink:href="#TimesNewRomanPSMT-6f" x="88.916016"/>
       <use xlink:href="#TimesNewRomanPSMT-63" x="138.916016"/>
       <use xlink:href="#TimesNewRomanPSMT-6b" x="183.300781"/>
       <use xlink:href="#TimesNewRomanPSMT-65" x="233.300781"/>
       <use xlink:href="#TimesNewRomanPSMT-64" x="277.685547"/>
      </g>
     </g>
    </g>
    <g id="xtick_37">
     <g id="line2d_37">
      <g>
       <use xlink:href="#m188fe4489c" x="644.765484" y="550.8" style="stroke: #000000; stroke-width: 0.8"/>
      </g>
     </g>
     <g id="text_37">
      <!-- relaxed -->
      <g transform="translate(640.441265 557.8)rotate(-270)scale(0.18 -0.18)">
       <use xlink:href="#TimesNewRomanPSMT-72"/>
       <use xlink:href="#TimesNewRomanPSMT-65" x="33.300781"/>
       <use xlink:href="#TimesNewRomanPSMT-6c" x="77.685547"/>
       <use xlink:href="#TimesNewRomanPSMT-61" x="105.46875"/>
       <use xlink:href="#TimesNewRomanPSMT-78" x="149.853516"/>
       <use xlink:href="#TimesNewRomanPSMT-65" x="199.853516"/>
       <use xlink:href="#TimesNewRomanPSMT-64" x="244.238281"/>
      </g>
     </g>
    </g>
    <g id="xtick_38">
     <g id="line2d_38">
      <g>
       <use xlink:href="#m188fe4489c" x="660.075526" y="550.8" style="stroke: #000000; stroke-width: 0.8"/>
      </g>
     </g>
     <g id="text_38">
      <!-- confident -->
      <g transform="translate(655.751307 557.8)rotate(-270)scale(0.18 -0.18)">
       <use xlink:href="#TimesNewRomanPSMT-63"/>
       <use xlink:href="#TimesNewRomanPSMT-6f" x="44.384766"/>
       <use xlink:href="#TimesNewRomanPSMT-6e" x="94.384766"/>
       <use xlink:href="#TimesNewRomanPSMT-66" x="144.384766"/>
       <use xlink:href="#TimesNewRomanPSMT-69" x="177.685547"/>
       <use xlink:href="#TimesNewRomanPSMT-64" x="205.46875"/>
       <use xlink:href="#TimesNewRomanPSMT-65" x="255.46875"/>
       <use xlink:href="#TimesNewRomanPSMT-6e" x="299.853516"/>
       <use xlink:href="#TimesNewRomanPSMT-74" x="349.853516"/>
      </g>
     </g>
    </g>
    <g id="xtick_39">
     <g id="line2d_39">
      <g>
       <use xlink:href="#m188fe4489c" x="675.385568" y="550.8" style="stroke: #000000; stroke-width: 0.8"/>
      </g>
     </g>
     <g id="text_39">
      <!-- loved -->
      <g transform="translate(671.061349 557.8)rotate(-270)scale(0.18 -0.18)">
       <use xlink:href="#TimesNewRomanPSMT-6c"/>
       <use xlink:href="#TimesNewRomanPSMT-6f" x="27.783203"/>
       <use xlink:href="#TimesNewRomanPSMT-76" x="77.783203"/>
       <use xlink:href="#TimesNewRomanPSMT-65" x="127.783203"/>
       <use xlink:href="#TimesNewRomanPSMT-64" x="172.167969"/>
      </g>
     </g>
    </g>
    <g id="xtick_40">
     <g id="line2d_40">
      <g>
       <use xlink:href="#m188fe4489c" x="690.69561" y="550.8" style="stroke: #000000; stroke-width: 0.8"/>
      </g>
     </g>
     <g id="text_40">
      <!-- fear -->
      <g transform="translate(686.371391 557.8)rotate(-270)scale(0.18 -0.18)">
       <use xlink:href="#TimesNewRomanPSMT-66"/>
       <use xlink:href="#TimesNewRomanPSMT-65" x="33.300781"/>
       <use xlink:href="#TimesNewRomanPSMT-61" x="77.685547"/>
       <use xlink:href="#TimesNewRomanPSMT-72" x="122.070312"/>
      </g>
     </g>
    </g>
    <g id="xtick_41">
     <g id="line2d_41">
      <g>
       <use xlink:href="#m188fe4489c" x="706.005652" y="550.8" style="stroke: #000000; stroke-width: 0.8"/>
      </g>
     </g>
     <g id="text_41">
      <!-- embarassed -->
      <g transform="translate(701.681433 557.8)rotate(-270)scale(0.18 -0.18)">
       <use xlink:href="#TimesNewRomanPSMT-65"/>
       <use xlink:href="#TimesNewRomanPSMT-6d" x="44.384766"/>
       <use xlink:href="#TimesNewRomanPSMT-62" x="122.167969"/>
       <use xlink:href="#TimesNewRomanPSMT-61" x="172.167969"/>
       <use xlink:href="#TimesNewRomanPSMT-72" x="216.552734"/>
       <use xlink:href="#TimesNewRomanPSMT-61" x="249.853516"/>
       <use xlink:href="#TimesNewRomanPSMT-73" x="294.238281"/>
       <use xlink:href="#TimesNewRomanPSMT-73" x="333.154297"/>
       <use xlink:href="#TimesNewRomanPSMT-65" x="372.070312"/>
       <use xlink:href="#TimesNewRomanPSMT-64" x="416.455078"/>
      </g>
     </g>
    </g>
    <g id="xtick_42">
     <g id="line2d_42">
      <g>
       <use xlink:href="#m188fe4489c" x="721.315694" y="550.8" style="stroke: #000000; stroke-width: 0.8"/>
      </g>
     </g>
     <g id="text_42">
      <!-- anger -->
      <g transform="translate(717.025225 557.8)rotate(-270)scale(0.18 -0.18)">
       <use xlink:href="#TimesNewRomanPSMT-61"/>
       <use xlink:href="#TimesNewRomanPSMT-6e" x="44.384766"/>
       <use xlink:href="#TimesNewRomanPSMT-67" x="94.384766"/>
       <use xlink:href="#TimesNewRomanPSMT-65" x="144.384766"/>
       <use xlink:href="#TimesNewRomanPSMT-72" x="188.769531"/>
      </g>
     </g>
    </g>
    <g id="xtick_43">
     <g id="line2d_43">
      <g>
       <use xlink:href="#m188fe4489c" x="736.625736" y="550.8" style="stroke: #000000; stroke-width: 0.8"/>
      </g>
     </g>
     <g id="text_43">
      <!-- disgusted -->
      <g transform="translate(732.318392 557.8)rotate(-270)scale(0.18 -0.18)">
       <use xlink:href="#TimesNewRomanPSMT-64"/>
       <use xlink:href="#TimesNewRomanPSMT-69" x="50"/>
       <use xlink:href="#TimesNewRomanPSMT-73" x="77.783203"/>
       <use xlink:href="#TimesNewRomanPSMT-67" x="116.699219"/>
       <use xlink:href="#TimesNewRomanPSMT-75" x="166.699219"/>
       <use xlink:href="#TimesNewRomanPSMT-73" x="216.699219"/>
       <use xlink:href="#TimesNewRomanPSMT-74" x="255.615234"/>
       <use xlink:href="#TimesNewRomanPSMT-65" x="283.398438"/>
       <use xlink:href="#TimesNewRomanPSMT-64" x="327.783203"/>
      </g>
     </g>
    </g>
    <g id="xtick_44">
     <g id="line2d_44">
      <g>
       <use xlink:href="#m188fe4489c" x="751.935778" y="550.8" style="stroke: #000000; stroke-width: 0.8"/>
      </g>
     </g>
     <g id="text_44">
      <!-- bored -->
      <g transform="translate(747.61156 557.8)rotate(-270)scale(0.18 -0.18)">
       <use xlink:href="#TimesNewRomanPSMT-62"/>
       <use xlink:href="#TimesNewRomanPSMT-6f" x="50"/>
       <use xlink:href="#TimesNewRomanPSMT-72" x="100"/>
       <use xlink:href="#TimesNewRomanPSMT-65" x="133.300781"/>
       <use xlink:href="#TimesNewRomanPSMT-64" x="177.685547"/>
      </g>
     </g>
    </g>
    <g id="xtick_45">
     <g id="line2d_45">
      <g>
       <use xlink:href="#m188fe4489c" x="767.24582" y="550.8" style="stroke: #000000; stroke-width: 0.8"/>
      </g>
     </g>
     <g id="text_45">
      <!-- amused -->
      <g transform="translate(762.921602 557.8)rotate(-270)scale(0.18 -0.18)">
       <use xlink:href="#TimesNewRomanPSMT-61"/>
       <use xlink:href="#TimesNewRomanPSMT-6d" x="44.384766"/>
       <use xlink:href="#TimesNewRomanPSMT-75" x="122.167969"/>
       <use xlink:href="#TimesNewRomanPSMT-73" x="172.167969"/>
       <use xlink:href="#TimesNewRomanPSMT-65" x="211.083984"/>
       <use xlink:href="#TimesNewRomanPSMT-64" x="255.46875"/>
      </g>
     </g>
    </g>
    <g id="xtick_46">
     <g id="line2d_46">
      <g>
       <use xlink:href="#m188fe4489c" x="782.555862" y="550.8" style="stroke: #000000; stroke-width: 0.8"/>
      </g>
     </g>
     <g id="text_46">
      <!-- thankful -->
      <g transform="translate(778.231644 557.8)rotate(-270)scale(0.18 -0.18)">
       <use xlink:href="#TimesNewRomanPSMT-74"/>
       <use xlink:href="#TimesNewRomanPSMT-68" x="27.783203"/>
       <use xlink:href="#TimesNewRomanPSMT-61" x="77.783203"/>
       <use xlink:href="#TimesNewRomanPSMT-6e" x="122.167969"/>
       <use xlink:href="#TimesNewRomanPSMT-6b" x="172.167969"/>
       <use xlink:href="#TimesNewRomanPSMT-66" x="222.167969"/>
       <use xlink:href="#TimesNewRomanPSMT-75" x="255.46875"/>
       <use xlink:href="#TimesNewRomanPSMT-6c" x="305.46875"/>
      </g>
     </g>
    </g>
    <g id="xtick_47">
     <g id="line2d_47">
      <g>
       <use xlink:href="#m188fe4489c" x="797.865905" y="550.8" style="stroke: #000000; stroke-width: 0.8"/>
      </g>
     </g>
     <g id="text_47">
      <!-- HAPPY -->
      <g transform="translate(793.541686 557.8)rotate(-270)scale(0.18 -0.18)">
       <defs>
        <path id="TimesNewRomanPSMT-41" d="M 2928 1419 
L 1288 1419 
L 1000 750 
Q 894 503 894 381 
Q 894 284 986 211 
Q 1078 138 1384 116 
L 1384 0 
L 50 0 
L 50 116 
Q 316 163 394 238 
Q 553 388 747 847 
L 2238 4334 
L 2347 4334 
L 3822 809 
Q 4000 384 4145 257 
Q 4291 131 4550 116 
L 4550 0 
L 2878 0 
L 2878 116 
Q 3131 128 3220 200 
Q 3309 272 3309 375 
Q 3309 513 3184 809 
L 2928 1419 
z
M 2841 1650 
L 2122 3363 
L 1384 1650 
L 2841 1650 
z
" transform="scale(0.015625)"/>
        <path id="TimesNewRomanPSMT-50" d="M 1313 1984 
L 1313 750 
Q 1313 350 1400 253 
Q 1519 116 1759 116 
L 1922 116 
L 1922 0 
L 106 0 
L 106 116 
L 266 116 
Q 534 116 650 291 
Q 713 388 713 750 
L 713 3488 
Q 713 3888 628 3984 
Q 506 4122 266 4122 
L 106 4122 
L 106 4238 
L 1659 4238 
Q 2228 4238 2556 4120 
Q 2884 4003 3109 3725 
Q 3334 3447 3334 3066 
Q 3334 2547 2992 2222 
Q 2650 1897 2025 1897 
Q 1872 1897 1694 1919 
Q 1516 1941 1313 1984 
z
M 1313 2163 
Q 1478 2131 1606 2115 
Q 1734 2100 1825 2100 
Q 2150 2100 2386 2351 
Q 2622 2603 2622 3003 
Q 2622 3278 2509 3514 
Q 2397 3750 2190 3867 
Q 1984 3984 1722 3984 
Q 1563 3984 1313 3925 
L 1313 2163 
z
" transform="scale(0.015625)"/>
        <path id="TimesNewRomanPSMT-59" d="M 3050 4238 
L 4528 4238 
L 4528 4122 
L 4447 4122 
Q 4366 4122 4209 4050 
Q 4053 3978 3925 3843 
Q 3797 3709 3609 3406 
L 2588 1797 
L 2588 734 
Q 2588 344 2675 247 
Q 2794 116 3050 116 
L 3188 116 
L 3188 0 
L 1388 0 
L 1388 116 
L 1538 116 
Q 1806 116 1919 278 
Q 1988 378 1988 734 
L 1988 1738 
L 825 3513 
Q 619 3825 545 3903 
Q 472 3981 241 4091 
Q 178 4122 59 4122 
L 59 4238 
L 1872 4238 
L 1872 4122 
L 1778 4122 
Q 1631 4122 1507 4053 
Q 1384 3984 1384 3847 
Q 1384 3734 1575 3441 
L 2459 2075 
L 3291 3381 
Q 3478 3675 3478 3819 
Q 3478 3906 3433 3975 
Q 3388 4044 3303 4083 
Q 3219 4122 3050 4122 
L 3050 4238 
z
" transform="scale(0.015625)"/>
       </defs>
       <use xlink:href="#TimesNewRomanPSMT-48"/>
       <use xlink:href="#TimesNewRomanPSMT-41" x="72.216797"/>
       <use xlink:href="#TimesNewRomanPSMT-50" x="144.433594"/>
       <use xlink:href="#TimesNewRomanPSMT-50" x="200.048828"/>
       <use xlink:href="#TimesNewRomanPSMT-59" x="255.664062"/>
      </g>
     </g>
    </g>
    <g id="xtick_48">
     <g id="line2d_48">
      <g>
       <use xlink:href="#m188fe4489c" x="813.175947" y="550.8" style="stroke: #000000; stroke-width: 0.8"/>
      </g>
     </g>
     <g id="text_48">
      <!-- concerned -->
      <g transform="translate(808.851728 557.8)rotate(-270)scale(0.18 -0.18)">
       <use xlink:href="#TimesNewRomanPSMT-63"/>
       <use xlink:href="#TimesNewRomanPSMT-6f" x="44.384766"/>
       <use xlink:href="#TimesNewRomanPSMT-6e" x="94.384766"/>
       <use xlink:href="#TimesNewRomanPSMT-63" x="144.384766"/>
       <use xlink:href="#TimesNewRomanPSMT-65" x="188.769531"/>
       <use xlink:href="#TimesNewRomanPSMT-72" x="233.154297"/>
       <use xlink:href="#TimesNewRomanPSMT-6e" x="266.455078"/>
       <use xlink:href="#TimesNewRomanPSMT-65" x="316.455078"/>
       <use xlink:href="#TimesNewRomanPSMT-64" x="360.839844"/>
      </g>
     </g>
    </g>
    <g id="xtick_49">
     <g id="line2d_49">
      <g>
       <use xlink:href="#m188fe4489c" x="828.485989" y="550.8" style="stroke: #000000; stroke-width: 0.8"/>
      </g>
     </g>
     <g id="text_49">
      <!-- interested -->
      <g transform="translate(824.16177 557.8)rotate(-270)scale(0.18 -0.18)">
       <use xlink:href="#TimesNewRomanPSMT-69"/>
       <use xlink:href="#TimesNewRomanPSMT-6e" x="27.783203"/>
       <use xlink:href="#TimesNewRomanPSMT-74" x="77.783203"/>
       <use xlink:href="#TimesNewRomanPSMT-65" x="105.566406"/>
       <use xlink:href="#TimesNewRomanPSMT-72" x="149.951172"/>
       <use xlink:href="#TimesNewRomanPSMT-65" x="183.251953"/>
       <use xlink:href="#TimesNewRomanPSMT-73" x="227.636719"/>
       <use xlink:href="#TimesNewRomanPSMT-74" x="266.552734"/>
       <use xlink:href="#TimesNewRomanPSMT-65" x="294.335938"/>
       <use xlink:href="#TimesNewRomanPSMT-64" x="338.720703"/>
      </g>
     </g>
    </g>
    <g id="xtick_50">
     <g id="line2d_50">
      <g>
       <use xlink:href="#m188fe4489c" x="843.796031" y="550.8" style="stroke: #000000; stroke-width: 0.8"/>
      </g>
     </g>
     <g id="text_50">
      <!-- exhausted -->
      <g transform="translate(839.471812 557.8)rotate(-270)scale(0.18 -0.18)">
       <use xlink:href="#TimesNewRomanPSMT-65"/>
       <use xlink:href="#TimesNewRomanPSMT-78" x="44.384766"/>
       <use xlink:href="#TimesNewRomanPSMT-68" x="94.384766"/>
       <use xlink:href="#TimesNewRomanPSMT-61" x="144.384766"/>
       <use xlink:href="#TimesNewRomanPSMT-75" x="188.769531"/>
       <use xlink:href="#TimesNewRomanPSMT-73" x="238.769531"/>
       <use xlink:href="#TimesNewRomanPSMT-74" x="277.685547"/>
       <use xlink:href="#TimesNewRomanPSMT-65" x="305.46875"/>
       <use xlink:href="#TimesNewRomanPSMT-64" x="349.853516"/>
      </g>
     </g>
    </g>
   </g>
   <g id="matplotlib.axis_2">
    <g id="ytick_1">
     <g id="line2d_51">
      <defs>
       <path id="mfc32f9cc59" d="M 0 0 
L -3.5 0 
" style="stroke: #000000; stroke-width: 0.8"/>
      </defs>
      <g>
       <use xlink:href="#mfc32f9cc59" x="50.2" y="550.8" style="stroke: #000000; stroke-width: 0.8"/>
      </g>
     </g>
     <g id="text_51">
      <!-- 0 -->
      <g transform="translate(34.2 557.049375)scale(0.18 -0.18)">
       <defs>
        <path id="TimesNewRomanPSMT-30" d="M 231 2094 
Q 231 2819 450 3342 
Q 669 3866 1031 4122 
Q 1313 4325 1613 4325 
Q 2100 4325 2488 3828 
Q 2972 3213 2972 2159 
Q 2972 1422 2759 906 
Q 2547 391 2217 158 
Q 1888 -75 1581 -75 
Q 975 -75 572 641 
Q 231 1244 231 2094 
z
M 844 2016 
Q 844 1141 1059 588 
Q 1238 122 1591 122 
Q 1759 122 1940 273 
Q 2122 425 2216 781 
Q 2359 1319 2359 2297 
Q 2359 3022 2209 3506 
Q 2097 3866 1919 4016 
Q 1791 4119 1609 4119 
Q 1397 4119 1231 3928 
Q 1006 3669 925 3112 
Q 844 2556 844 2016 
z
" transform="scale(0.015625)"/>
       </defs>
       <use xlink:href="#TimesNewRomanPSMT-30"/>
      </g>
     </g>
    </g>
    <g id="ytick_2">
     <g id="line2d_52">
      <g>
       <use xlink:href="#mfc32f9cc59" x="50.2" y="444.776186" style="stroke: #000000; stroke-width: 0.8"/>
      </g>
     </g>
     <g id="text_52">
      <!-- 1000 -->
      <g transform="translate(7.2 451.025561)scale(0.18 -0.18)">
       <defs>
        <path id="TimesNewRomanPSMT-31" d="M 750 3822 
L 1781 4325 
L 1884 4325 
L 1884 747 
Q 1884 391 1914 303 
Q 1944 216 2037 169 
Q 2131 122 2419 116 
L 2419 0 
L 825 0 
L 825 116 
Q 1125 122 1212 167 
Q 1300 213 1334 289 
Q 1369 366 1369 747 
L 1369 3034 
Q 1369 3497 1338 3628 
Q 1316 3728 1258 3775 
Q 1200 3822 1119 3822 
Q 1003 3822 797 3725 
L 750 3822 
z
" transform="scale(0.015625)"/>
       </defs>
       <use xlink:href="#TimesNewRomanPSMT-31"/>
       <use xlink:href="#TimesNewRomanPSMT-30" x="50"/>
       <use xlink:href="#TimesNewRomanPSMT-30" x="100"/>
       <use xlink:href="#TimesNewRomanPSMT-30" x="150"/>
      </g>
     </g>
    </g>
    <g id="ytick_3">
     <g id="line2d_53">
      <g>
       <use xlink:href="#mfc32f9cc59" x="50.2" y="338.752371" style="stroke: #000000; stroke-width: 0.8"/>
      </g>
     </g>
     <g id="text_53">
      <!-- 2000 -->
      <g transform="translate(7.2 345.001746)scale(0.18 -0.18)">
       <defs>
        <path id="TimesNewRomanPSMT-32" d="M 2934 816 
L 2638 0 
L 138 0 
L 138 116 
Q 1241 1122 1691 1759 
Q 2141 2397 2141 2925 
Q 2141 3328 1894 3587 
Q 1647 3847 1303 3847 
Q 991 3847 742 3664 
Q 494 3481 375 3128 
L 259 3128 
Q 338 3706 661 4015 
Q 984 4325 1469 4325 
Q 1984 4325 2329 3994 
Q 2675 3663 2675 3213 
Q 2675 2891 2525 2569 
Q 2294 2063 1775 1497 
Q 997 647 803 472 
L 1909 472 
Q 2247 472 2383 497 
Q 2519 522 2628 598 
Q 2738 675 2819 816 
L 2934 816 
z
" transform="scale(0.015625)"/>
       </defs>
       <use xlink:href="#TimesNewRomanPSMT-32"/>
       <use xlink:href="#TimesNewRomanPSMT-30" x="50"/>
       <use xlink:href="#TimesNewRomanPSMT-30" x="100"/>
       <use xlink:href="#TimesNewRomanPSMT-30" x="150"/>
      </g>
     </g>
    </g>
    <g id="ytick_4">
     <g id="line2d_54">
      <g>
       <use xlink:href="#mfc32f9cc59" x="50.2" y="232.728557" style="stroke: #000000; stroke-width: 0.8"/>
      </g>
     </g>
     <g id="text_54">
      <!-- 3000 -->
      <g transform="translate(7.2 238.977932)scale(0.18 -0.18)">
       <defs>
        <path id="TimesNewRomanPSMT-33" d="M 325 3431 
Q 506 3859 782 4092 
Q 1059 4325 1472 4325 
Q 1981 4325 2253 3994 
Q 2459 3747 2459 3466 
Q 2459 3003 1878 2509 
Q 2269 2356 2469 2072 
Q 2669 1788 2669 1403 
Q 2669 853 2319 450 
Q 1863 -75 997 -75 
Q 569 -75 414 31 
Q 259 138 259 259 
Q 259 350 332 419 
Q 406 488 509 488 
Q 588 488 669 463 
Q 722 447 909 348 
Q 1097 250 1169 231 
Q 1284 197 1416 197 
Q 1734 197 1970 444 
Q 2206 691 2206 1028 
Q 2206 1275 2097 1509 
Q 2016 1684 1919 1775 
Q 1784 1900 1550 2001 
Q 1316 2103 1072 2103 
L 972 2103 
L 972 2197 
Q 1219 2228 1467 2375 
Q 1716 2522 1828 2728 
Q 1941 2934 1941 3181 
Q 1941 3503 1739 3701 
Q 1538 3900 1238 3900 
Q 753 3900 428 3381 
L 325 3431 
z
" transform="scale(0.015625)"/>
       </defs>
       <use xlink:href="#TimesNewRomanPSMT-33"/>
       <use xlink:href="#TimesNewRomanPSMT-30" x="50"/>
       <use xlink:href="#TimesNewRomanPSMT-30" x="100"/>
       <use xlink:href="#TimesNewRomanPSMT-30" x="150"/>
      </g>
     </g>
    </g>
    <g id="ytick_5">
     <g id="line2d_55">
      <g>
       <use xlink:href="#mfc32f9cc59" x="50.2" y="126.704742" style="stroke: #000000; stroke-width: 0.8"/>
      </g>
     </g>
     <g id="text_55">
      <!-- 4000 -->
      <g transform="translate(7.2 132.954117)scale(0.18 -0.18)">
       <defs>
        <path id="TimesNewRomanPSMT-34" d="M 2978 1563 
L 2978 1119 
L 2409 1119 
L 2409 0 
L 1894 0 
L 1894 1119 
L 100 1119 
L 100 1519 
L 2066 4325 
L 2409 4325 
L 2409 1563 
L 2978 1563 
z
M 1894 1563 
L 1894 3666 
L 406 1563 
L 1894 1563 
z
" transform="scale(0.015625)"/>
       </defs>
       <use xlink:href="#TimesNewRomanPSMT-34"/>
       <use xlink:href="#TimesNewRomanPSMT-30" x="50"/>
       <use xlink:href="#TimesNewRomanPSMT-30" x="100"/>
       <use xlink:href="#TimesNewRomanPSMT-30" x="150"/>
      </g>
     </g>
    </g>
    <g id="ytick_6">
     <g id="line2d_56">
      <g>
       <use xlink:href="#mfc32f9cc59" x="50.2" y="20.680928" style="stroke: #000000; stroke-width: 0.8"/>
      </g>
     </g>
     <g id="text_56">
      <!-- 5000 -->
      <g transform="translate(7.2 26.930303)scale(0.18 -0.18)">
       <defs>
        <path id="TimesNewRomanPSMT-35" d="M 2778 4238 
L 2534 3706 
L 1259 3706 
L 981 3138 
Q 1809 3016 2294 2522 
Q 2709 2097 2709 1522 
Q 2709 1188 2573 903 
Q 2438 619 2231 419 
Q 2025 219 1772 97 
Q 1413 -75 1034 -75 
Q 653 -75 479 54 
Q 306 184 306 341 
Q 306 428 378 495 
Q 450 563 559 563 
Q 641 563 702 538 
Q 763 513 909 409 
Q 1144 247 1384 247 
Q 1750 247 2026 523 
Q 2303 800 2303 1197 
Q 2303 1581 2056 1914 
Q 1809 2247 1375 2428 
Q 1034 2569 447 2591 
L 1259 4238 
L 2778 4238 
z
" transform="scale(0.015625)"/>
       </defs>
       <use xlink:href="#TimesNewRomanPSMT-35"/>
       <use xlink:href="#TimesNewRomanPSMT-30" x="50"/>
       <use xlink:href="#TimesNewRomanPSMT-30" x="100"/>
       <use xlink:href="#TimesNewRomanPSMT-30" x="150"/>
      </g>
     </g>
    </g>
   </g>
   <g id="patch_103">
    <path d="M 50.2 550.8 
L 50.2 7.2 
" style="fill: none; stroke: #000000; stroke-width: 0.8; stroke-linejoin: miter; stroke-linecap: square"/>
   </g>
   <g id="patch_104">
    <path d="M 887.2 550.8 
L 887.2 7.2 
" style="fill: none; stroke: #000000; stroke-width: 0.8; stroke-linejoin: miter; stroke-linecap: square"/>
   </g>
   <g id="patch_105">
    <path d="M 50.2 550.8 
L 887.2 550.8 
" style="fill: none; stroke: #000000; stroke-width: 0.8; stroke-linejoin: miter; stroke-linecap: square"/>
   </g>
   <g id="patch_106">
    <path d="M 50.2 7.2 
L 887.2 7.2 
" style="fill: none; stroke: #000000; stroke-width: 0.8; stroke-linejoin: miter; stroke-linecap: square"/>
   </g>
   <g id="legend_1">
    <g id="patch_107">
     <path d="M 705.560313 72.568125 
L 874.6 72.568125 
Q 878.2 72.568125 878.2 68.968125 
L 878.2 19.8 
Q 878.2 16.2 874.6 16.2 
L 705.560313 16.2 
Q 701.960313 16.2 701.960313 19.8 
L 701.960313 68.968125 
Q 701.960313 72.568125 705.560313 72.568125 
z
" style="fill: #ffffff; opacity: 0.8; stroke: #cccccc; stroke-linejoin: miter"/>
    </g>
    <g id="patch_108">
     <path d="M 709.160313 36 
L 745.160313 36 
L 745.160313 23.4 
L 709.160313 23.4 
z
" style="fill: #1f77b4"/>
    </g>
    <g id="text_57">
     <!-- before cleaning -->
     <g transform="translate(759.560313 36)scale(0.18 -0.18)">
      <defs>
       <path id="TimesNewRomanPSMT-20" transform="scale(0.015625)"/>
      </defs>
      <use xlink:href="#TimesNewRomanPSMT-62"/>
      <use xlink:href="#TimesNewRomanPSMT-65" x="50"/>
      <use xlink:href="#TimesNewRomanPSMT-66" x="94.384766"/>
      <use xlink:href="#TimesNewRomanPSMT-6f" x="127.685547"/>
      <use xlink:href="#TimesNewRomanPSMT-72" x="177.685547"/>
      <use xlink:href="#TimesNewRomanPSMT-65" x="210.986328"/>
      <use xlink:href="#TimesNewRomanPSMT-20" x="255.371094"/>
      <use xlink:href="#TimesNewRomanPSMT-63" x="280.371094"/>
      <use xlink:href="#TimesNewRomanPSMT-6c" x="324.755859"/>
      <use xlink:href="#TimesNewRomanPSMT-65" x="352.539062"/>
      <use xlink:href="#TimesNewRomanPSMT-61" x="396.923828"/>
      <use xlink:href="#TimesNewRomanPSMT-6e" x="441.308594"/>
      <use xlink:href="#TimesNewRomanPSMT-69" x="491.308594"/>
      <use xlink:href="#TimesNewRomanPSMT-6e" x="519.091797"/>
      <use xlink:href="#TimesNewRomanPSMT-67" x="569.091797"/>
     </g>
    </g>
    <g id="patch_109">
     <path d="M 709.160313 61.484063 
L 745.160313 61.484063 
L 745.160313 48.884063 
L 709.160313 48.884063 
z
" style="fill: #ff7f0e"/>
    </g>
    <g id="text_58">
     <!-- after cleaning -->
     <g transform="translate(759.560313 61.484063)scale(0.18 -0.18)">
      <use xlink:href="#TimesNewRomanPSMT-61"/>
      <use xlink:href="#TimesNewRomanPSMT-66" x="44.384766"/>
      <use xlink:href="#TimesNewRomanPSMT-74" x="77.685547"/>
      <use xlink:href="#TimesNewRomanPSMT-65" x="105.46875"/>
      <use xlink:href="#TimesNewRomanPSMT-72" x="149.853516"/>
      <use xlink:href="#TimesNewRomanPSMT-20" x="183.154297"/>
      <use xlink:href="#TimesNewRomanPSMT-63" x="208.154297"/>
      <use xlink:href="#TimesNewRomanPSMT-6c" x="252.539062"/>
      <use xlink:href="#TimesNewRomanPSMT-65" x="280.322266"/>
      <use xlink:href="#TimesNewRomanPSMT-61" x="324.707031"/>
      <use xlink:href="#TimesNewRomanPSMT-6e" x="369.091797"/>
      <use xlink:href="#TimesNewRomanPSMT-69" x="419.091797"/>
      <use xlink:href="#TimesNewRomanPSMT-6e" x="446.875"/>
      <use xlink:href="#TimesNewRomanPSMT-67" x="496.875"/>
     </g>
    </g>
   </g>
  </g>
 </g>
 <defs>
  <clipPath id="p97e644e65d">
   <rect x="50.2" y="7.2" width="837" height="543.6"/>
  </clipPath>
 </defs>
</svg>
