<?xml version="1.0" encoding="utf-8" standalone="no"?>
<!DOCTYPE svg PUBLIC "-//W3C//DTD SVG 1.1//EN"
  "http://www.w3.org/Graphics/SVG/1.1/DTD/svg11.dtd">
<svg xmlns:xlink="http://www.w3.org/1999/xlink" width="894.4pt" height="881.409062pt" viewBox="0 0 894.4 881.409062" xmlns="http://www.w3.org/2000/svg" version="1.1">
 <metadata>
  <rdf:RDF xmlns:dc="http://purl.org/dc/elements/1.1/" xmlns:cc="http://creativecommons.org/ns#" xmlns:rdf="http://www.w3.org/1999/02/22-rdf-syntax-ns#">
   <cc:Work>
    <dc:type rdf:resource="http://purl.org/dc/dcmitype/StillImage"/>
    <dc:date>2022-06-25T02:38:20.521634</dc:date>
    <dc:format>image/svg+xml</dc:format>
    <dc:creator>
     <cc:Agent>
      <dc:title>Matplotlib v3.5.1, https://matplotlib.org/</dc:title>
     </cc:Agent>
    </dc:creator>
   </cc:Work>
  </rdf:RDF>
 </metadata>
 <defs>
  <style type="text/css">*{stroke-linejoin: round; stroke-linecap: butt}</style>
 </defs>
 <g id="figure_1">
  <g id="patch_1">
   <path d="M 0 881.409062 
L 894.4 881.409062 
L 894.4 0 
L 0 0 
L 0 881.409062 
z
" style="fill: none"/>
  </g>
  <g id="axes_1">
   <g id="patch_2">
    <path d="M 50.2 768.24 
L 887.2 768.24 
L 887.2 7.2 
L 50.2 7.2 
z
" style="fill: #ffffff"/>
   </g>
   <g id="patch_3">
    <path d="M 88.245455 768.24 
L 100.468894 768.24 
L 100.468894 43.44 
L 88.245455 43.44 
z
" clip-path="url(#pa90d758640)" style="fill: #1f77b4"/>
   </g>
   <g id="patch_4">
    <path d="M 103.524754 768.24 
L 115.748193 768.24 
L 115.748193 390.328716 
L 103.524754 390.328716 
z
" clip-path="url(#pa90d758640)" style="fill: #1f77b4"/>
   </g>
   <g id="patch_5">
    <path d="M 118.804053 768.24 
L 131.027492 768.24 
L 131.027492 498.833488 
L 118.804053 498.833488 
z
" clip-path="url(#pa90d758640)" style="fill: #1f77b4"/>
   </g>
   <g id="patch_6">
    <path d="M 134.083352 768.24 
L 146.306791 768.24 
L 146.306791 571.565824 
L 134.083352 571.565824 
z
" clip-path="url(#pa90d758640)" style="fill: #1f77b4"/>
   </g>
   <g id="patch_7">
    <path d="M 149.362651 768.24 
L 161.58609 768.24 
L 161.58609 607.486693 
L 149.362651 607.486693 
z
" clip-path="url(#pa90d758640)" style="fill: #1f77b4"/>
   </g>
   <g id="patch_8">
    <path d="M 164.64195 768.24 
L 176.865389 768.24 
L 176.865389 608.674159 
L 164.64195 608.674159 
z
" clip-path="url(#pa90d758640)" style="fill: #1f77b4"/>
   </g>
   <g id="patch_9">
    <path d="M 179.921249 768.24 
L 192.144688 768.24 
L 192.144688 622.92376 
L 179.921249 622.92376 
z
" clip-path="url(#pa90d758640)" style="fill: #1f77b4"/>
   </g>
   <g id="patch_10">
    <path d="M 195.200548 768.24 
L 207.423987 768.24 
L 207.423987 624.70496 
L 195.200548 624.70496 
z
" clip-path="url(#pa90d758640)" style="fill: #1f77b4"/>
   </g>
   <g id="patch_11">
    <path d="M 210.479847 768.24 
L 222.703286 768.24 
L 222.703286 632.72036 
L 210.479847 632.72036 
z
" clip-path="url(#pa90d758640)" style="fill: #1f77b4"/>
   </g>
   <g id="patch_12">
    <path d="M 225.759146 768.24 
L 237.982585 768.24 
L 237.982585 635.392161 
L 225.759146 635.392161 
z
" clip-path="url(#pa90d758640)" style="fill: #1f77b4"/>
   </g>
   <g id="patch_13">
    <path d="M 241.038445 768.24 
L 253.261884 768.24 
L 253.261884 643.852861 
L 241.038445 643.852861 
z
" clip-path="url(#pa90d758640)" style="fill: #1f77b4"/>
   </g>
   <g id="patch_14">
    <path d="M 256.317744 768.24 
L 268.541183 768.24 
L 268.541183 643.852861 
L 256.317744 643.852861 
z
" clip-path="url(#pa90d758640)" style="fill: #1f77b4"/>
   </g>
   <g id="patch_15">
    <path d="M 271.597043 768.24 
L 283.820482 768.24 
L 283.820482 648.454294 
L 271.597043 648.454294 
z
" clip-path="url(#pa90d758640)" style="fill: #1f77b4"/>
   </g>
   <g id="patch_16">
    <path d="M 286.876342 768.24 
L 299.099781 768.24 
L 299.099781 663.446062 
L 286.876342 663.446062 
z
" clip-path="url(#pa90d758640)" style="fill: #1f77b4"/>
   </g>
   <g id="patch_17">
    <path d="M 302.155641 768.24 
L 314.37908 768.24 
L 314.37908 669.977129 
L 302.155641 669.977129 
z
" clip-path="url(#pa90d758640)" style="fill: #1f77b4"/>
   </g>
   <g id="patch_18">
    <path d="M 317.43494 768.24 
L 329.658379 768.24 
L 329.658379 672.945796 
L 317.43494 672.945796 
z
" clip-path="url(#pa90d758640)" style="fill: #1f77b4"/>
   </g>
   <g id="patch_19">
    <path d="M 332.714239 768.24 
L 344.937678 768.24 
L 344.937678 674.133262 
L 332.714239 674.133262 
z
" clip-path="url(#pa90d758640)" style="fill: #1f77b4"/>
   </g>
   <g id="patch_20">
    <path d="M 347.993538 768.24 
L 360.216977 768.24 
L 360.216977 675.172296 
L 347.993538 675.172296 
z
" clip-path="url(#pa90d758640)" style="fill: #1f77b4"/>
   </g>
   <g id="patch_21">
    <path d="M 363.272837 768.24 
L 375.496276 768.24 
L 375.496276 681.406496 
L 363.272837 681.406496 
z
" clip-path="url(#pa90d758640)" style="fill: #1f77b4"/>
   </g>
   <g id="patch_22">
    <path d="M 378.552136 768.24 
L 390.775575 768.24 
L 390.775575 694.320197 
L 378.552136 694.320197 
z
" clip-path="url(#pa90d758640)" style="fill: #1f77b4"/>
   </g>
   <g id="patch_23">
    <path d="M 393.831435 768.24 
L 406.054874 768.24 
L 406.054874 700.25753 
L 393.831435 700.25753 
z
" clip-path="url(#pa90d758640)" style="fill: #1f77b4"/>
   </g>
   <g id="patch_24">
    <path d="M 409.110734 768.24 
L 421.334173 768.24 
L 421.334173 705.007397 
L 409.110734 705.007397 
z
" clip-path="url(#pa90d758640)" style="fill: #1f77b4"/>
   </g>
   <g id="patch_25">
    <path d="M 424.390033 768.24 
L 436.613472 768.24 
L 436.613472 708.718231 
L 424.390033 708.718231 
z
" clip-path="url(#pa90d758640)" style="fill: #1f77b4"/>
   </g>
   <g id="patch_26">
    <path d="M 439.669332 768.24 
L 451.892771 768.24 
L 451.892771 714.061831 
L 439.669332 714.061831 
z
" clip-path="url(#pa90d758640)" style="fill: #1f77b4"/>
   </g>
   <g id="patch_27">
    <path d="M 454.948631 768.24 
L 467.17207 768.24 
L 467.17207 715.694598 
L 454.948631 715.694598 
z
" clip-path="url(#pa90d758640)" style="fill: #1f77b4"/>
   </g>
   <g id="patch_28">
    <path d="M 470.22793 768.24 
L 482.451369 768.24 
L 482.451369 716.585198 
L 470.22793 716.585198 
z
" clip-path="url(#pa90d758640)" style="fill: #1f77b4"/>
   </g>
   <g id="patch_29">
    <path d="M 485.507229 768.24 
L 497.730668 768.24 
L 497.730668 717.475798 
L 485.507229 717.475798 
z
" clip-path="url(#pa90d758640)" style="fill: #1f77b4"/>
   </g>
   <g id="patch_30">
    <path d="M 500.786528 768.24 
L 513.009967 768.24 
L 513.009967 718.217964 
L 500.786528 718.217964 
z
" clip-path="url(#pa90d758640)" style="fill: #1f77b4"/>
   </g>
   <g id="patch_31">
    <path d="M 516.065827 768.24 
L 528.289266 768.24 
L 528.289266 719.256998 
L 516.065827 719.256998 
z
" clip-path="url(#pa90d758640)" style="fill: #1f77b4"/>
   </g>
   <g id="patch_32">
    <path d="M 531.345126 768.24 
L 543.568565 768.24 
L 543.568565 719.553864 
L 531.345126 719.553864 
z
" clip-path="url(#pa90d758640)" style="fill: #1f77b4"/>
   </g>
   <g id="patch_33">
    <path d="M 546.624425 768.24 
L 558.847864 768.24 
L 558.847864 721.631931 
L 546.624425 721.631931 
z
" clip-path="url(#pa90d758640)" style="fill: #1f77b4"/>
   </g>
   <g id="patch_34">
    <path d="M 561.903724 768.24 
L 574.127163 768.24 
L 574.127163 722.967831 
L 561.903724 722.967831 
z
" clip-path="url(#pa90d758640)" style="fill: #1f77b4"/>
   </g>
   <g id="patch_35">
    <path d="M 577.183023 768.24 
L 589.406462 768.24 
L 589.406462 723.709998 
L 577.183023 723.709998 
z
" clip-path="url(#pa90d758640)" style="fill: #1f77b4"/>
   </g>
   <g id="patch_36">
    <path d="M 592.462322 768.24 
L 604.685761 768.24 
L 604.685761 723.858431 
L 592.462322 723.858431 
z
" clip-path="url(#pa90d758640)" style="fill: #1f77b4"/>
   </g>
   <g id="patch_37">
    <path d="M 607.741621 768.24 
L 619.96506 768.24 
L 619.96506 725.936498 
L 607.741621 725.936498 
z
" clip-path="url(#pa90d758640)" style="fill: #1f77b4"/>
   </g>
   <g id="patch_38">
    <path d="M 623.02092 768.24 
L 635.244359 768.24 
L 635.244359 727.569265 
L 623.02092 727.569265 
z
" clip-path="url(#pa90d758640)" style="fill: #1f77b4"/>
   </g>
   <g id="patch_39">
    <path d="M 638.300219 768.24 
L 650.523658 768.24 
L 650.523658 727.569265 
L 638.300219 727.569265 
z
" clip-path="url(#pa90d758640)" style="fill: #1f77b4"/>
   </g>
   <g id="patch_40">
    <path d="M 653.579518 768.24 
L 665.802957 768.24 
L 665.802957 727.866131 
L 653.579518 727.866131 
z
" clip-path="url(#pa90d758640)" style="fill: #1f77b4"/>
   </g>
   <g id="patch_41">
    <path d="M 668.858817 768.24 
L 681.082256 768.24 
L 681.082256 731.725398 
L 668.858817 731.725398 
z
" clip-path="url(#pa90d758640)" style="fill: #1f77b4"/>
   </g>
   <g id="patch_42">
    <path d="M 684.138116 768.24 
L 696.361555 768.24 
L 696.361555 733.358165 
L 684.138116 733.358165 
z
" clip-path="url(#pa90d758640)" style="fill: #1f77b4"/>
   </g>
   <g id="patch_43">
    <path d="M 699.417415 768.24 
L 711.640854 768.24 
L 711.640854 734.545632 
L 699.417415 734.545632 
z
" clip-path="url(#pa90d758640)" style="fill: #1f77b4"/>
   </g>
   <g id="patch_44">
    <path d="M 714.696714 768.24 
L 726.920153 768.24 
L 726.920153 735.881532 
L 714.696714 735.881532 
z
" clip-path="url(#pa90d758640)" style="fill: #1f77b4"/>
   </g>
   <g id="patch_45">
    <path d="M 729.976013 768.24 
L 742.199452 768.24 
L 742.199452 736.178399 
L 729.976013 736.178399 
z
" clip-path="url(#pa90d758640)" style="fill: #1f77b4"/>
   </g>
   <g id="patch_46">
    <path d="M 745.255312 768.24 
L 757.478751 768.24 
L 757.478751 737.514299 
L 745.255312 737.514299 
z
" clip-path="url(#pa90d758640)" style="fill: #1f77b4"/>
   </g>
   <g id="patch_47">
    <path d="M 760.534611 768.24 
L 772.75805 768.24 
L 772.75805 737.959599 
L 760.534611 737.959599 
z
" clip-path="url(#pa90d758640)" style="fill: #1f77b4"/>
   </g>
   <g id="patch_48">
    <path d="M 775.81391 768.24 
L 788.037349 768.24 
L 788.037349 739.147065 
L 775.81391 739.147065 
z
" clip-path="url(#pa90d758640)" style="fill: #1f77b4"/>
   </g>
   <g id="patch_49">
    <path d="M 791.093209 768.24 
L 803.316648 768.24 
L 803.316648 740.482965 
L 791.093209 740.482965 
z
" clip-path="url(#pa90d758640)" style="fill: #1f77b4"/>
   </g>
   <g id="patch_50">
    <path d="M 806.372508 768.24 
L 818.595947 768.24 
L 818.595947 740.928265 
L 806.372508 740.928265 
z
" clip-path="url(#pa90d758640)" style="fill: #1f77b4"/>
   </g>
   <g id="patch_51">
    <path d="M 821.651807 768.24 
L 833.875246 768.24 
L 833.875246 741.818865 
L 821.651807 741.818865 
z
" clip-path="url(#pa90d758640)" style="fill: #1f77b4"/>
   </g>
   <g id="patch_52">
    <path d="M 836.931106 768.24 
L 849.154545 768.24 
L 849.154545 742.412599 
L 836.931106 742.412599 
z
" clip-path="url(#pa90d758640)" style="fill: #1f77b4"/>
   </g>
   <g id="matplotlib.axis_1">
    <g id="xtick_1">
     <g id="line2d_1">
      <defs>
       <path id="mdb59091e19" d="M 0 0 
L 0 3.5 
" style="stroke: #000000; stroke-width: 0.8"/>
      </defs>
      <g>
       <use xlink:href="#mdb59091e19" x="94.357174" y="768.24" style="stroke: #000000; stroke-width: 0.8"/>
      </g>
     </g>
     <g id="text_1">
      <!-- happy -->
      <g transform="translate(90.04983 775.24)rotate(-270)scale(0.18 -0.18)">
       <defs>
        <path id="TimesNewRomanPSMT-68" d="M 1041 4444 
L 1041 2350 
Q 1388 2731 1591 2839 
Q 1794 2947 1997 2947 
Q 2241 2947 2416 2812 
Q 2591 2678 2675 2391 
Q 2734 2191 2734 1659 
L 2734 647 
Q 2734 375 2778 275 
Q 2809 200 2884 156 
Q 2959 113 3159 113 
L 3159 0 
L 1753 0 
L 1753 113 
L 1819 113 
Q 2019 113 2097 173 
Q 2175 234 2206 353 
Q 2216 403 2216 647 
L 2216 1659 
Q 2216 2128 2167 2275 
Q 2119 2422 2012 2495 
Q 1906 2569 1756 2569 
Q 1603 2569 1437 2487 
Q 1272 2406 1041 2159 
L 1041 647 
Q 1041 353 1073 281 
Q 1106 209 1195 161 
Q 1284 113 1503 113 
L 1503 0 
L 84 0 
L 84 113 
Q 275 113 384 172 
Q 447 203 484 290 
Q 522 378 522 647 
L 522 3238 
Q 522 3728 498 3840 
Q 475 3953 426 3993 
Q 378 4034 297 4034 
Q 231 4034 84 3984 
L 41 4094 
L 897 4444 
L 1041 4444 
z
" transform="scale(0.015625)"/>
        <path id="TimesNewRomanPSMT-61" d="M 1822 413 
Q 1381 72 1269 19 
Q 1100 -59 909 -59 
Q 613 -59 420 144 
Q 228 347 228 678 
Q 228 888 322 1041 
Q 450 1253 767 1440 
Q 1084 1628 1822 1897 
L 1822 2009 
Q 1822 2438 1686 2597 
Q 1550 2756 1291 2756 
Q 1094 2756 978 2650 
Q 859 2544 859 2406 
L 866 2225 
Q 866 2081 792 2003 
Q 719 1925 600 1925 
Q 484 1925 411 2006 
Q 338 2088 338 2228 
Q 338 2497 613 2722 
Q 888 2947 1384 2947 
Q 1766 2947 2009 2819 
Q 2194 2722 2281 2516 
Q 2338 2381 2338 1966 
L 2338 994 
Q 2338 584 2353 492 
Q 2369 400 2405 369 
Q 2441 338 2488 338 
Q 2538 338 2575 359 
Q 2641 400 2828 588 
L 2828 413 
Q 2478 -56 2159 -56 
Q 2006 -56 1915 50 
Q 1825 156 1822 413 
z
M 1822 616 
L 1822 1706 
Q 1350 1519 1213 1441 
Q 966 1303 859 1153 
Q 753 1003 753 825 
Q 753 600 887 451 
Q 1022 303 1197 303 
Q 1434 303 1822 616 
z
" transform="scale(0.015625)"/>
        <path id="TimesNewRomanPSMT-70" d="M -6 2578 
L 875 2934 
L 994 2934 
L 994 2266 
Q 1216 2644 1439 2795 
Q 1663 2947 1909 2947 
Q 2341 2947 2628 2609 
Q 2981 2197 2981 1534 
Q 2981 794 2556 309 
Q 2206 -88 1675 -88 
Q 1444 -88 1275 -22 
Q 1150 25 994 166 
L 994 -706 
Q 994 -1000 1030 -1079 
Q 1066 -1159 1155 -1206 
Q 1244 -1253 1478 -1253 
L 1478 -1369 
L -22 -1369 
L -22 -1253 
L 56 -1253 
Q 228 -1256 350 -1188 
Q 409 -1153 442 -1076 
Q 475 -1000 475 -688 
L 475 2019 
Q 475 2297 450 2372 
Q 425 2447 370 2484 
Q 316 2522 222 2522 
Q 147 2522 31 2478 
L -6 2578 
z
M 994 2081 
L 994 1013 
Q 994 666 1022 556 
Q 1066 375 1236 237 
Q 1406 100 1666 100 
Q 1978 100 2172 344 
Q 2425 663 2425 1241 
Q 2425 1897 2138 2250 
Q 1938 2494 1663 2494 
Q 1513 2494 1366 2419 
Q 1253 2363 994 2081 
z
" transform="scale(0.015625)"/>
        <path id="TimesNewRomanPSMT-79" d="M 38 2863 
L 1372 2863 
L 1372 2747 
L 1306 2747 
Q 1166 2747 1095 2686 
Q 1025 2625 1025 2534 
Q 1025 2413 1128 2197 
L 1825 753 
L 2466 2334 
Q 2519 2463 2519 2588 
Q 2519 2644 2497 2672 
Q 2472 2706 2419 2726 
Q 2366 2747 2231 2747 
L 2231 2863 
L 3163 2863 
L 3163 2747 
Q 3047 2734 2984 2696 
Q 2922 2659 2847 2556 
Q 2819 2513 2741 2316 
L 1575 -541 
Q 1406 -956 1132 -1168 
Q 859 -1381 606 -1381 
Q 422 -1381 303 -1275 
Q 184 -1169 184 -1031 
Q 184 -900 270 -820 
Q 356 -741 506 -741 
Q 609 -741 788 -809 
Q 913 -856 944 -856 
Q 1038 -856 1148 -759 
Q 1259 -663 1372 -384 
L 1575 113 
L 547 2272 
Q 500 2369 397 2513 
Q 319 2622 269 2659 
Q 197 2709 38 2747 
L 38 2863 
z
" transform="scale(0.015625)"/>
       </defs>
       <use xlink:href="#TimesNewRomanPSMT-68"/>
       <use xlink:href="#TimesNewRomanPSMT-61" x="50"/>
       <use xlink:href="#TimesNewRomanPSMT-70" x="94.384766"/>
       <use xlink:href="#TimesNewRomanPSMT-70" x="144.384766"/>
       <use xlink:href="#TimesNewRomanPSMT-79" x="194.384766"/>
      </g>
     </g>
    </g>
    <g id="xtick_2">
     <g id="line2d_2">
      <g>
       <use xlink:href="#mdb59091e19" x="109.636473" y="768.24" style="stroke: #000000; stroke-width: 0.8"/>
      </g>
     </g>
     <g id="text_2">
      <!-- excited -->
      <g transform="translate(105.312254 775.24)rotate(-270)scale(0.18 -0.18)">
       <defs>
        <path id="TimesNewRomanPSMT-65" d="M 681 1784 
Q 678 1147 991 784 
Q 1303 422 1725 422 
Q 2006 422 2214 576 
Q 2422 731 2563 1106 
L 2659 1044 
Q 2594 616 2278 264 
Q 1963 -88 1488 -88 
Q 972 -88 605 314 
Q 238 716 238 1394 
Q 238 2128 614 2539 
Q 991 2950 1559 2950 
Q 2041 2950 2350 2633 
Q 2659 2316 2659 1784 
L 681 1784 
z
M 681 1966 
L 2006 1966 
Q 1991 2241 1941 2353 
Q 1863 2528 1708 2628 
Q 1553 2728 1384 2728 
Q 1125 2728 920 2526 
Q 716 2325 681 1966 
z
" transform="scale(0.015625)"/>
        <path id="TimesNewRomanPSMT-78" d="M 84 2863 
L 1431 2863 
L 1431 2747 
Q 1303 2747 1251 2703 
Q 1200 2659 1200 2588 
Q 1200 2513 1309 2356 
Q 1344 2306 1413 2200 
L 1616 1875 
L 1850 2200 
Q 2075 2509 2075 2591 
Q 2075 2656 2022 2701 
Q 1969 2747 1850 2747 
L 1850 2863 
L 2819 2863 
L 2819 2747 
Q 2666 2738 2553 2663 
Q 2400 2556 2134 2200 
L 1744 1678 
L 2456 653 
Q 2719 275 2831 198 
Q 2944 122 3122 113 
L 3122 0 
L 1772 0 
L 1772 113 
Q 1913 113 1991 175 
Q 2050 219 2050 291 
Q 2050 363 1850 653 
L 1431 1266 
L 972 653 
Q 759 369 759 316 
Q 759 241 829 180 
Q 900 119 1041 113 
L 1041 0 
L 106 0 
L 106 113 
Q 219 128 303 191 
Q 422 281 703 653 
L 1303 1450 
L 759 2238 
Q 528 2575 401 2661 
Q 275 2747 84 2747 
L 84 2863 
z
" transform="scale(0.015625)"/>
        <path id="TimesNewRomanPSMT-63" d="M 2631 1088 
Q 2516 522 2178 217 
Q 1841 -88 1431 -88 
Q 944 -88 581 321 
Q 219 731 219 1428 
Q 219 2103 620 2525 
Q 1022 2947 1584 2947 
Q 2006 2947 2278 2723 
Q 2550 2500 2550 2259 
Q 2550 2141 2473 2067 
Q 2397 1994 2259 1994 
Q 2075 1994 1981 2113 
Q 1928 2178 1911 2362 
Q 1894 2547 1784 2644 
Q 1675 2738 1481 2738 
Q 1169 2738 978 2506 
Q 725 2200 725 1697 
Q 725 1184 976 792 
Q 1228 400 1656 400 
Q 1963 400 2206 609 
Q 2378 753 2541 1131 
L 2631 1088 
z
" transform="scale(0.015625)"/>
        <path id="TimesNewRomanPSMT-69" d="M 928 4444 
Q 1059 4444 1151 4351 
Q 1244 4259 1244 4128 
Q 1244 3997 1151 3903 
Q 1059 3809 928 3809 
Q 797 3809 703 3903 
Q 609 3997 609 4128 
Q 609 4259 701 4351 
Q 794 4444 928 4444 
z
M 1188 2947 
L 1188 647 
Q 1188 378 1227 289 
Q 1266 200 1342 156 
Q 1419 113 1622 113 
L 1622 0 
L 231 0 
L 231 113 
Q 441 113 512 153 
Q 584 194 626 287 
Q 669 381 669 647 
L 669 1750 
Q 669 2216 641 2353 
Q 619 2453 572 2492 
Q 525 2531 444 2531 
Q 356 2531 231 2484 
L 188 2597 
L 1050 2947 
L 1188 2947 
z
" transform="scale(0.015625)"/>
        <path id="TimesNewRomanPSMT-74" d="M 1031 3803 
L 1031 2863 
L 1700 2863 
L 1700 2644 
L 1031 2644 
L 1031 788 
Q 1031 509 1111 412 
Q 1191 316 1316 316 
Q 1419 316 1516 380 
Q 1613 444 1666 569 
L 1788 569 
Q 1678 263 1478 108 
Q 1278 -47 1066 -47 
Q 922 -47 784 33 
Q 647 113 581 261 
Q 516 409 516 719 
L 516 2644 
L 63 2644 
L 63 2747 
Q 234 2816 414 2980 
Q 594 3144 734 3369 
Q 806 3488 934 3803 
L 1031 3803 
z
" transform="scale(0.015625)"/>
        <path id="TimesNewRomanPSMT-64" d="M 2222 322 
Q 2013 103 1813 7 
Q 1613 -88 1381 -88 
Q 913 -88 563 304 
Q 213 697 213 1313 
Q 213 1928 600 2439 
Q 988 2950 1597 2950 
Q 1975 2950 2222 2709 
L 2222 3238 
Q 2222 3728 2198 3840 
Q 2175 3953 2125 3993 
Q 2075 4034 2000 4034 
Q 1919 4034 1784 3984 
L 1744 4094 
L 2597 4444 
L 2738 4444 
L 2738 1134 
Q 2738 631 2761 520 
Q 2784 409 2836 365 
Q 2888 322 2956 322 
Q 3041 322 3181 375 
L 3216 266 
L 2366 -88 
L 2222 -88 
L 2222 322 
z
M 2222 541 
L 2222 2016 
Q 2203 2228 2109 2403 
Q 2016 2578 1861 2667 
Q 1706 2756 1559 2756 
Q 1284 2756 1069 2509 
Q 784 2184 784 1559 
Q 784 928 1059 592 
Q 1334 256 1672 256 
Q 1956 256 2222 541 
z
" transform="scale(0.015625)"/>
       </defs>
       <use xlink:href="#TimesNewRomanPSMT-65"/>
       <use xlink:href="#TimesNewRomanPSMT-78" x="44.384766"/>
       <use xlink:href="#TimesNewRomanPSMT-63" x="94.384766"/>
       <use xlink:href="#TimesNewRomanPSMT-69" x="138.769531"/>
       <use xlink:href="#TimesNewRomanPSMT-74" x="166.552734"/>
       <use xlink:href="#TimesNewRomanPSMT-65" x="194.335938"/>
       <use xlink:href="#TimesNewRomanPSMT-64" x="238.720703"/>
      </g>
     </g>
    </g>
    <g id="xtick_3">
     <g id="line2d_3">
      <g>
       <use xlink:href="#mdb59091e19" x="124.915772" y="768.24" style="stroke: #000000; stroke-width: 0.8"/>
      </g>
     </g>
     <g id="text_3">
      <!-- sad -->
      <g transform="translate(120.591553 775.24)rotate(-270)scale(0.18 -0.18)">
       <defs>
        <path id="TimesNewRomanPSMT-73" d="M 2050 2947 
L 2050 1972 
L 1947 1972 
Q 1828 2431 1642 2597 
Q 1456 2763 1169 2763 
Q 950 2763 815 2647 
Q 681 2531 681 2391 
Q 681 2216 781 2091 
Q 878 1963 1175 1819 
L 1631 1597 
Q 2266 1288 2266 781 
Q 2266 391 1970 151 
Q 1675 -88 1309 -88 
Q 1047 -88 709 6 
Q 606 38 541 38 
Q 469 38 428 -44 
L 325 -44 
L 325 978 
L 428 978 
Q 516 541 762 319 
Q 1009 97 1316 97 
Q 1531 97 1667 223 
Q 1803 350 1803 528 
Q 1803 744 1651 891 
Q 1500 1038 1047 1263 
Q 594 1488 453 1669 
Q 313 1847 313 2119 
Q 313 2472 555 2709 
Q 797 2947 1181 2947 
Q 1350 2947 1591 2875 
Q 1750 2828 1803 2828 
Q 1853 2828 1881 2850 
Q 1909 2872 1947 2947 
L 2050 2947 
z
" transform="scale(0.015625)"/>
       </defs>
       <use xlink:href="#TimesNewRomanPSMT-73"/>
       <use xlink:href="#TimesNewRomanPSMT-61" x="38.916016"/>
       <use xlink:href="#TimesNewRomanPSMT-64" x="83.300781"/>
      </g>
     </g>
    </g>
    <g id="xtick_4">
     <g id="line2d_4">
      <g>
       <use xlink:href="#mdb59091e19" x="140.195071" y="768.24" style="stroke: #000000; stroke-width: 0.8"/>
      </g>
     </g>
     <g id="text_4">
      <!-- proud -->
      <g transform="translate(135.870852 775.24)rotate(-270)scale(0.18 -0.18)">
       <defs>
        <path id="TimesNewRomanPSMT-72" d="M 1038 2947 
L 1038 2303 
Q 1397 2947 1775 2947 
Q 1947 2947 2059 2842 
Q 2172 2738 2172 2600 
Q 2172 2478 2090 2393 
Q 2009 2309 1897 2309 
Q 1788 2309 1652 2417 
Q 1516 2525 1450 2525 
Q 1394 2525 1328 2463 
Q 1188 2334 1038 2041 
L 1038 669 
Q 1038 431 1097 309 
Q 1138 225 1241 169 
Q 1344 113 1538 113 
L 1538 0 
L 72 0 
L 72 113 
Q 291 113 397 181 
Q 475 231 506 341 
Q 522 394 522 644 
L 522 1753 
Q 522 2253 501 2348 
Q 481 2444 426 2487 
Q 372 2531 291 2531 
Q 194 2531 72 2484 
L 41 2597 
L 906 2947 
L 1038 2947 
z
" transform="scale(0.015625)"/>
        <path id="TimesNewRomanPSMT-6f" d="M 1600 2947 
Q 2250 2947 2644 2453 
Q 2978 2031 2978 1484 
Q 2978 1100 2793 706 
Q 2609 313 2286 112 
Q 1963 -88 1566 -88 
Q 919 -88 538 428 
Q 216 863 216 1403 
Q 216 1797 411 2186 
Q 606 2575 925 2761 
Q 1244 2947 1600 2947 
z
M 1503 2744 
Q 1338 2744 1170 2645 
Q 1003 2547 900 2300 
Q 797 2053 797 1666 
Q 797 1041 1045 587 
Q 1294 134 1700 134 
Q 2003 134 2200 384 
Q 2397 634 2397 1244 
Q 2397 2006 2069 2444 
Q 1847 2744 1503 2744 
z
" transform="scale(0.015625)"/>
        <path id="TimesNewRomanPSMT-75" d="M 2709 2863 
L 2709 1128 
Q 2709 631 2732 520 
Q 2756 409 2807 365 
Q 2859 322 2928 322 
Q 3025 322 3147 375 
L 3191 266 
L 2334 -88 
L 2194 -88 
L 2194 519 
Q 1825 119 1631 15 
Q 1438 -88 1222 -88 
Q 981 -88 804 51 
Q 628 191 559 409 
Q 491 628 491 1028 
L 491 2306 
Q 491 2509 447 2587 
Q 403 2666 317 2708 
Q 231 2750 6 2747 
L 6 2863 
L 1009 2863 
L 1009 947 
Q 1009 547 1148 422 
Q 1288 297 1484 297 
Q 1619 297 1789 381 
Q 1959 466 2194 703 
L 2194 2325 
Q 2194 2569 2105 2655 
Q 2016 2741 1734 2747 
L 1734 2863 
L 2709 2863 
z
" transform="scale(0.015625)"/>
       </defs>
       <use xlink:href="#TimesNewRomanPSMT-70"/>
       <use xlink:href="#TimesNewRomanPSMT-72" x="50"/>
       <use xlink:href="#TimesNewRomanPSMT-6f" x="83.300781"/>
       <use xlink:href="#TimesNewRomanPSMT-75" x="133.300781"/>
       <use xlink:href="#TimesNewRomanPSMT-64" x="183.300781"/>
      </g>
     </g>
    </g>
    <g id="xtick_5">
     <g id="line2d_5">
      <g>
       <use xlink:href="#mdb59091e19" x="155.47437" y="768.24" style="stroke: #000000; stroke-width: 0.8"/>
      </g>
     </g>
     <g id="text_5">
      <!-- scared -->
      <g transform="translate(151.150151 775.24)rotate(-270)scale(0.18 -0.18)">
       <use xlink:href="#TimesNewRomanPSMT-73"/>
       <use xlink:href="#TimesNewRomanPSMT-63" x="38.916016"/>
       <use xlink:href="#TimesNewRomanPSMT-61" x="83.300781"/>
       <use xlink:href="#TimesNewRomanPSMT-72" x="127.685547"/>
       <use xlink:href="#TimesNewRomanPSMT-65" x="160.986328"/>
       <use xlink:href="#TimesNewRomanPSMT-64" x="205.371094"/>
      </g>
     </g>
    </g>
    <g id="xtick_6">
     <g id="line2d_6">
      <g>
       <use xlink:href="#mdb59091e19" x="170.753669" y="768.24" style="stroke: #000000; stroke-width: 0.8"/>
      </g>
     </g>
     <g id="text_6">
      <!-- angry -->
      <g transform="translate(166.4632 775.24)rotate(-270)scale(0.18 -0.18)">
       <defs>
        <path id="TimesNewRomanPSMT-6e" d="M 1034 2341 
Q 1538 2947 1994 2947 
Q 2228 2947 2397 2830 
Q 2566 2713 2666 2444 
Q 2734 2256 2734 1869 
L 2734 647 
Q 2734 375 2778 278 
Q 2813 200 2889 156 
Q 2966 113 3172 113 
L 3172 0 
L 1756 0 
L 1756 113 
L 1816 113 
Q 2016 113 2095 173 
Q 2175 234 2206 353 
Q 2219 400 2219 647 
L 2219 1819 
Q 2219 2209 2117 2386 
Q 2016 2563 1775 2563 
Q 1403 2563 1034 2156 
L 1034 647 
Q 1034 356 1069 288 
Q 1113 197 1189 155 
Q 1266 113 1500 113 
L 1500 0 
L 84 0 
L 84 113 
L 147 113 
Q 366 113 442 223 
Q 519 334 519 647 
L 519 1709 
Q 519 2225 495 2337 
Q 472 2450 423 2490 
Q 375 2531 294 2531 
Q 206 2531 84 2484 
L 38 2597 
L 900 2947 
L 1034 2947 
L 1034 2341 
z
" transform="scale(0.015625)"/>
        <path id="TimesNewRomanPSMT-67" d="M 966 1044 
Q 703 1172 562 1401 
Q 422 1631 422 1909 
Q 422 2334 742 2640 
Q 1063 2947 1563 2947 
Q 1972 2947 2272 2747 
L 2878 2747 
Q 3013 2747 3034 2739 
Q 3056 2731 3066 2713 
Q 3084 2684 3084 2613 
Q 3084 2531 3069 2500 
Q 3059 2484 3036 2475 
Q 3013 2466 2878 2466 
L 2506 2466 
Q 2681 2241 2681 1891 
Q 2681 1491 2375 1206 
Q 2069 922 1553 922 
Q 1341 922 1119 984 
Q 981 866 932 777 
Q 884 688 884 625 
Q 884 572 936 522 
Q 988 472 1138 450 
Q 1225 438 1575 428 
Q 2219 413 2409 384 
Q 2700 344 2873 169 
Q 3047 -6 3047 -263 
Q 3047 -616 2716 -925 
Q 2228 -1381 1444 -1381 
Q 841 -1381 425 -1109 
Q 191 -953 191 -784 
Q 191 -709 225 -634 
Q 278 -519 444 -313 
Q 466 -284 763 25 
Q 600 122 533 198 
Q 466 275 466 372 
Q 466 481 555 628 
Q 644 775 966 1044 
z
M 1509 2797 
Q 1278 2797 1122 2612 
Q 966 2428 966 2047 
Q 966 1553 1178 1281 
Q 1341 1075 1591 1075 
Q 1828 1075 1981 1253 
Q 2134 1431 2134 1813 
Q 2134 2309 1919 2591 
Q 1759 2797 1509 2797 
z
M 934 0 
Q 788 -159 713 -296 
Q 638 -434 638 -550 
Q 638 -700 819 -813 
Q 1131 -1006 1722 -1006 
Q 2284 -1006 2551 -807 
Q 2819 -609 2819 -384 
Q 2819 -222 2659 -153 
Q 2497 -84 2016 -72 
Q 1313 -53 934 0 
z
" transform="scale(0.015625)"/>
       </defs>
       <use xlink:href="#TimesNewRomanPSMT-61"/>
       <use xlink:href="#TimesNewRomanPSMT-6e" x="44.384766"/>
       <use xlink:href="#TimesNewRomanPSMT-67" x="94.384766"/>
       <use xlink:href="#TimesNewRomanPSMT-72" x="144.384766"/>
       <use xlink:href="#TimesNewRomanPSMT-79" x="177.685547"/>
      </g>
     </g>
    </g>
    <g id="xtick_7">
     <g id="line2d_7">
      <g>
       <use xlink:href="#mdb59091e19" x="186.032968" y="768.24" style="stroke: #000000; stroke-width: 0.8"/>
      </g>
     </g>
     <g id="text_7">
      <!-- disappointed -->
      <g transform="translate(181.708749 775.24)rotate(-270)scale(0.18 -0.18)">
       <use xlink:href="#TimesNewRomanPSMT-64"/>
       <use xlink:href="#TimesNewRomanPSMT-69" x="50"/>
       <use xlink:href="#TimesNewRomanPSMT-73" x="77.783203"/>
       <use xlink:href="#TimesNewRomanPSMT-61" x="116.699219"/>
       <use xlink:href="#TimesNewRomanPSMT-70" x="161.083984"/>
       <use xlink:href="#TimesNewRomanPSMT-70" x="211.083984"/>
       <use xlink:href="#TimesNewRomanPSMT-6f" x="261.083984"/>
       <use xlink:href="#TimesNewRomanPSMT-69" x="311.083984"/>
       <use xlink:href="#TimesNewRomanPSMT-6e" x="338.867188"/>
       <use xlink:href="#TimesNewRomanPSMT-74" x="388.867188"/>
       <use xlink:href="#TimesNewRomanPSMT-65" x="416.650391"/>
       <use xlink:href="#TimesNewRomanPSMT-64" x="461.035156"/>
      </g>
     </g>
    </g>
    <g id="xtick_8">
     <g id="line2d_8">
      <g>
       <use xlink:href="#mdb59091e19" x="201.312267" y="768.24" style="stroke: #000000; stroke-width: 0.8"/>
      </g>
     </g>
     <g id="text_8">
      <!-- relieved -->
      <g transform="translate(196.988049 775.24)rotate(-270)scale(0.18 -0.18)">
       <defs>
        <path id="TimesNewRomanPSMT-6c" d="M 1184 4444 
L 1184 647 
Q 1184 378 1223 290 
Q 1263 203 1344 158 
Q 1425 113 1647 113 
L 1647 0 
L 244 0 
L 244 113 
Q 441 113 512 153 
Q 584 194 625 287 
Q 666 381 666 647 
L 666 3247 
Q 666 3731 644 3842 
Q 622 3953 573 3993 
Q 525 4034 450 4034 
Q 369 4034 244 3984 
L 191 4094 
L 1044 4444 
L 1184 4444 
z
" transform="scale(0.015625)"/>
        <path id="TimesNewRomanPSMT-76" d="M 53 2863 
L 1400 2863 
L 1400 2747 
L 1313 2747 
Q 1191 2747 1127 2687 
Q 1063 2628 1063 2528 
Q 1063 2419 1128 2269 
L 1794 688 
L 2463 2328 
Q 2534 2503 2534 2594 
Q 2534 2638 2509 2666 
Q 2475 2713 2422 2730 
Q 2369 2747 2206 2747 
L 2206 2863 
L 3141 2863 
L 3141 2747 
Q 2978 2734 2916 2681 
Q 2806 2588 2719 2369 
L 1703 -88 
L 1575 -88 
L 553 2328 
Q 484 2497 421 2570 
Q 359 2644 263 2694 
Q 209 2722 53 2747 
L 53 2863 
z
" transform="scale(0.015625)"/>
       </defs>
       <use xlink:href="#TimesNewRomanPSMT-72"/>
       <use xlink:href="#TimesNewRomanPSMT-65" x="33.300781"/>
       <use xlink:href="#TimesNewRomanPSMT-6c" x="77.685547"/>
       <use xlink:href="#TimesNewRomanPSMT-69" x="105.46875"/>
       <use xlink:href="#TimesNewRomanPSMT-65" x="133.251953"/>
       <use xlink:href="#TimesNewRomanPSMT-76" x="177.636719"/>
       <use xlink:href="#TimesNewRomanPSMT-65" x="227.636719"/>
       <use xlink:href="#TimesNewRomanPSMT-64" x="272.021484"/>
      </g>
     </g>
    </g>
    <g id="xtick_9">
     <g id="line2d_9">
      <g>
       <use xlink:href="#mdb59091e19" x="216.591566" y="768.24" style="stroke: #000000; stroke-width: 0.8"/>
      </g>
     </g>
     <g id="text_9">
      <!-- nervous -->
      <g transform="translate(212.267348 775.24)rotate(-270)scale(0.18 -0.18)">
       <use xlink:href="#TimesNewRomanPSMT-6e"/>
       <use xlink:href="#TimesNewRomanPSMT-65" x="50"/>
       <use xlink:href="#TimesNewRomanPSMT-72" x="94.384766"/>
       <use xlink:href="#TimesNewRomanPSMT-76" x="127.685547"/>
       <use xlink:href="#TimesNewRomanPSMT-6f" x="177.685547"/>
       <use xlink:href="#TimesNewRomanPSMT-75" x="227.685547"/>
       <use xlink:href="#TimesNewRomanPSMT-73" x="277.685547"/>
      </g>
     </g>
    </g>
    <g id="xtick_10">
     <g id="line2d_10">
      <g>
       <use xlink:href="#mdb59091e19" x="231.870865" y="768.24" style="stroke: #000000; stroke-width: 0.8"/>
      </g>
     </g>
     <g id="text_10">
      <!-- annoyed -->
      <g transform="translate(227.563522 775.24)rotate(-270)scale(0.18 -0.18)">
       <use xlink:href="#TimesNewRomanPSMT-61"/>
       <use xlink:href="#TimesNewRomanPSMT-6e" x="44.384766"/>
       <use xlink:href="#TimesNewRomanPSMT-6e" x="94.384766"/>
       <use xlink:href="#TimesNewRomanPSMT-6f" x="144.384766"/>
       <use xlink:href="#TimesNewRomanPSMT-79" x="194.384766"/>
       <use xlink:href="#TimesNewRomanPSMT-65" x="244.384766"/>
       <use xlink:href="#TimesNewRomanPSMT-64" x="288.769531"/>
      </g>
     </g>
    </g>
    <g id="xtick_11">
     <g id="line2d_11">
      <g>
       <use xlink:href="#mdb59091e19" x="247.150164" y="768.24" style="stroke: #000000; stroke-width: 0.8"/>
      </g>
     </g>
     <g id="text_11">
      <!-- upset -->
      <g transform="translate(242.825946 775.24)rotate(-270)scale(0.18 -0.18)">
       <use xlink:href="#TimesNewRomanPSMT-75"/>
       <use xlink:href="#TimesNewRomanPSMT-70" x="50"/>
       <use xlink:href="#TimesNewRomanPSMT-73" x="100"/>
       <use xlink:href="#TimesNewRomanPSMT-65" x="138.916016"/>
       <use xlink:href="#TimesNewRomanPSMT-74" x="183.300781"/>
      </g>
     </g>
    </g>
    <g id="xtick_12">
     <g id="line2d_12">
      <g>
       <use xlink:href="#mdb59091e19" x="262.429463" y="768.24" style="stroke: #000000; stroke-width: 0.8"/>
      </g>
     </g>
     <g id="text_12">
      <!-- surprised -->
      <g transform="translate(258.105245 775.24)rotate(-270)scale(0.18 -0.18)">
       <use xlink:href="#TimesNewRomanPSMT-73"/>
       <use xlink:href="#TimesNewRomanPSMT-75" x="38.916016"/>
       <use xlink:href="#TimesNewRomanPSMT-72" x="88.916016"/>
       <use xlink:href="#TimesNewRomanPSMT-70" x="122.216797"/>
       <use xlink:href="#TimesNewRomanPSMT-72" x="172.216797"/>
       <use xlink:href="#TimesNewRomanPSMT-69" x="205.517578"/>
       <use xlink:href="#TimesNewRomanPSMT-73" x="233.300781"/>
       <use xlink:href="#TimesNewRomanPSMT-65" x="272.216797"/>
       <use xlink:href="#TimesNewRomanPSMT-64" x="316.601562"/>
      </g>
     </g>
    </g>
    <g id="xtick_13">
     <g id="line2d_13">
      <g>
       <use xlink:href="#mdb59091e19" x="277.708762" y="768.24" style="stroke: #000000; stroke-width: 0.8"/>
      </g>
     </g>
     <g id="text_13">
      <!-- frustrated -->
      <g transform="translate(273.384544 775.24)rotate(-270)scale(0.18 -0.18)">
       <defs>
        <path id="TimesNewRomanPSMT-66" d="M 1319 2638 
L 1319 756 
Q 1319 356 1406 250 
Q 1522 113 1716 113 
L 1975 113 
L 1975 0 
L 266 0 
L 266 113 
L 394 113 
Q 519 113 622 175 
Q 725 238 764 344 
Q 803 450 803 756 
L 803 2638 
L 247 2638 
L 247 2863 
L 803 2863 
L 803 3050 
Q 803 3478 940 3775 
Q 1078 4072 1361 4255 
Q 1644 4438 1997 4438 
Q 2325 4438 2600 4225 
Q 2781 4084 2781 3909 
Q 2781 3816 2700 3733 
Q 2619 3650 2525 3650 
Q 2453 3650 2373 3701 
Q 2294 3753 2178 3923 
Q 2063 4094 1966 4153 
Q 1869 4213 1750 4213 
Q 1606 4213 1506 4136 
Q 1406 4059 1362 3898 
Q 1319 3738 1319 3069 
L 1319 2863 
L 2056 2863 
L 2056 2638 
L 1319 2638 
z
" transform="scale(0.015625)"/>
       </defs>
       <use xlink:href="#TimesNewRomanPSMT-66"/>
       <use xlink:href="#TimesNewRomanPSMT-72" x="33.300781"/>
       <use xlink:href="#TimesNewRomanPSMT-75" x="66.601562"/>
       <use xlink:href="#TimesNewRomanPSMT-73" x="116.601562"/>
       <use xlink:href="#TimesNewRomanPSMT-74" x="155.517578"/>
       <use xlink:href="#TimesNewRomanPSMT-72" x="183.300781"/>
       <use xlink:href="#TimesNewRomanPSMT-61" x="216.601562"/>
       <use xlink:href="#TimesNewRomanPSMT-74" x="260.986328"/>
       <use xlink:href="#TimesNewRomanPSMT-65" x="288.769531"/>
       <use xlink:href="#TimesNewRomanPSMT-64" x="333.154297"/>
      </g>
     </g>
    </g>
    <g id="xtick_14">
     <g id="line2d_14">
      <g>
       <use xlink:href="#mdb59091e19" x="292.988061" y="768.24" style="stroke: #000000; stroke-width: 0.8"/>
      </g>
     </g>
     <g id="text_14">
      <!-- worried -->
      <g transform="translate(288.663843 775.24)rotate(-270)scale(0.18 -0.18)">
       <defs>
        <path id="TimesNewRomanPSMT-77" d="M 41 2863 
L 1241 2863 
L 1241 2747 
Q 1075 2734 1023 2687 
Q 972 2641 972 2553 
Q 972 2456 1025 2319 
L 1638 672 
L 2253 2013 
L 2091 2434 
Q 2016 2622 1894 2694 
Q 1825 2738 1638 2747 
L 1638 2863 
L 3000 2863 
L 3000 2747 
Q 2775 2738 2681 2666 
Q 2619 2616 2619 2506 
Q 2619 2444 2644 2378 
L 3294 734 
L 3897 2319 
Q 3959 2488 3959 2588 
Q 3959 2647 3898 2694 
Q 3838 2741 3659 2747 
L 3659 2863 
L 4563 2863 
L 4563 2747 
Q 4291 2706 4163 2378 
L 3206 -88 
L 3078 -88 
L 2363 1741 
L 1528 -88 
L 1413 -88 
L 494 2319 
Q 403 2547 315 2626 
Q 228 2706 41 2747 
L 41 2863 
z
" transform="scale(0.015625)"/>
       </defs>
       <use xlink:href="#TimesNewRomanPSMT-77"/>
       <use xlink:href="#TimesNewRomanPSMT-6f" x="72.216797"/>
       <use xlink:href="#TimesNewRomanPSMT-72" x="122.216797"/>
       <use xlink:href="#TimesNewRomanPSMT-72" x="155.517578"/>
       <use xlink:href="#TimesNewRomanPSMT-69" x="188.818359"/>
       <use xlink:href="#TimesNewRomanPSMT-65" x="216.601562"/>
       <use xlink:href="#TimesNewRomanPSMT-64" x="260.986328"/>
      </g>
     </g>
    </g>
    <g id="xtick_15">
     <g id="line2d_15">
      <g>
       <use xlink:href="#mdb59091e19" x="308.26736" y="768.24" style="stroke: #000000; stroke-width: 0.8"/>
      </g>
     </g>
     <g id="text_15">
      <!-- satisfied -->
      <g transform="translate(303.943142 775.24)rotate(-270)scale(0.18 -0.18)">
       <use xlink:href="#TimesNewRomanPSMT-73"/>
       <use xlink:href="#TimesNewRomanPSMT-61" x="38.916016"/>
       <use xlink:href="#TimesNewRomanPSMT-74" x="83.300781"/>
       <use xlink:href="#TimesNewRomanPSMT-69" x="111.083984"/>
       <use xlink:href="#TimesNewRomanPSMT-73" x="138.867188"/>
       <use xlink:href="#TimesNewRomanPSMT-66" x="177.783203"/>
       <use xlink:href="#TimesNewRomanPSMT-69" x="211.083984"/>
       <use xlink:href="#TimesNewRomanPSMT-65" x="238.867188"/>
       <use xlink:href="#TimesNewRomanPSMT-64" x="283.251953"/>
      </g>
     </g>
    </g>
    <g id="xtick_16">
     <g id="line2d_16">
      <g>
       <use xlink:href="#mdb59091e19" x="323.546659" y="768.24" style="stroke: #000000; stroke-width: 0.8"/>
      </g>
     </g>
     <g id="text_16">
      <!-- anxious -->
      <g transform="translate(319.222441 775.24)rotate(-270)scale(0.18 -0.18)">
       <use xlink:href="#TimesNewRomanPSMT-61"/>
       <use xlink:href="#TimesNewRomanPSMT-6e" x="44.384766"/>
       <use xlink:href="#TimesNewRomanPSMT-78" x="94.384766"/>
       <use xlink:href="#TimesNewRomanPSMT-69" x="144.384766"/>
       <use xlink:href="#TimesNewRomanPSMT-6f" x="172.167969"/>
       <use xlink:href="#TimesNewRomanPSMT-75" x="222.167969"/>
       <use xlink:href="#TimesNewRomanPSMT-73" x="272.167969"/>
      </g>
     </g>
    </g>
    <g id="xtick_17">
     <g id="line2d_17">
      <g>
       <use xlink:href="#mdb59091e19" x="338.825958" y="768.24" style="stroke: #000000; stroke-width: 0.8"/>
      </g>
     </g>
     <g id="text_17">
      <!-- hopeful -->
      <g transform="translate(334.50174 775.24)rotate(-270)scale(0.18 -0.18)">
       <use xlink:href="#TimesNewRomanPSMT-68"/>
       <use xlink:href="#TimesNewRomanPSMT-6f" x="50"/>
       <use xlink:href="#TimesNewRomanPSMT-70" x="100"/>
       <use xlink:href="#TimesNewRomanPSMT-65" x="150"/>
       <use xlink:href="#TimesNewRomanPSMT-66" x="194.384766"/>
       <use xlink:href="#TimesNewRomanPSMT-75" x="227.685547"/>
       <use xlink:href="#TimesNewRomanPSMT-6c" x="277.685547"/>
      </g>
     </g>
    </g>
    <g id="xtick_18">
     <g id="line2d_18">
      <g>
       <use xlink:href="#mdb59091e19" x="354.105257" y="768.24" style="stroke: #000000; stroke-width: 0.8"/>
      </g>
     </g>
     <g id="text_18">
      <!-- determined -->
      <g transform="translate(349.781039 775.24)rotate(-270)scale(0.18 -0.18)">
       <defs>
        <path id="TimesNewRomanPSMT-6d" d="M 1050 2338 
Q 1363 2650 1419 2697 
Q 1559 2816 1721 2881 
Q 1884 2947 2044 2947 
Q 2313 2947 2506 2790 
Q 2700 2634 2766 2338 
Q 3088 2713 3309 2830 
Q 3531 2947 3766 2947 
Q 3994 2947 4170 2830 
Q 4347 2713 4450 2447 
Q 4519 2266 4519 1878 
L 4519 647 
Q 4519 378 4559 278 
Q 4591 209 4675 161 
Q 4759 113 4950 113 
L 4950 0 
L 3538 0 
L 3538 113 
L 3597 113 
Q 3781 113 3884 184 
Q 3956 234 3988 344 
Q 4000 397 4000 647 
L 4000 1878 
Q 4000 2228 3916 2372 
Q 3794 2572 3525 2572 
Q 3359 2572 3192 2489 
Q 3025 2406 2788 2181 
L 2781 2147 
L 2788 2013 
L 2788 647 
Q 2788 353 2820 281 
Q 2853 209 2943 161 
Q 3034 113 3253 113 
L 3253 0 
L 1806 0 
L 1806 113 
Q 2044 113 2133 169 
Q 2222 225 2256 338 
Q 2272 391 2272 647 
L 2272 1878 
Q 2272 2228 2169 2381 
Q 2031 2581 1784 2581 
Q 1616 2581 1450 2491 
Q 1191 2353 1050 2181 
L 1050 647 
Q 1050 366 1089 281 
Q 1128 197 1204 155 
Q 1281 113 1516 113 
L 1516 0 
L 100 0 
L 100 113 
Q 297 113 375 155 
Q 453 197 493 289 
Q 534 381 534 647 
L 534 1741 
Q 534 2213 506 2350 
Q 484 2453 437 2492 
Q 391 2531 309 2531 
Q 222 2531 100 2484 
L 53 2597 
L 916 2947 
L 1050 2947 
L 1050 2338 
z
" transform="scale(0.015625)"/>
       </defs>
       <use xlink:href="#TimesNewRomanPSMT-64"/>
       <use xlink:href="#TimesNewRomanPSMT-65" x="50"/>
       <use xlink:href="#TimesNewRomanPSMT-74" x="94.384766"/>
       <use xlink:href="#TimesNewRomanPSMT-65" x="122.167969"/>
       <use xlink:href="#TimesNewRomanPSMT-72" x="166.552734"/>
       <use xlink:href="#TimesNewRomanPSMT-6d" x="199.853516"/>
       <use xlink:href="#TimesNewRomanPSMT-69" x="277.636719"/>
       <use xlink:href="#TimesNewRomanPSMT-6e" x="305.419922"/>
       <use xlink:href="#TimesNewRomanPSMT-65" x="355.419922"/>
       <use xlink:href="#TimesNewRomanPSMT-64" x="399.804688"/>
      </g>
     </g>
    </g>
    <g id="xtick_19">
     <g id="line2d_19">
      <g>
       <use xlink:href="#mdb59091e19" x="369.384556" y="768.24" style="stroke: #000000; stroke-width: 0.8"/>
      </g>
     </g>
     <g id="text_19">
      <!-- embarrassed -->
      <g transform="translate(365.060338 775.24)rotate(-270)scale(0.18 -0.18)">
       <defs>
        <path id="TimesNewRomanPSMT-62" d="M 984 2369 
Q 1400 2947 1881 2947 
Q 2322 2947 2650 2570 
Q 2978 2194 2978 1541 
Q 2978 778 2472 313 
Q 2038 -88 1503 -88 
Q 1253 -88 995 3 
Q 738 94 469 275 
L 469 3241 
Q 469 3728 445 3840 
Q 422 3953 372 3993 
Q 322 4034 247 4034 
Q 159 4034 28 3984 
L -16 4094 
L 844 4444 
L 984 4444 
L 984 2369 
z
M 984 2169 
L 984 456 
Q 1144 300 1314 220 
Q 1484 141 1663 141 
Q 1947 141 2192 453 
Q 2438 766 2438 1363 
Q 2438 1913 2192 2208 
Q 1947 2503 1634 2503 
Q 1469 2503 1303 2419 
Q 1178 2356 984 2169 
z
" transform="scale(0.015625)"/>
       </defs>
       <use xlink:href="#TimesNewRomanPSMT-65"/>
       <use xlink:href="#TimesNewRomanPSMT-6d" x="44.384766"/>
       <use xlink:href="#TimesNewRomanPSMT-62" x="122.167969"/>
       <use xlink:href="#TimesNewRomanPSMT-61" x="172.167969"/>
       <use xlink:href="#TimesNewRomanPSMT-72" x="216.552734"/>
       <use xlink:href="#TimesNewRomanPSMT-72" x="249.853516"/>
       <use xlink:href="#TimesNewRomanPSMT-61" x="283.154297"/>
       <use xlink:href="#TimesNewRomanPSMT-73" x="327.539062"/>
       <use xlink:href="#TimesNewRomanPSMT-73" x="366.455078"/>
       <use xlink:href="#TimesNewRomanPSMT-65" x="405.371094"/>
       <use xlink:href="#TimesNewRomanPSMT-64" x="449.755859"/>
      </g>
     </g>
    </g>
    <g id="xtick_20">
     <g id="line2d_20">
      <g>
       <use xlink:href="#mdb59091e19" x="384.663855" y="768.24" style="stroke: #000000; stroke-width: 0.8"/>
      </g>
     </g>
     <g id="text_20">
      <!-- accomplished -->
      <g transform="translate(380.339637 775.24)rotate(-270)scale(0.18 -0.18)">
       <use xlink:href="#TimesNewRomanPSMT-61"/>
       <use xlink:href="#TimesNewRomanPSMT-63" x="44.384766"/>
       <use xlink:href="#TimesNewRomanPSMT-63" x="88.769531"/>
       <use xlink:href="#TimesNewRomanPSMT-6f" x="133.154297"/>
       <use xlink:href="#TimesNewRomanPSMT-6d" x="183.154297"/>
       <use xlink:href="#TimesNewRomanPSMT-70" x="260.9375"/>
       <use xlink:href="#TimesNewRomanPSMT-6c" x="310.9375"/>
       <use xlink:href="#TimesNewRomanPSMT-69" x="338.720703"/>
       <use xlink:href="#TimesNewRomanPSMT-73" x="366.503906"/>
       <use xlink:href="#TimesNewRomanPSMT-68" x="405.419922"/>
       <use xlink:href="#TimesNewRomanPSMT-65" x="455.419922"/>
       <use xlink:href="#TimesNewRomanPSMT-64" x="499.804688"/>
      </g>
     </g>
    </g>
    <g id="xtick_21">
     <g id="line2d_21">
      <g>
       <use xlink:href="#mdb59091e19" x="399.943154" y="768.24" style="stroke: #000000; stroke-width: 0.8"/>
      </g>
     </g>
     <g id="text_21">
      <!-- grateful -->
      <g transform="translate(395.635811 775.24)rotate(-270)scale(0.18 -0.18)">
       <use xlink:href="#TimesNewRomanPSMT-67"/>
       <use xlink:href="#TimesNewRomanPSMT-72" x="50"/>
       <use xlink:href="#TimesNewRomanPSMT-61" x="83.300781"/>
       <use xlink:href="#TimesNewRomanPSMT-74" x="127.685547"/>
       <use xlink:href="#TimesNewRomanPSMT-65" x="155.46875"/>
       <use xlink:href="#TimesNewRomanPSMT-66" x="199.853516"/>
       <use xlink:href="#TimesNewRomanPSMT-75" x="233.154297"/>
       <use xlink:href="#TimesNewRomanPSMT-6c" x="283.154297"/>
      </g>
     </g>
    </g>
    <g id="xtick_22">
     <g id="line2d_22">
      <g>
       <use xlink:href="#mdb59091e19" x="415.222453" y="768.24" style="stroke: #000000; stroke-width: 0.8"/>
      </g>
     </g>
     <g id="text_22">
      <!-- content -->
      <g transform="translate(410.898235 775.24)rotate(-270)scale(0.18 -0.18)">
       <use xlink:href="#TimesNewRomanPSMT-63"/>
       <use xlink:href="#TimesNewRomanPSMT-6f" x="44.384766"/>
       <use xlink:href="#TimesNewRomanPSMT-6e" x="94.384766"/>
       <use xlink:href="#TimesNewRomanPSMT-74" x="144.384766"/>
       <use xlink:href="#TimesNewRomanPSMT-65" x="172.167969"/>
       <use xlink:href="#TimesNewRomanPSMT-6e" x="216.552734"/>
       <use xlink:href="#TimesNewRomanPSMT-74" x="266.552734"/>
      </g>
     </g>
    </g>
    <g id="xtick_23">
     <g id="line2d_23">
      <g>
       <use xlink:href="#mdb59091e19" x="430.501752" y="768.24" style="stroke: #000000; stroke-width: 0.8"/>
      </g>
     </g>
     <g id="text_23">
      <!-- anticipation -->
      <g transform="translate(426.177534 775.24)rotate(-270)scale(0.18 -0.18)">
       <use xlink:href="#TimesNewRomanPSMT-61"/>
       <use xlink:href="#TimesNewRomanPSMT-6e" x="44.384766"/>
       <use xlink:href="#TimesNewRomanPSMT-74" x="94.384766"/>
       <use xlink:href="#TimesNewRomanPSMT-69" x="122.167969"/>
       <use xlink:href="#TimesNewRomanPSMT-63" x="149.951172"/>
       <use xlink:href="#TimesNewRomanPSMT-69" x="194.335938"/>
       <use xlink:href="#TimesNewRomanPSMT-70" x="222.119141"/>
       <use xlink:href="#TimesNewRomanPSMT-61" x="272.119141"/>
       <use xlink:href="#TimesNewRomanPSMT-74" x="316.503906"/>
       <use xlink:href="#TimesNewRomanPSMT-69" x="344.287109"/>
       <use xlink:href="#TimesNewRomanPSMT-6f" x="372.070312"/>
       <use xlink:href="#TimesNewRomanPSMT-6e" x="422.070312"/>
      </g>
     </g>
    </g>
    <g id="xtick_24">
     <g id="line2d_24">
      <g>
       <use xlink:href="#mdb59091e19" x="445.781051" y="768.24" style="stroke: #000000; stroke-width: 0.8"/>
      </g>
     </g>
     <g id="text_24">
      <!-- [EMPTY] -->
      <g transform="translate(441.456833 775.24)rotate(-270)scale(0.18 -0.18)">
       <defs>
        <path id="TimesNewRomanPSMT-5b" d="M 1900 -1269 
L 525 -1269 
L 525 4334 
L 1900 4334 
L 1900 4088 
L 994 4088 
L 994 -1025 
L 1900 -1025 
L 1900 -1269 
z
" transform="scale(0.015625)"/>
        <path id="TimesNewRomanPSMT-45" d="M 1338 4006 
L 1338 2331 
L 2269 2331 
Q 2631 2331 2753 2441 
Q 2916 2584 2934 2947 
L 3050 2947 
L 3050 1472 
L 2934 1472 
Q 2891 1781 2847 1869 
Q 2791 1978 2662 2040 
Q 2534 2103 2269 2103 
L 1338 2103 
L 1338 706 
Q 1338 425 1363 364 
Q 1388 303 1450 267 
Q 1513 231 1688 231 
L 2406 231 
Q 2766 231 2928 281 
Q 3091 331 3241 478 
Q 3434 672 3638 1063 
L 3763 1063 
L 3397 0 
L 131 0 
L 131 116 
L 281 116 
Q 431 116 566 188 
Q 666 238 702 338 
Q 738 438 738 747 
L 738 3500 
Q 738 3903 656 3997 
Q 544 4122 281 4122 
L 131 4122 
L 131 4238 
L 3397 4238 
L 3444 3309 
L 3322 3309 
Q 3256 3644 3176 3769 
Q 3097 3894 2941 3959 
Q 2816 4006 2500 4006 
L 1338 4006 
z
" transform="scale(0.015625)"/>
        <path id="TimesNewRomanPSMT-4d" d="M 2619 0 
L 981 3566 
L 981 734 
Q 981 344 1066 247 
Q 1181 116 1431 116 
L 1581 116 
L 1581 0 
L 106 0 
L 106 116 
L 256 116 
Q 525 116 638 278 
Q 706 378 706 734 
L 706 3503 
Q 706 3784 644 3909 
Q 600 4000 483 4061 
Q 366 4122 106 4122 
L 106 4238 
L 1306 4238 
L 2844 922 
L 4356 4238 
L 5556 4238 
L 5556 4122 
L 5409 4122 
Q 5138 4122 5025 3959 
Q 4956 3859 4956 3503 
L 4956 734 
Q 4956 344 5044 247 
Q 5159 116 5409 116 
L 5556 116 
L 5556 0 
L 3756 0 
L 3756 116 
L 3906 116 
Q 4178 116 4288 278 
Q 4356 378 4356 734 
L 4356 3566 
L 2722 0 
L 2619 0 
z
" transform="scale(0.015625)"/>
        <path id="TimesNewRomanPSMT-50" d="M 1313 1984 
L 1313 750 
Q 1313 350 1400 253 
Q 1519 116 1759 116 
L 1922 116 
L 1922 0 
L 106 0 
L 106 116 
L 266 116 
Q 534 116 650 291 
Q 713 388 713 750 
L 713 3488 
Q 713 3888 628 3984 
Q 506 4122 266 4122 
L 106 4122 
L 106 4238 
L 1659 4238 
Q 2228 4238 2556 4120 
Q 2884 4003 3109 3725 
Q 3334 3447 3334 3066 
Q 3334 2547 2992 2222 
Q 2650 1897 2025 1897 
Q 1872 1897 1694 1919 
Q 1516 1941 1313 1984 
z
M 1313 2163 
Q 1478 2131 1606 2115 
Q 1734 2100 1825 2100 
Q 2150 2100 2386 2351 
Q 2622 2603 2622 3003 
Q 2622 3278 2509 3514 
Q 2397 3750 2190 3867 
Q 1984 3984 1722 3984 
Q 1563 3984 1313 3925 
L 1313 2163 
z
" transform="scale(0.015625)"/>
        <path id="TimesNewRomanPSMT-54" d="M 3703 4238 
L 3750 3244 
L 3631 3244 
Q 3597 3506 3538 3619 
Q 3441 3800 3280 3886 
Q 3119 3972 2856 3972 
L 2259 3972 
L 2259 734 
Q 2259 344 2344 247 
Q 2463 116 2709 116 
L 2856 116 
L 2856 0 
L 1059 0 
L 1059 116 
L 1209 116 
Q 1478 116 1591 278 
Q 1659 378 1659 734 
L 1659 3972 
L 1150 3972 
Q 853 3972 728 3928 
Q 566 3869 450 3700 
Q 334 3531 313 3244 
L 194 3244 
L 244 4238 
L 3703 4238 
z
" transform="scale(0.015625)"/>
        <path id="TimesNewRomanPSMT-59" d="M 3050 4238 
L 4528 4238 
L 4528 4122 
L 4447 4122 
Q 4366 4122 4209 4050 
Q 4053 3978 3925 3843 
Q 3797 3709 3609 3406 
L 2588 1797 
L 2588 734 
Q 2588 344 2675 247 
Q 2794 116 3050 116 
L 3188 116 
L 3188 0 
L 1388 0 
L 1388 116 
L 1538 116 
Q 1806 116 1919 278 
Q 1988 378 1988 734 
L 1988 1738 
L 825 3513 
Q 619 3825 545 3903 
Q 472 3981 241 4091 
Q 178 4122 59 4122 
L 59 4238 
L 1872 4238 
L 1872 4122 
L 1778 4122 
Q 1631 4122 1507 4053 
Q 1384 3984 1384 3847 
Q 1384 3734 1575 3441 
L 2459 2075 
L 3291 3381 
Q 3478 3675 3478 3819 
Q 3478 3906 3433 3975 
Q 3388 4044 3303 4083 
Q 3219 4122 3050 4122 
L 3050 4238 
z
" transform="scale(0.015625)"/>
        <path id="TimesNewRomanPSMT-5d" d="M 234 4334 
L 1609 4334 
L 1609 -1272 
L 234 -1272 
L 234 -1025 
L 1141 -1025 
L 1141 4088 
L 234 4088 
L 234 4334 
z
" transform="scale(0.015625)"/>
       </defs>
       <use xlink:href="#TimesNewRomanPSMT-5b"/>
       <use xlink:href="#TimesNewRomanPSMT-45" x="33.300781"/>
       <use xlink:href="#TimesNewRomanPSMT-4d" x="94.384766"/>
       <use xlink:href="#TimesNewRomanPSMT-50" x="183.300781"/>
       <use xlink:href="#TimesNewRomanPSMT-54" x="238.916016"/>
       <use xlink:href="#TimesNewRomanPSMT-59" x="300"/>
       <use xlink:href="#TimesNewRomanPSMT-5d" x="372.216797"/>
      </g>
     </g>
    </g>
    <g id="xtick_25">
     <g id="line2d_25">
      <g>
       <use xlink:href="#mdb59091e19" x="461.06035" y="768.24" style="stroke: #000000; stroke-width: 0.8"/>
      </g>
     </g>
     <g id="text_25">
      <!-- helpful -->
      <g transform="translate(456.736132 775.24)rotate(-270)scale(0.18 -0.18)">
       <use xlink:href="#TimesNewRomanPSMT-68"/>
       <use xlink:href="#TimesNewRomanPSMT-65" x="50"/>
       <use xlink:href="#TimesNewRomanPSMT-6c" x="94.384766"/>
       <use xlink:href="#TimesNewRomanPSMT-70" x="122.167969"/>
       <use xlink:href="#TimesNewRomanPSMT-66" x="172.167969"/>
       <use xlink:href="#TimesNewRomanPSMT-75" x="205.46875"/>
       <use xlink:href="#TimesNewRomanPSMT-6c" x="255.46875"/>
      </g>
     </g>
    </g>
    <g id="xtick_26">
     <g id="line2d_26">
      <g>
       <use xlink:href="#mdb59091e19" x="476.33965" y="768.24" style="stroke: #000000; stroke-width: 0.8"/>
      </g>
     </g>
     <g id="text_26">
      <!-- tired -->
      <g transform="translate(472.015431 775.24)rotate(-270)scale(0.18 -0.18)">
       <use xlink:href="#TimesNewRomanPSMT-74"/>
       <use xlink:href="#TimesNewRomanPSMT-69" x="27.783203"/>
       <use xlink:href="#TimesNewRomanPSMT-72" x="55.566406"/>
       <use xlink:href="#TimesNewRomanPSMT-65" x="88.867188"/>
       <use xlink:href="#TimesNewRomanPSMT-64" x="133.251953"/>
      </g>
     </g>
    </g>
    <g id="xtick_27">
     <g id="line2d_27">
      <g>
       <use xlink:href="#mdb59091e19" x="491.618949" y="768.24" style="stroke: #000000; stroke-width: 0.8"/>
      </g>
     </g>
     <g id="text_27">
      <!-- curious -->
      <g transform="translate(487.29473 775.24)rotate(-270)scale(0.18 -0.18)">
       <use xlink:href="#TimesNewRomanPSMT-63"/>
       <use xlink:href="#TimesNewRomanPSMT-75" x="44.384766"/>
       <use xlink:href="#TimesNewRomanPSMT-72" x="94.384766"/>
       <use xlink:href="#TimesNewRomanPSMT-69" x="127.685547"/>
       <use xlink:href="#TimesNewRomanPSMT-6f" x="155.46875"/>
       <use xlink:href="#TimesNewRomanPSMT-75" x="205.46875"/>
       <use xlink:href="#TimesNewRomanPSMT-73" x="255.46875"/>
      </g>
     </g>
    </g>
    <g id="xtick_28">
     <g id="line2d_28">
      <g>
       <use xlink:href="#mdb59091e19" x="506.898248" y="768.24" style="stroke: #000000; stroke-width: 0.8"/>
      </g>
     </g>
     <g id="text_28">
      <!-- afraid -->
      <g transform="translate(502.574029 775.24)rotate(-270)scale(0.18 -0.18)">
       <use xlink:href="#TimesNewRomanPSMT-61"/>
       <use xlink:href="#TimesNewRomanPSMT-66" x="44.384766"/>
       <use xlink:href="#TimesNewRomanPSMT-72" x="77.685547"/>
       <use xlink:href="#TimesNewRomanPSMT-61" x="110.986328"/>
       <use xlink:href="#TimesNewRomanPSMT-69" x="155.371094"/>
       <use xlink:href="#TimesNewRomanPSMT-64" x="183.154297"/>
      </g>
     </g>
    </g>
    <g id="xtick_29">
     <g id="line2d_29">
      <g>
       <use xlink:href="#mdb59091e19" x="522.177547" y="768.24" style="stroke: #000000; stroke-width: 0.8"/>
      </g>
     </g>
     <g id="text_29">
      <!-- confused -->
      <g transform="translate(517.853328 775.24)rotate(-270)scale(0.18 -0.18)">
       <use xlink:href="#TimesNewRomanPSMT-63"/>
       <use xlink:href="#TimesNewRomanPSMT-6f" x="44.384766"/>
       <use xlink:href="#TimesNewRomanPSMT-6e" x="94.384766"/>
       <use xlink:href="#TimesNewRomanPSMT-66" x="144.384766"/>
       <use xlink:href="#TimesNewRomanPSMT-75" x="177.685547"/>
       <use xlink:href="#TimesNewRomanPSMT-73" x="227.685547"/>
       <use xlink:href="#TimesNewRomanPSMT-65" x="266.601562"/>
       <use xlink:href="#TimesNewRomanPSMT-64" x="310.986328"/>
      </g>
     </g>
    </g>
    <g id="xtick_30">
     <g id="line2d_30">
      <g>
       <use xlink:href="#mdb59091e19" x="537.456846" y="768.24" style="stroke: #000000; stroke-width: 0.8"/>
      </g>
     </g>
     <g id="text_30">
      <!-- joy -->
      <g transform="translate(533.145283 775.24)rotate(-270)scale(0.18 -0.18)">
       <defs>
        <path id="TimesNewRomanPSMT-6a" d="M 925 4447 
Q 1059 4447 1153 4353 
Q 1247 4259 1247 4125 
Q 1247 3994 1153 3900 
Q 1059 3806 925 3806 
Q 794 3806 700 3900 
Q 606 3994 606 4125 
Q 606 4259 700 4353 
Q 794 4447 925 4447 
z
M 1194 2947 
L 1194 66 
Q 1194 -669 881 -1025 
Q 569 -1381 69 -1381 
Q -216 -1381 -353 -1278 
Q -491 -1175 -491 -1066 
Q -491 -956 -414 -878 
Q -338 -800 -234 -800 
Q -153 -800 -69 -841 
Q -16 -863 136 -998 
Q 288 -1134 391 -1134 
Q 466 -1134 537 -1076 
Q 609 -1019 643 -883 
Q 678 -747 678 -294 
L 678 1744 
Q 678 2216 650 2350 
Q 628 2453 581 2492 
Q 534 2531 453 2531 
Q 366 2531 241 2484 
L 197 2597 
L 1059 2947 
L 1194 2947 
z
" transform="scale(0.015625)"/>
       </defs>
       <use xlink:href="#TimesNewRomanPSMT-6a"/>
       <use xlink:href="#TimesNewRomanPSMT-6f" x="27.783203"/>
       <use xlink:href="#TimesNewRomanPSMT-79" x="77.783203"/>
      </g>
     </g>
    </g>
    <g id="xtick_31">
     <g id="line2d_31">
      <g>
       <use xlink:href="#mdb59091e19" x="552.736145" y="768.24" style="stroke: #000000; stroke-width: 0.8"/>
      </g>
     </g>
     <g id="text_31">
      <!-- hungry -->
      <g transform="translate(548.428801 775.24)rotate(-270)scale(0.18 -0.18)">
       <use xlink:href="#TimesNewRomanPSMT-68"/>
       <use xlink:href="#TimesNewRomanPSMT-75" x="50"/>
       <use xlink:href="#TimesNewRomanPSMT-6e" x="100"/>
       <use xlink:href="#TimesNewRomanPSMT-67" x="150"/>
       <use xlink:href="#TimesNewRomanPSMT-72" x="200"/>
       <use xlink:href="#TimesNewRomanPSMT-79" x="233.300781"/>
      </g>
     </g>
    </g>
    <g id="xtick_32">
     <g id="line2d_32">
      <g>
       <use xlink:href="#mdb59091e19" x="568.015444" y="768.24" style="stroke: #000000; stroke-width: 0.8"/>
      </g>
     </g>
     <g id="text_32">
      <!-- positive -->
      <g transform="translate(563.691225 775.24)rotate(-270)scale(0.18 -0.18)">
       <use xlink:href="#TimesNewRomanPSMT-70"/>
       <use xlink:href="#TimesNewRomanPSMT-6f" x="50"/>
       <use xlink:href="#TimesNewRomanPSMT-73" x="100"/>
       <use xlink:href="#TimesNewRomanPSMT-69" x="138.916016"/>
       <use xlink:href="#TimesNewRomanPSMT-74" x="166.699219"/>
       <use xlink:href="#TimesNewRomanPSMT-69" x="194.482422"/>
       <use xlink:href="#TimesNewRomanPSMT-76" x="222.265625"/>
       <use xlink:href="#TimesNewRomanPSMT-65" x="272.265625"/>
      </g>
     </g>
    </g>
    <g id="xtick_33">
     <g id="line2d_33">
      <g>
       <use xlink:href="#mdb59091e19" x="583.294743" y="768.24" style="stroke: #000000; stroke-width: 0.8"/>
      </g>
     </g>
     <g id="text_33">
      <!-- ashamed -->
      <g transform="translate(578.970524 775.24)rotate(-270)scale(0.18 -0.18)">
       <use xlink:href="#TimesNewRomanPSMT-61"/>
       <use xlink:href="#TimesNewRomanPSMT-73" x="44.384766"/>
       <use xlink:href="#TimesNewRomanPSMT-68" x="83.300781"/>
       <use xlink:href="#TimesNewRomanPSMT-61" x="133.300781"/>
       <use xlink:href="#TimesNewRomanPSMT-6d" x="177.685547"/>
       <use xlink:href="#TimesNewRomanPSMT-65" x="255.46875"/>
       <use xlink:href="#TimesNewRomanPSMT-64" x="299.853516"/>
      </g>
     </g>
    </g>
    <g id="xtick_34">
     <g id="line2d_34">
      <g>
       <use xlink:href="#mdb59091e19" x="598.574042" y="768.24" style="stroke: #000000; stroke-width: 0.8"/>
      </g>
     </g>
     <g id="text_34">
      <!-- guilty -->
      <g transform="translate(594.266698 775.24)rotate(-270)scale(0.18 -0.18)">
       <use xlink:href="#TimesNewRomanPSMT-67"/>
       <use xlink:href="#TimesNewRomanPSMT-75" x="50"/>
       <use xlink:href="#TimesNewRomanPSMT-69" x="100"/>
       <use xlink:href="#TimesNewRomanPSMT-6c" x="127.783203"/>
       <use xlink:href="#TimesNewRomanPSMT-74" x="155.566406"/>
       <use xlink:href="#TimesNewRomanPSMT-79" x="183.349609"/>
      </g>
     </g>
    </g>
    <g id="xtick_35">
     <g id="line2d_35">
      <g>
       <use xlink:href="#mdb59091e19" x="613.853341" y="768.24" style="stroke: #000000; stroke-width: 0.8"/>
      </g>
     </g>
     <g id="text_35">
      <!-- eager -->
      <g transform="translate(609.562872 775.24)rotate(-270)scale(0.18 -0.18)">
       <use xlink:href="#TimesNewRomanPSMT-65"/>
       <use xlink:href="#TimesNewRomanPSMT-61" x="44.384766"/>
       <use xlink:href="#TimesNewRomanPSMT-67" x="88.769531"/>
       <use xlink:href="#TimesNewRomanPSMT-65" x="138.769531"/>
       <use xlink:href="#TimesNewRomanPSMT-72" x="183.154297"/>
      </g>
     </g>
    </g>
    <g id="xtick_36">
     <g id="line2d_36">
      <g>
       <use xlink:href="#mdb59091e19" x="629.13264" y="768.24" style="stroke: #000000; stroke-width: 0.8"/>
      </g>
     </g>
     <g id="text_36">
      <!-- relaxed -->
      <g transform="translate(624.808421 775.24)rotate(-270)scale(0.18 -0.18)">
       <use xlink:href="#TimesNewRomanPSMT-72"/>
       <use xlink:href="#TimesNewRomanPSMT-65" x="33.300781"/>
       <use xlink:href="#TimesNewRomanPSMT-6c" x="77.685547"/>
       <use xlink:href="#TimesNewRomanPSMT-61" x="105.46875"/>
       <use xlink:href="#TimesNewRomanPSMT-78" x="149.853516"/>
       <use xlink:href="#TimesNewRomanPSMT-65" x="199.853516"/>
       <use xlink:href="#TimesNewRomanPSMT-64" x="244.238281"/>
      </g>
     </g>
    </g>
    <g id="xtick_37">
     <g id="line2d_37">
      <g>
       <use xlink:href="#mdb59091e19" x="644.411939" y="768.24" style="stroke: #000000; stroke-width: 0.8"/>
      </g>
     </g>
     <g id="text_37">
      <!-- confident -->
      <g transform="translate(640.08772 775.24)rotate(-270)scale(0.18 -0.18)">
       <use xlink:href="#TimesNewRomanPSMT-63"/>
       <use xlink:href="#TimesNewRomanPSMT-6f" x="44.384766"/>
       <use xlink:href="#TimesNewRomanPSMT-6e" x="94.384766"/>
       <use xlink:href="#TimesNewRomanPSMT-66" x="144.384766"/>
       <use xlink:href="#TimesNewRomanPSMT-69" x="177.685547"/>
       <use xlink:href="#TimesNewRomanPSMT-64" x="205.46875"/>
       <use xlink:href="#TimesNewRomanPSMT-65" x="255.46875"/>
       <use xlink:href="#TimesNewRomanPSMT-6e" x="299.853516"/>
       <use xlink:href="#TimesNewRomanPSMT-74" x="349.853516"/>
      </g>
     </g>
    </g>
    <g id="xtick_38">
     <g id="line2d_38">
      <g>
       <use xlink:href="#mdb59091e19" x="659.691238" y="768.24" style="stroke: #000000; stroke-width: 0.8"/>
      </g>
     </g>
     <g id="text_38">
      <!-- shocked -->
      <g transform="translate(655.367019 775.24)rotate(-270)scale(0.18 -0.18)">
       <defs>
        <path id="TimesNewRomanPSMT-6b" d="M 1047 4444 
L 1047 1597 
L 1775 2259 
Q 2006 2472 2044 2528 
Q 2069 2566 2069 2603 
Q 2069 2666 2017 2711 
Q 1966 2756 1847 2763 
L 1847 2863 
L 3091 2863 
L 3091 2763 
Q 2834 2756 2664 2684 
Q 2494 2613 2291 2428 
L 1556 1750 
L 2291 822 
Q 2597 438 2703 334 
Q 2853 188 2966 144 
Q 3044 113 3238 113 
L 3238 0 
L 1847 0 
L 1847 113 
Q 1966 116 2008 148 
Q 2050 181 2050 241 
Q 2050 313 1925 472 
L 1047 1594 
L 1047 644 
Q 1047 366 1086 278 
Q 1125 191 1197 153 
Q 1269 116 1509 113 
L 1509 0 
L 53 0 
L 53 113 
Q 272 113 381 166 
Q 447 200 481 272 
Q 528 375 528 628 
L 528 3234 
Q 528 3731 506 3842 
Q 484 3953 434 3995 
Q 384 4038 303 4038 
Q 238 4038 106 3984 
L 53 4094 
L 903 4444 
L 1047 4444 
z
" transform="scale(0.015625)"/>
       </defs>
       <use xlink:href="#TimesNewRomanPSMT-73"/>
       <use xlink:href="#TimesNewRomanPSMT-68" x="38.916016"/>
       <use xlink:href="#TimesNewRomanPSMT-6f" x="88.916016"/>
       <use xlink:href="#TimesNewRomanPSMT-63" x="138.916016"/>
       <use xlink:href="#TimesNewRomanPSMT-6b" x="183.300781"/>
       <use xlink:href="#TimesNewRomanPSMT-65" x="233.300781"/>
       <use xlink:href="#TimesNewRomanPSMT-64" x="277.685547"/>
      </g>
     </g>
    </g>
    <g id="xtick_39">
     <g id="line2d_39">
      <g>
       <use xlink:href="#mdb59091e19" x="674.970537" y="768.24" style="stroke: #000000; stroke-width: 0.8"/>
      </g>
     </g>
     <g id="text_39">
      <!-- loved -->
      <g transform="translate(670.646318 775.24)rotate(-270)scale(0.18 -0.18)">
       <use xlink:href="#TimesNewRomanPSMT-6c"/>
       <use xlink:href="#TimesNewRomanPSMT-6f" x="27.783203"/>
       <use xlink:href="#TimesNewRomanPSMT-76" x="77.783203"/>
       <use xlink:href="#TimesNewRomanPSMT-65" x="127.783203"/>
       <use xlink:href="#TimesNewRomanPSMT-64" x="172.167969"/>
      </g>
     </g>
    </g>
    <g id="xtick_40">
     <g id="line2d_40">
      <g>
       <use xlink:href="#mdb59091e19" x="690.249836" y="768.24" style="stroke: #000000; stroke-width: 0.8"/>
      </g>
     </g>
     <g id="text_40">
      <!-- fear -->
      <g transform="translate(685.925617 775.24)rotate(-270)scale(0.18 -0.18)">
       <use xlink:href="#TimesNewRomanPSMT-66"/>
       <use xlink:href="#TimesNewRomanPSMT-65" x="33.300781"/>
       <use xlink:href="#TimesNewRomanPSMT-61" x="77.685547"/>
       <use xlink:href="#TimesNewRomanPSMT-72" x="122.070312"/>
      </g>
     </g>
    </g>
    <g id="xtick_41">
     <g id="line2d_41">
      <g>
       <use xlink:href="#mdb59091e19" x="705.529135" y="768.24" style="stroke: #000000; stroke-width: 0.8"/>
      </g>
     </g>
     <g id="text_41">
      <!-- anger -->
      <g transform="translate(701.238666 775.24)rotate(-270)scale(0.18 -0.18)">
       <use xlink:href="#TimesNewRomanPSMT-61"/>
       <use xlink:href="#TimesNewRomanPSMT-6e" x="44.384766"/>
       <use xlink:href="#TimesNewRomanPSMT-67" x="94.384766"/>
       <use xlink:href="#TimesNewRomanPSMT-65" x="144.384766"/>
       <use xlink:href="#TimesNewRomanPSMT-72" x="188.769531"/>
      </g>
     </g>
    </g>
    <g id="xtick_42">
     <g id="line2d_42">
      <g>
       <use xlink:href="#mdb59091e19" x="720.808434" y="768.24" style="stroke: #000000; stroke-width: 0.8"/>
      </g>
     </g>
     <g id="text_42">
      <!-- thankful -->
      <g transform="translate(716.484215 775.24)rotate(-270)scale(0.18 -0.18)">
       <use xlink:href="#TimesNewRomanPSMT-74"/>
       <use xlink:href="#TimesNewRomanPSMT-68" x="27.783203"/>
       <use xlink:href="#TimesNewRomanPSMT-61" x="77.783203"/>
       <use xlink:href="#TimesNewRomanPSMT-6e" x="122.167969"/>
       <use xlink:href="#TimesNewRomanPSMT-6b" x="172.167969"/>
       <use xlink:href="#TimesNewRomanPSMT-66" x="222.167969"/>
       <use xlink:href="#TimesNewRomanPSMT-75" x="255.46875"/>
       <use xlink:href="#TimesNewRomanPSMT-6c" x="305.46875"/>
      </g>
     </g>
    </g>
    <g id="xtick_43">
     <g id="line2d_43">
      <g>
       <use xlink:href="#mdb59091e19" x="736.087733" y="768.24" style="stroke: #000000; stroke-width: 0.8"/>
      </g>
     </g>
     <g id="text_43">
      <!-- disgusted -->
      <g transform="translate(731.780389 775.24)rotate(-270)scale(0.18 -0.18)">
       <use xlink:href="#TimesNewRomanPSMT-64"/>
       <use xlink:href="#TimesNewRomanPSMT-69" x="50"/>
       <use xlink:href="#TimesNewRomanPSMT-73" x="77.783203"/>
       <use xlink:href="#TimesNewRomanPSMT-67" x="116.699219"/>
       <use xlink:href="#TimesNewRomanPSMT-75" x="166.699219"/>
       <use xlink:href="#TimesNewRomanPSMT-73" x="216.699219"/>
       <use xlink:href="#TimesNewRomanPSMT-74" x="255.615234"/>
       <use xlink:href="#TimesNewRomanPSMT-65" x="283.398438"/>
       <use xlink:href="#TimesNewRomanPSMT-64" x="327.783203"/>
      </g>
     </g>
    </g>
    <g id="xtick_44">
     <g id="line2d_44">
      <g>
       <use xlink:href="#mdb59091e19" x="751.367032" y="768.24" style="stroke: #000000; stroke-width: 0.8"/>
      </g>
     </g>
     <g id="text_44">
      <!-- bored -->
      <g transform="translate(747.042813 775.24)rotate(-270)scale(0.18 -0.18)">
       <use xlink:href="#TimesNewRomanPSMT-62"/>
       <use xlink:href="#TimesNewRomanPSMT-6f" x="50"/>
       <use xlink:href="#TimesNewRomanPSMT-72" x="100"/>
       <use xlink:href="#TimesNewRomanPSMT-65" x="133.300781"/>
       <use xlink:href="#TimesNewRomanPSMT-64" x="177.685547"/>
      </g>
     </g>
    </g>
    <g id="xtick_45">
     <g id="line2d_45">
      <g>
       <use xlink:href="#mdb59091e19" x="766.646331" y="768.24" style="stroke: #000000; stroke-width: 0.8"/>
      </g>
     </g>
     <g id="text_45">
      <!-- concerned -->
      <g transform="translate(762.322112 775.24)rotate(-270)scale(0.18 -0.18)">
       <use xlink:href="#TimesNewRomanPSMT-63"/>
       <use xlink:href="#TimesNewRomanPSMT-6f" x="44.384766"/>
       <use xlink:href="#TimesNewRomanPSMT-6e" x="94.384766"/>
       <use xlink:href="#TimesNewRomanPSMT-63" x="144.384766"/>
       <use xlink:href="#TimesNewRomanPSMT-65" x="188.769531"/>
       <use xlink:href="#TimesNewRomanPSMT-72" x="233.154297"/>
       <use xlink:href="#TimesNewRomanPSMT-6e" x="266.455078"/>
       <use xlink:href="#TimesNewRomanPSMT-65" x="316.455078"/>
       <use xlink:href="#TimesNewRomanPSMT-64" x="360.839844"/>
      </g>
     </g>
    </g>
    <g id="xtick_46">
     <g id="line2d_46">
      <g>
       <use xlink:href="#mdb59091e19" x="781.92563" y="768.24" style="stroke: #000000; stroke-width: 0.8"/>
      </g>
     </g>
     <g id="text_46">
      <!-- amused -->
      <g transform="translate(777.601411 775.24)rotate(-270)scale(0.18 -0.18)">
       <use xlink:href="#TimesNewRomanPSMT-61"/>
       <use xlink:href="#TimesNewRomanPSMT-6d" x="44.384766"/>
       <use xlink:href="#TimesNewRomanPSMT-75" x="122.167969"/>
       <use xlink:href="#TimesNewRomanPSMT-73" x="172.167969"/>
       <use xlink:href="#TimesNewRomanPSMT-65" x="211.083984"/>
       <use xlink:href="#TimesNewRomanPSMT-64" x="255.46875"/>
      </g>
     </g>
    </g>
    <g id="xtick_47">
     <g id="line2d_47">
      <g>
       <use xlink:href="#mdb59091e19" x="797.204929" y="768.24" style="stroke: #000000; stroke-width: 0.8"/>
      </g>
     </g>
     <g id="text_47">
      <!-- pleased -->
      <g transform="translate(792.88071 775.24)rotate(-270)scale(0.18 -0.18)">
       <use xlink:href="#TimesNewRomanPSMT-70"/>
       <use xlink:href="#TimesNewRomanPSMT-6c" x="50"/>
       <use xlink:href="#TimesNewRomanPSMT-65" x="77.783203"/>
       <use xlink:href="#TimesNewRomanPSMT-61" x="122.167969"/>
       <use xlink:href="#TimesNewRomanPSMT-73" x="166.552734"/>
       <use xlink:href="#TimesNewRomanPSMT-65" x="205.46875"/>
       <use xlink:href="#TimesNewRomanPSMT-64" x="249.853516"/>
      </g>
     </g>
    </g>
    <g id="xtick_48">
     <g id="line2d_48">
      <g>
       <use xlink:href="#mdb59091e19" x="812.484228" y="768.24" style="stroke: #000000; stroke-width: 0.8"/>
      </g>
     </g>
     <g id="text_48">
      <!-- interested -->
      <g transform="translate(808.160009 775.24)rotate(-270)scale(0.18 -0.18)">
       <use xlink:href="#TimesNewRomanPSMT-69"/>
       <use xlink:href="#TimesNewRomanPSMT-6e" x="27.783203"/>
       <use xlink:href="#TimesNewRomanPSMT-74" x="77.783203"/>
       <use xlink:href="#TimesNewRomanPSMT-65" x="105.566406"/>
       <use xlink:href="#TimesNewRomanPSMT-72" x="149.951172"/>
       <use xlink:href="#TimesNewRomanPSMT-65" x="183.251953"/>
       <use xlink:href="#TimesNewRomanPSMT-73" x="227.636719"/>
       <use xlink:href="#TimesNewRomanPSMT-74" x="266.552734"/>
       <use xlink:href="#TimesNewRomanPSMT-65" x="294.335938"/>
       <use xlink:href="#TimesNewRomanPSMT-64" x="338.720703"/>
      </g>
     </g>
    </g>
    <g id="xtick_49">
     <g id="line2d_49">
      <g>
       <use xlink:href="#mdb59091e19" x="827.763527" y="768.24" style="stroke: #000000; stroke-width: 0.8"/>
      </g>
     </g>
     <g id="text_49">
      <!-- depressed -->
      <g transform="translate(823.439308 775.24)rotate(-270)scale(0.18 -0.18)">
       <use xlink:href="#TimesNewRomanPSMT-64"/>
       <use xlink:href="#TimesNewRomanPSMT-65" x="50"/>
       <use xlink:href="#TimesNewRomanPSMT-70" x="94.384766"/>
       <use xlink:href="#TimesNewRomanPSMT-72" x="144.384766"/>
       <use xlink:href="#TimesNewRomanPSMT-65" x="177.685547"/>
       <use xlink:href="#TimesNewRomanPSMT-73" x="222.070312"/>
       <use xlink:href="#TimesNewRomanPSMT-73" x="260.986328"/>
       <use xlink:href="#TimesNewRomanPSMT-65" x="299.902344"/>
       <use xlink:href="#TimesNewRomanPSMT-64" x="344.287109"/>
      </g>
     </g>
    </g>
    <g id="xtick_50">
     <g id="line2d_50">
      <g>
       <use xlink:href="#mdb59091e19" x="843.042826" y="768.24" style="stroke: #000000; stroke-width: 0.8"/>
      </g>
     </g>
     <g id="text_50">
      <!-- surprise -->
      <g transform="translate(838.718607 775.24)rotate(-270)scale(0.18 -0.18)">
       <use xlink:href="#TimesNewRomanPSMT-73"/>
       <use xlink:href="#TimesNewRomanPSMT-75" x="38.916016"/>
       <use xlink:href="#TimesNewRomanPSMT-72" x="88.916016"/>
       <use xlink:href="#TimesNewRomanPSMT-70" x="122.216797"/>
       <use xlink:href="#TimesNewRomanPSMT-72" x="172.216797"/>
       <use xlink:href="#TimesNewRomanPSMT-69" x="205.517578"/>
       <use xlink:href="#TimesNewRomanPSMT-73" x="233.300781"/>
       <use xlink:href="#TimesNewRomanPSMT-65" x="272.216797"/>
      </g>
     </g>
    </g>
   </g>
   <g id="matplotlib.axis_2">
    <g id="ytick_1">
     <g id="line2d_51">
      <defs>
       <path id="m48876c7b6a" d="M 0 0 
L -3.5 0 
" style="stroke: #000000; stroke-width: 0.8"/>
      </defs>
      <g>
       <use xlink:href="#m48876c7b6a" x="50.2" y="768.24" style="stroke: #000000; stroke-width: 0.8"/>
      </g>
     </g>
     <g id="text_51">
      <!-- 0 -->
      <g transform="translate(34.2 774.489375)scale(0.18 -0.18)">
       <defs>
        <path id="TimesNewRomanPSMT-30" d="M 231 2094 
Q 231 2819 450 3342 
Q 669 3866 1031 4122 
Q 1313 4325 1613 4325 
Q 2100 4325 2488 3828 
Q 2972 3213 2972 2159 
Q 2972 1422 2759 906 
Q 2547 391 2217 158 
Q 1888 -75 1581 -75 
Q 975 -75 572 641 
Q 231 1244 231 2094 
z
M 844 2016 
Q 844 1141 1059 588 
Q 1238 122 1591 122 
Q 1759 122 1940 273 
Q 2122 425 2216 781 
Q 2359 1319 2359 2297 
Q 2359 3022 2209 3506 
Q 2097 3866 1919 4016 
Q 1791 4119 1609 4119 
Q 1397 4119 1231 3928 
Q 1006 3669 925 3112 
Q 844 2556 844 2016 
z
" transform="scale(0.015625)"/>
       </defs>
       <use xlink:href="#TimesNewRomanPSMT-30"/>
      </g>
     </g>
    </g>
    <g id="ytick_2">
     <g id="line2d_52">
      <g>
       <use xlink:href="#m48876c7b6a" x="50.2" y="619.80666" style="stroke: #000000; stroke-width: 0.8"/>
      </g>
     </g>
     <g id="text_52">
      <!-- 1000 -->
      <g transform="translate(7.2 626.056035)scale(0.18 -0.18)">
       <defs>
        <path id="TimesNewRomanPSMT-31" d="M 750 3822 
L 1781 4325 
L 1884 4325 
L 1884 747 
Q 1884 391 1914 303 
Q 1944 216 2037 169 
Q 2131 122 2419 116 
L 2419 0 
L 825 0 
L 825 116 
Q 1125 122 1212 167 
Q 1300 213 1334 289 
Q 1369 366 1369 747 
L 1369 3034 
Q 1369 3497 1338 3628 
Q 1316 3728 1258 3775 
Q 1200 3822 1119 3822 
Q 1003 3822 797 3725 
L 750 3822 
z
" transform="scale(0.015625)"/>
       </defs>
       <use xlink:href="#TimesNewRomanPSMT-31"/>
       <use xlink:href="#TimesNewRomanPSMT-30" x="50"/>
       <use xlink:href="#TimesNewRomanPSMT-30" x="100"/>
       <use xlink:href="#TimesNewRomanPSMT-30" x="150"/>
      </g>
     </g>
    </g>
    <g id="ytick_3">
     <g id="line2d_53">
      <g>
       <use xlink:href="#m48876c7b6a" x="50.2" y="471.37332" style="stroke: #000000; stroke-width: 0.8"/>
      </g>
     </g>
     <g id="text_53">
      <!-- 2000 -->
      <g transform="translate(7.2 477.622695)scale(0.18 -0.18)">
       <defs>
        <path id="TimesNewRomanPSMT-32" d="M 2934 816 
L 2638 0 
L 138 0 
L 138 116 
Q 1241 1122 1691 1759 
Q 2141 2397 2141 2925 
Q 2141 3328 1894 3587 
Q 1647 3847 1303 3847 
Q 991 3847 742 3664 
Q 494 3481 375 3128 
L 259 3128 
Q 338 3706 661 4015 
Q 984 4325 1469 4325 
Q 1984 4325 2329 3994 
Q 2675 3663 2675 3213 
Q 2675 2891 2525 2569 
Q 2294 2063 1775 1497 
Q 997 647 803 472 
L 1909 472 
Q 2247 472 2383 497 
Q 2519 522 2628 598 
Q 2738 675 2819 816 
L 2934 816 
z
" transform="scale(0.015625)"/>
       </defs>
       <use xlink:href="#TimesNewRomanPSMT-32"/>
       <use xlink:href="#TimesNewRomanPSMT-30" x="50"/>
       <use xlink:href="#TimesNewRomanPSMT-30" x="100"/>
       <use xlink:href="#TimesNewRomanPSMT-30" x="150"/>
      </g>
     </g>
    </g>
    <g id="ytick_4">
     <g id="line2d_54">
      <g>
       <use xlink:href="#m48876c7b6a" x="50.2" y="322.93998" style="stroke: #000000; stroke-width: 0.8"/>
      </g>
     </g>
     <g id="text_54">
      <!-- 3000 -->
      <g transform="translate(7.2 329.189355)scale(0.18 -0.18)">
       <defs>
        <path id="TimesNewRomanPSMT-33" d="M 325 3431 
Q 506 3859 782 4092 
Q 1059 4325 1472 4325 
Q 1981 4325 2253 3994 
Q 2459 3747 2459 3466 
Q 2459 3003 1878 2509 
Q 2269 2356 2469 2072 
Q 2669 1788 2669 1403 
Q 2669 853 2319 450 
Q 1863 -75 997 -75 
Q 569 -75 414 31 
Q 259 138 259 259 
Q 259 350 332 419 
Q 406 488 509 488 
Q 588 488 669 463 
Q 722 447 909 348 
Q 1097 250 1169 231 
Q 1284 197 1416 197 
Q 1734 197 1970 444 
Q 2206 691 2206 1028 
Q 2206 1275 2097 1509 
Q 2016 1684 1919 1775 
Q 1784 1900 1550 2001 
Q 1316 2103 1072 2103 
L 972 2103 
L 972 2197 
Q 1219 2228 1467 2375 
Q 1716 2522 1828 2728 
Q 1941 2934 1941 3181 
Q 1941 3503 1739 3701 
Q 1538 3900 1238 3900 
Q 753 3900 428 3381 
L 325 3431 
z
" transform="scale(0.015625)"/>
       </defs>
       <use xlink:href="#TimesNewRomanPSMT-33"/>
       <use xlink:href="#TimesNewRomanPSMT-30" x="50"/>
       <use xlink:href="#TimesNewRomanPSMT-30" x="100"/>
       <use xlink:href="#TimesNewRomanPSMT-30" x="150"/>
      </g>
     </g>
    </g>
    <g id="ytick_5">
     <g id="line2d_55">
      <g>
       <use xlink:href="#m48876c7b6a" x="50.2" y="174.506639" style="stroke: #000000; stroke-width: 0.8"/>
      </g>
     </g>
     <g id="text_55">
      <!-- 4000 -->
      <g transform="translate(7.2 180.756014)scale(0.18 -0.18)">
       <defs>
        <path id="TimesNewRomanPSMT-34" d="M 2978 1563 
L 2978 1119 
L 2409 1119 
L 2409 0 
L 1894 0 
L 1894 1119 
L 100 1119 
L 100 1519 
L 2066 4325 
L 2409 4325 
L 2409 1563 
L 2978 1563 
z
M 1894 1563 
L 1894 3666 
L 406 1563 
L 1894 1563 
z
" transform="scale(0.015625)"/>
       </defs>
       <use xlink:href="#TimesNewRomanPSMT-34"/>
       <use xlink:href="#TimesNewRomanPSMT-30" x="50"/>
       <use xlink:href="#TimesNewRomanPSMT-30" x="100"/>
       <use xlink:href="#TimesNewRomanPSMT-30" x="150"/>
      </g>
     </g>
    </g>
    <g id="ytick_6">
     <g id="line2d_56">
      <g>
       <use xlink:href="#m48876c7b6a" x="50.2" y="26.073299" style="stroke: #000000; stroke-width: 0.8"/>
      </g>
     </g>
     <g id="text_56">
      <!-- 5000 -->
      <g transform="translate(7.2 32.322674)scale(0.18 -0.18)">
       <defs>
        <path id="TimesNewRomanPSMT-35" d="M 2778 4238 
L 2534 3706 
L 1259 3706 
L 981 3138 
Q 1809 3016 2294 2522 
Q 2709 2097 2709 1522 
Q 2709 1188 2573 903 
Q 2438 619 2231 419 
Q 2025 219 1772 97 
Q 1413 -75 1034 -75 
Q 653 -75 479 54 
Q 306 184 306 341 
Q 306 428 378 495 
Q 450 563 559 563 
Q 641 563 702 538 
Q 763 513 909 409 
Q 1144 247 1384 247 
Q 1750 247 2026 523 
Q 2303 800 2303 1197 
Q 2303 1581 2056 1914 
Q 1809 2247 1375 2428 
Q 1034 2569 447 2591 
L 1259 4238 
L 2778 4238 
z
" transform="scale(0.015625)"/>
       </defs>
       <use xlink:href="#TimesNewRomanPSMT-35"/>
       <use xlink:href="#TimesNewRomanPSMT-30" x="50"/>
       <use xlink:href="#TimesNewRomanPSMT-30" x="100"/>
       <use xlink:href="#TimesNewRomanPSMT-30" x="150"/>
      </g>
     </g>
    </g>
   </g>
   <g id="patch_53">
    <path d="M 50.2 768.24 
L 50.2 7.2 
" style="fill: none; stroke: #000000; stroke-width: 0.8; stroke-linejoin: miter; stroke-linecap: square"/>
   </g>
   <g id="patch_54">
    <path d="M 887.2 768.24 
L 887.2 7.2 
" style="fill: none; stroke: #000000; stroke-width: 0.8; stroke-linejoin: miter; stroke-linecap: square"/>
   </g>
   <g id="patch_55">
    <path d="M 50.2 768.24 
L 887.2 768.24 
" style="fill: none; stroke: #000000; stroke-width: 0.8; stroke-linejoin: miter; stroke-linecap: square"/>
   </g>
   <g id="patch_56">
    <path d="M 50.2 7.2 
L 887.2 7.2 
" style="fill: none; stroke: #000000; stroke-width: 0.8; stroke-linejoin: miter; stroke-linecap: square"/>
   </g>
   <g id="text_57">
    <!-- 4884 -->
    <g transform="translate(86.298643 41.171182)rotate(-45)scale(0.15 -0.15)">
     <defs>
      <path id="TimesNewRomanPSMT-38" d="M 1228 2134 
Q 725 2547 579 2797 
Q 434 3047 434 3316 
Q 434 3728 753 4026 
Q 1072 4325 1600 4325 
Q 2113 4325 2425 4047 
Q 2738 3769 2738 3413 
Q 2738 3175 2569 2928 
Q 2400 2681 1866 2347 
Q 2416 1922 2594 1678 
Q 2831 1359 2831 1006 
Q 2831 559 2490 242 
Q 2150 -75 1597 -75 
Q 994 -75 656 303 
Q 388 606 388 966 
Q 388 1247 577 1523 
Q 766 1800 1228 2134 
z
M 1719 2469 
Q 2094 2806 2194 3001 
Q 2294 3197 2294 3444 
Q 2294 3772 2109 3958 
Q 1925 4144 1606 4144 
Q 1288 4144 1088 3959 
Q 888 3775 888 3528 
Q 888 3366 970 3203 
Q 1053 3041 1206 2894 
L 1719 2469 
z
M 1375 2016 
Q 1116 1797 991 1539 
Q 866 1281 866 981 
Q 866 578 1086 336 
Q 1306 94 1647 94 
Q 1984 94 2187 284 
Q 2391 475 2391 747 
Q 2391 972 2272 1150 
Q 2050 1481 1375 2016 
z
" transform="scale(0.015625)"/>
     </defs>
     <use xlink:href="#TimesNewRomanPSMT-34"/>
     <use xlink:href="#TimesNewRomanPSMT-38" x="50"/>
     <use xlink:href="#TimesNewRomanPSMT-38" x="100"/>
     <use xlink:href="#TimesNewRomanPSMT-34" x="150"/>
    </g>
   </g>
   <g id="text_58">
    <!-- 2547 -->
    <g transform="translate(101.577942 388.059898)rotate(-45)scale(0.15 -0.15)">
     <defs>
      <path id="TimesNewRomanPSMT-37" d="M 644 4238 
L 2916 4238 
L 2916 4119 
L 1503 -88 
L 1153 -88 
L 2419 3728 
L 1253 3728 
Q 900 3728 750 3644 
Q 488 3500 328 3200 
L 238 3234 
L 644 4238 
z
" transform="scale(0.015625)"/>
     </defs>
     <use xlink:href="#TimesNewRomanPSMT-32"/>
     <use xlink:href="#TimesNewRomanPSMT-35" x="50"/>
     <use xlink:href="#TimesNewRomanPSMT-34" x="100"/>
     <use xlink:href="#TimesNewRomanPSMT-37" x="150"/>
    </g>
   </g>
   <g id="text_59">
    <!-- 1816 -->
    <g transform="translate(116.857241 496.564669)rotate(-45)scale(0.15 -0.15)">
     <defs>
      <path id="TimesNewRomanPSMT-36" d="M 2869 4325 
L 2869 4209 
Q 2456 4169 2195 4045 
Q 1934 3922 1679 3669 
Q 1425 3416 1258 3105 
Q 1091 2794 978 2366 
Q 1428 2675 1881 2675 
Q 2316 2675 2634 2325 
Q 2953 1975 2953 1425 
Q 2953 894 2631 456 
Q 2244 -75 1606 -75 
Q 1172 -75 869 213 
Q 275 772 275 1663 
Q 275 2231 503 2743 
Q 731 3256 1154 3653 
Q 1578 4050 1965 4187 
Q 2353 4325 2688 4325 
L 2869 4325 
z
M 925 2138 
Q 869 1716 869 1456 
Q 869 1156 980 804 
Q 1091 453 1309 247 
Q 1469 100 1697 100 
Q 1969 100 2183 356 
Q 2397 613 2397 1088 
Q 2397 1622 2184 2012 
Q 1972 2403 1581 2403 
Q 1463 2403 1327 2353 
Q 1191 2303 925 2138 
z
" transform="scale(0.015625)"/>
     </defs>
     <use xlink:href="#TimesNewRomanPSMT-31"/>
     <use xlink:href="#TimesNewRomanPSMT-38" x="50"/>
     <use xlink:href="#TimesNewRomanPSMT-31" x="100"/>
     <use xlink:href="#TimesNewRomanPSMT-36" x="150"/>
    </g>
   </g>
   <g id="text_60">
    <!-- 1326 -->
    <g transform="translate(132.13654 569.297006)rotate(-45)scale(0.15 -0.15)">
     <use xlink:href="#TimesNewRomanPSMT-31"/>
     <use xlink:href="#TimesNewRomanPSMT-33" x="50"/>
     <use xlink:href="#TimesNewRomanPSMT-32" x="100"/>
     <use xlink:href="#TimesNewRomanPSMT-36" x="150"/>
    </g>
   </g>
   <g id="text_61">
    <!-- 1084 -->
    <g transform="translate(147.415839 605.217874)rotate(-45)scale(0.15 -0.15)">
     <use xlink:href="#TimesNewRomanPSMT-31"/>
     <use xlink:href="#TimesNewRomanPSMT-30" x="50"/>
     <use xlink:href="#TimesNewRomanPSMT-38" x="100"/>
     <use xlink:href="#TimesNewRomanPSMT-34" x="150"/>
    </g>
   </g>
   <g id="text_62">
    <!-- 1076 -->
    <g transform="translate(162.695138 606.405341)rotate(-45)scale(0.15 -0.15)">
     <use xlink:href="#TimesNewRomanPSMT-31"/>
     <use xlink:href="#TimesNewRomanPSMT-30" x="50"/>
     <use xlink:href="#TimesNewRomanPSMT-37" x="100"/>
     <use xlink:href="#TimesNewRomanPSMT-36" x="150"/>
    </g>
   </g>
   <g id="text_63">
    <!-- 980 -->
    <g transform="translate(180.626087 620.654942)rotate(-45)scale(0.15 -0.15)">
     <defs>
      <path id="TimesNewRomanPSMT-39" d="M 338 -88 
L 338 28 
Q 744 34 1094 217 
Q 1444 400 1770 856 
Q 2097 1313 2225 1859 
Q 1734 1544 1338 1544 
Q 891 1544 572 1889 
Q 253 2234 253 2806 
Q 253 3363 572 3797 
Q 956 4325 1575 4325 
Q 2097 4325 2469 3894 
Q 2925 3359 2925 2575 
Q 2925 1869 2578 1258 
Q 2231 647 1613 244 
Q 1109 -88 516 -88 
L 338 -88 
z
M 2275 2091 
Q 2331 2497 2331 2741 
Q 2331 3044 2228 3395 
Q 2125 3747 1936 3934 
Q 1747 4122 1506 4122 
Q 1228 4122 1018 3872 
Q 809 3622 809 3128 
Q 809 2469 1088 2097 
Q 1291 1828 1588 1828 
Q 1731 1828 1928 1897 
Q 2125 1966 2275 2091 
z
" transform="scale(0.015625)"/>
     </defs>
     <use xlink:href="#TimesNewRomanPSMT-39"/>
     <use xlink:href="#TimesNewRomanPSMT-38" x="50"/>
     <use xlink:href="#TimesNewRomanPSMT-30" x="100"/>
    </g>
   </g>
   <g id="text_64">
    <!-- 968 -->
    <g transform="translate(195.905386 622.436142)rotate(-45)scale(0.15 -0.15)">
     <use xlink:href="#TimesNewRomanPSMT-39"/>
     <use xlink:href="#TimesNewRomanPSMT-36" x="50"/>
     <use xlink:href="#TimesNewRomanPSMT-38" x="100"/>
    </g>
   </g>
   <g id="text_65">
    <!-- 914 -->
    <g transform="translate(211.184685 630.451542)rotate(-45)scale(0.15 -0.15)">
     <use xlink:href="#TimesNewRomanPSMT-39"/>
     <use xlink:href="#TimesNewRomanPSMT-31" x="50"/>
     <use xlink:href="#TimesNewRomanPSMT-34" x="100"/>
    </g>
   </g>
   <g id="text_66">
    <!-- 896 -->
    <g transform="translate(226.463984 633.123342)rotate(-45)scale(0.15 -0.15)">
     <use xlink:href="#TimesNewRomanPSMT-38"/>
     <use xlink:href="#TimesNewRomanPSMT-39" x="50"/>
     <use xlink:href="#TimesNewRomanPSMT-36" x="100"/>
    </g>
   </g>
   <g id="text_67">
    <!-- 839 -->
    <g transform="translate(241.743283 641.584043)rotate(-45)scale(0.15 -0.15)">
     <use xlink:href="#TimesNewRomanPSMT-38"/>
     <use xlink:href="#TimesNewRomanPSMT-33" x="50"/>
     <use xlink:href="#TimesNewRomanPSMT-39" x="100"/>
    </g>
   </g>
   <g id="text_68">
    <!-- 839 -->
    <g transform="translate(257.022582 641.584043)rotate(-45)scale(0.15 -0.15)">
     <use xlink:href="#TimesNewRomanPSMT-38"/>
     <use xlink:href="#TimesNewRomanPSMT-33" x="50"/>
     <use xlink:href="#TimesNewRomanPSMT-39" x="100"/>
    </g>
   </g>
   <g id="text_69">
    <!-- 808 -->
    <g transform="translate(272.301881 646.185476)rotate(-45)scale(0.15 -0.15)">
     <use xlink:href="#TimesNewRomanPSMT-38"/>
     <use xlink:href="#TimesNewRomanPSMT-30" x="50"/>
     <use xlink:href="#TimesNewRomanPSMT-38" x="100"/>
    </g>
   </g>
   <g id="text_70">
    <!-- 707 -->
    <g transform="translate(287.58118 661.177243)rotate(-45)scale(0.15 -0.15)">
     <use xlink:href="#TimesNewRomanPSMT-37"/>
     <use xlink:href="#TimesNewRomanPSMT-30" x="50"/>
     <use xlink:href="#TimesNewRomanPSMT-37" x="100"/>
    </g>
   </g>
   <g id="text_71">
    <!-- 663 -->
    <g transform="translate(302.860479 667.70831)rotate(-45)scale(0.15 -0.15)">
     <use xlink:href="#TimesNewRomanPSMT-36"/>
     <use xlink:href="#TimesNewRomanPSMT-36" x="50"/>
     <use xlink:href="#TimesNewRomanPSMT-33" x="100"/>
    </g>
   </g>
   <g id="text_72">
    <!-- 643 -->
    <g transform="translate(318.139778 670.676977)rotate(-45)scale(0.15 -0.15)">
     <use xlink:href="#TimesNewRomanPSMT-36"/>
     <use xlink:href="#TimesNewRomanPSMT-34" x="50"/>
     <use xlink:href="#TimesNewRomanPSMT-33" x="100"/>
    </g>
   </g>
   <g id="text_73">
    <!-- 635 -->
    <g transform="translate(333.419077 671.864444)rotate(-45)scale(0.15 -0.15)">
     <use xlink:href="#TimesNewRomanPSMT-36"/>
     <use xlink:href="#TimesNewRomanPSMT-33" x="50"/>
     <use xlink:href="#TimesNewRomanPSMT-35" x="100"/>
    </g>
   </g>
   <g id="text_74">
    <!-- 628 -->
    <g transform="translate(348.698376 672.903477)rotate(-45)scale(0.15 -0.15)">
     <use xlink:href="#TimesNewRomanPSMT-36"/>
     <use xlink:href="#TimesNewRomanPSMT-32" x="50"/>
     <use xlink:href="#TimesNewRomanPSMT-38" x="100"/>
    </g>
   </g>
   <g id="text_75">
    <!-- 586 -->
    <g transform="translate(363.977675 679.137678)rotate(-45)scale(0.15 -0.15)">
     <use xlink:href="#TimesNewRomanPSMT-35"/>
     <use xlink:href="#TimesNewRomanPSMT-38" x="50"/>
     <use xlink:href="#TimesNewRomanPSMT-36" x="100"/>
    </g>
   </g>
   <g id="text_76">
    <!-- 499 -->
    <g transform="translate(379.256974 692.051378)rotate(-45)scale(0.15 -0.15)">
     <use xlink:href="#TimesNewRomanPSMT-34"/>
     <use xlink:href="#TimesNewRomanPSMT-39" x="50"/>
     <use xlink:href="#TimesNewRomanPSMT-39" x="100"/>
    </g>
   </g>
   <g id="text_77">
    <!-- 459 -->
    <g transform="translate(394.536273 697.988712)rotate(-45)scale(0.15 -0.15)">
     <use xlink:href="#TimesNewRomanPSMT-34"/>
     <use xlink:href="#TimesNewRomanPSMT-35" x="50"/>
     <use xlink:href="#TimesNewRomanPSMT-39" x="100"/>
    </g>
   </g>
   <g id="text_78">
    <!-- 427 -->
    <g transform="translate(409.815572 702.738579)rotate(-45)scale(0.15 -0.15)">
     <use xlink:href="#TimesNewRomanPSMT-34"/>
     <use xlink:href="#TimesNewRomanPSMT-32" x="50"/>
     <use xlink:href="#TimesNewRomanPSMT-37" x="100"/>
    </g>
   </g>
   <g id="text_79">
    <!-- 402 -->
    <g transform="translate(425.094872 706.449412)rotate(-45)scale(0.15 -0.15)">
     <use xlink:href="#TimesNewRomanPSMT-34"/>
     <use xlink:href="#TimesNewRomanPSMT-30" x="50"/>
     <use xlink:href="#TimesNewRomanPSMT-32" x="100"/>
    </g>
   </g>
   <g id="text_80">
    <!-- 366 -->
    <g transform="translate(440.374171 711.793012)rotate(-45)scale(0.15 -0.15)">
     <use xlink:href="#TimesNewRomanPSMT-33"/>
     <use xlink:href="#TimesNewRomanPSMT-36" x="50"/>
     <use xlink:href="#TimesNewRomanPSMT-36" x="100"/>
    </g>
   </g>
   <g id="text_81">
    <!-- 355 -->
    <g transform="translate(455.65347 713.425779)rotate(-45)scale(0.15 -0.15)">
     <use xlink:href="#TimesNewRomanPSMT-33"/>
     <use xlink:href="#TimesNewRomanPSMT-35" x="50"/>
     <use xlink:href="#TimesNewRomanPSMT-35" x="100"/>
    </g>
   </g>
   <g id="text_82">
    <!-- 349 -->
    <g transform="translate(470.932769 714.316379)rotate(-45)scale(0.15 -0.15)">
     <use xlink:href="#TimesNewRomanPSMT-33"/>
     <use xlink:href="#TimesNewRomanPSMT-34" x="50"/>
     <use xlink:href="#TimesNewRomanPSMT-39" x="100"/>
    </g>
   </g>
   <g id="text_83">
    <!-- 343 -->
    <g transform="translate(486.212068 715.206979)rotate(-45)scale(0.15 -0.15)">
     <use xlink:href="#TimesNewRomanPSMT-33"/>
     <use xlink:href="#TimesNewRomanPSMT-34" x="50"/>
     <use xlink:href="#TimesNewRomanPSMT-33" x="100"/>
    </g>
   </g>
   <g id="text_84">
    <!-- 338 -->
    <g transform="translate(501.491367 715.949146)rotate(-45)scale(0.15 -0.15)">
     <use xlink:href="#TimesNewRomanPSMT-33"/>
     <use xlink:href="#TimesNewRomanPSMT-33" x="50"/>
     <use xlink:href="#TimesNewRomanPSMT-38" x="100"/>
    </g>
   </g>
   <g id="text_85">
    <!-- 331 -->
    <g transform="translate(516.770666 716.988179)rotate(-45)scale(0.15 -0.15)">
     <use xlink:href="#TimesNewRomanPSMT-33"/>
     <use xlink:href="#TimesNewRomanPSMT-33" x="50"/>
     <use xlink:href="#TimesNewRomanPSMT-31" x="100"/>
    </g>
   </g>
   <g id="text_86">
    <!-- 329 -->
    <g transform="translate(532.049965 717.285046)rotate(-45)scale(0.15 -0.15)">
     <use xlink:href="#TimesNewRomanPSMT-33"/>
     <use xlink:href="#TimesNewRomanPSMT-32" x="50"/>
     <use xlink:href="#TimesNewRomanPSMT-39" x="100"/>
    </g>
   </g>
   <g id="text_87">
    <!-- 315 -->
    <g transform="translate(547.329264 719.363113)rotate(-45)scale(0.15 -0.15)">
     <use xlink:href="#TimesNewRomanPSMT-33"/>
     <use xlink:href="#TimesNewRomanPSMT-31" x="50"/>
     <use xlink:href="#TimesNewRomanPSMT-35" x="100"/>
    </g>
   </g>
   <g id="text_88">
    <!-- 306 -->
    <g transform="translate(562.608563 720.699013)rotate(-45)scale(0.15 -0.15)">
     <use xlink:href="#TimesNewRomanPSMT-33"/>
     <use xlink:href="#TimesNewRomanPSMT-30" x="50"/>
     <use xlink:href="#TimesNewRomanPSMT-36" x="100"/>
    </g>
   </g>
   <g id="text_89">
    <!-- 301 -->
    <g transform="translate(577.887862 721.44118)rotate(-45)scale(0.15 -0.15)">
     <use xlink:href="#TimesNewRomanPSMT-33"/>
     <use xlink:href="#TimesNewRomanPSMT-30" x="50"/>
     <use xlink:href="#TimesNewRomanPSMT-31" x="100"/>
    </g>
   </g>
   <g id="text_90">
    <!-- 300 -->
    <g transform="translate(593.167161 721.589613)rotate(-45)scale(0.15 -0.15)">
     <use xlink:href="#TimesNewRomanPSMT-33"/>
     <use xlink:href="#TimesNewRomanPSMT-30" x="50"/>
     <use xlink:href="#TimesNewRomanPSMT-30" x="100"/>
    </g>
   </g>
   <g id="text_91">
    <!-- 286 -->
    <g transform="translate(608.44646 723.66768)rotate(-45)scale(0.15 -0.15)">
     <use xlink:href="#TimesNewRomanPSMT-32"/>
     <use xlink:href="#TimesNewRomanPSMT-38" x="50"/>
     <use xlink:href="#TimesNewRomanPSMT-36" x="100"/>
    </g>
   </g>
   <g id="text_92">
    <!-- 275 -->
    <g transform="translate(623.725759 725.300446)rotate(-45)scale(0.15 -0.15)">
     <use xlink:href="#TimesNewRomanPSMT-32"/>
     <use xlink:href="#TimesNewRomanPSMT-37" x="50"/>
     <use xlink:href="#TimesNewRomanPSMT-35" x="100"/>
    </g>
   </g>
   <g id="text_93">
    <!-- 275 -->
    <g transform="translate(639.005058 725.300446)rotate(-45)scale(0.15 -0.15)">
     <use xlink:href="#TimesNewRomanPSMT-32"/>
     <use xlink:href="#TimesNewRomanPSMT-37" x="50"/>
     <use xlink:href="#TimesNewRomanPSMT-35" x="100"/>
    </g>
   </g>
   <g id="text_94">
    <!-- 273 -->
    <g transform="translate(654.284357 725.597313)rotate(-45)scale(0.15 -0.15)">
     <use xlink:href="#TimesNewRomanPSMT-32"/>
     <use xlink:href="#TimesNewRomanPSMT-37" x="50"/>
     <use xlink:href="#TimesNewRomanPSMT-33" x="100"/>
    </g>
   </g>
   <g id="text_95">
    <!-- 247 -->
    <g transform="translate(669.563656 729.45658)rotate(-45)scale(0.15 -0.15)">
     <use xlink:href="#TimesNewRomanPSMT-32"/>
     <use xlink:href="#TimesNewRomanPSMT-34" x="50"/>
     <use xlink:href="#TimesNewRomanPSMT-37" x="100"/>
    </g>
   </g>
   <g id="text_96">
    <!-- 236 -->
    <g transform="translate(684.842955 731.089347)rotate(-45)scale(0.15 -0.15)">
     <use xlink:href="#TimesNewRomanPSMT-32"/>
     <use xlink:href="#TimesNewRomanPSMT-33" x="50"/>
     <use xlink:href="#TimesNewRomanPSMT-36" x="100"/>
    </g>
   </g>
   <g id="text_97">
    <!-- 228 -->
    <g transform="translate(700.122254 732.276813)rotate(-45)scale(0.15 -0.15)">
     <use xlink:href="#TimesNewRomanPSMT-32"/>
     <use xlink:href="#TimesNewRomanPSMT-32" x="50"/>
     <use xlink:href="#TimesNewRomanPSMT-38" x="100"/>
    </g>
   </g>
   <g id="text_98">
    <!-- 219 -->
    <g transform="translate(715.401553 733.612713)rotate(-45)scale(0.15 -0.15)">
     <use xlink:href="#TimesNewRomanPSMT-32"/>
     <use xlink:href="#TimesNewRomanPSMT-31" x="50"/>
     <use xlink:href="#TimesNewRomanPSMT-39" x="100"/>
    </g>
   </g>
   <g id="text_99">
    <!-- 217 -->
    <g transform="translate(730.680852 733.90958)rotate(-45)scale(0.15 -0.15)">
     <use xlink:href="#TimesNewRomanPSMT-32"/>
     <use xlink:href="#TimesNewRomanPSMT-31" x="50"/>
     <use xlink:href="#TimesNewRomanPSMT-37" x="100"/>
    </g>
   </g>
   <g id="text_100">
    <!-- 208 -->
    <g transform="translate(745.960151 735.24548)rotate(-45)scale(0.15 -0.15)">
     <use xlink:href="#TimesNewRomanPSMT-32"/>
     <use xlink:href="#TimesNewRomanPSMT-30" x="50"/>
     <use xlink:href="#TimesNewRomanPSMT-38" x="100"/>
    </g>
   </g>
   <g id="text_101">
    <!-- 205 -->
    <g transform="translate(761.23945 735.69078)rotate(-45)scale(0.15 -0.15)">
     <use xlink:href="#TimesNewRomanPSMT-32"/>
     <use xlink:href="#TimesNewRomanPSMT-30" x="50"/>
     <use xlink:href="#TimesNewRomanPSMT-35" x="100"/>
    </g>
   </g>
   <g id="text_102">
    <!-- 197 -->
    <g transform="translate(776.518749 736.878247)rotate(-45)scale(0.15 -0.15)">
     <use xlink:href="#TimesNewRomanPSMT-31"/>
     <use xlink:href="#TimesNewRomanPSMT-39" x="50"/>
     <use xlink:href="#TimesNewRomanPSMT-37" x="100"/>
    </g>
   </g>
   <g id="text_103">
    <!-- 188 -->
    <g transform="translate(791.798048 738.214147)rotate(-45)scale(0.15 -0.15)">
     <use xlink:href="#TimesNewRomanPSMT-31"/>
     <use xlink:href="#TimesNewRomanPSMT-38" x="50"/>
     <use xlink:href="#TimesNewRomanPSMT-38" x="100"/>
    </g>
   </g>
   <g id="text_104">
    <!-- 185 -->
    <g transform="translate(807.077347 738.659447)rotate(-45)scale(0.15 -0.15)">
     <use xlink:href="#TimesNewRomanPSMT-31"/>
     <use xlink:href="#TimesNewRomanPSMT-38" x="50"/>
     <use xlink:href="#TimesNewRomanPSMT-35" x="100"/>
    </g>
   </g>
   <g id="text_105">
    <!-- 179 -->
    <g transform="translate(822.356646 739.550047)rotate(-45)scale(0.15 -0.15)">
     <use xlink:href="#TimesNewRomanPSMT-31"/>
     <use xlink:href="#TimesNewRomanPSMT-37" x="50"/>
     <use xlink:href="#TimesNewRomanPSMT-39" x="100"/>
    </g>
   </g>
   <g id="text_106">
    <!-- 175 -->
    <g transform="translate(837.635945 740.14378)rotate(-45)scale(0.15 -0.15)">
     <use xlink:href="#TimesNewRomanPSMT-31"/>
     <use xlink:href="#TimesNewRomanPSMT-37" x="50"/>
     <use xlink:href="#TimesNewRomanPSMT-35" x="100"/>
    </g>
   </g>
  </g>
 </g>
 <defs>
  <clipPath id="pa90d758640">
   <rect x="50.2" y="7.2" width="837" height="761.04"/>
  </clipPath>
 </defs>
</svg>
