<?xml version="1.0" encoding="utf-8" standalone="no"?>
<!DOCTYPE svg PUBLIC "-//W3C//DTD SVG 1.1//EN"
  "http://www.w3.org/Graphics/SVG/1.1/DTD/svg11.dtd">
<svg xmlns:xlink="http://www.w3.org/1999/xlink" width="624.4pt" height="363.95125pt" viewBox="0 0 624.4 363.95125" xmlns="http://www.w3.org/2000/svg" version="1.1">
 <metadata>
  <rdf:RDF xmlns:dc="http://purl.org/dc/elements/1.1/" xmlns:cc="http://creativecommons.org/ns#" xmlns:rdf="http://www.w3.org/1999/02/22-rdf-syntax-ns#">
   <cc:Work>
    <dc:type rdf:resource="http://purl.org/dc/dcmitype/StillImage"/>
    <dc:date>2022-06-25T01:34:20.153878</dc:date>
    <dc:format>image/svg+xml</dc:format>
    <dc:creator>
     <cc:Agent>
      <dc:title>Matplotlib v3.5.1, https://matplotlib.org/</dc:title>
     </cc:Agent>
    </dc:creator>
   </cc:Work>
  </rdf:RDF>
 </metadata>
 <defs>
  <style type="text/css">*{stroke-linejoin: round; stroke-linecap: butt}</style>
 </defs>
 <g id="figure_1">
  <g id="patch_1">
   <path d="M 0 363.95125 
L 624.4 363.95125 
L 624.4 0 
L 0 0 
L 0 363.95125 
z
" style="fill: none"/>
  </g>
  <g id="axes_1">
   <g id="patch_2">
    <path d="M 59.2 333.36 
L 617.2 333.36 
L 617.2 7.2 
L 59.2 7.2 
z
" style="fill: #ffffff"/>
   </g>
   <g id="patch_3">
    <path d="M 84.563636 333.36 
L 102.520193 333.36 
L 102.520193 22.731429 
L 84.563636 22.731429 
z
" clip-path="url(#pc6f8142115)" style="fill: #1f77b4"/>
   </g>
   <g id="patch_4">
    <path d="M 151.900724 333.36 
L 169.857281 333.36 
L 169.857281 40.805697 
L 151.900724 40.805697 
z
" clip-path="url(#pc6f8142115)" style="fill: #1f77b4"/>
   </g>
   <g id="patch_5">
    <path d="M 219.237812 333.36 
L 237.194368 333.36 
L 237.194368 80.634575 
L 219.237812 80.634575 
z
" clip-path="url(#pc6f8142115)" style="fill: #1f77b4"/>
   </g>
   <g id="patch_6">
    <path d="M 286.574899 333.36 
L 304.531456 333.36 
L 304.531456 136.481445 
L 286.574899 136.481445 
z
" clip-path="url(#pc6f8142115)" style="fill: #1f77b4"/>
   </g>
   <g id="patch_7">
    <path d="M 353.911987 333.36 
L 371.868544 333.36 
L 371.868544 167.155313 
L 353.911987 167.155313 
z
" clip-path="url(#pc6f8142115)" style="fill: #1f77b4"/>
   </g>
   <g id="patch_8">
    <path d="M 421.249075 333.36 
L 439.205632 333.36 
L 439.205632 172.027507 
L 421.249075 172.027507 
z
" clip-path="url(#pc6f8142115)" style="fill: #1f77b4"/>
   </g>
   <g id="patch_9">
    <path d="M 488.586163 333.36 
L 506.542719 333.36 
L 506.542719 203.44792 
L 488.586163 203.44792 
z
" clip-path="url(#pc6f8142115)" style="fill: #1f77b4"/>
   </g>
   <g id="patch_10">
    <path d="M 555.92325 333.36 
L 573.879807 333.36 
L 573.879807 216.243978 
L 555.92325 216.243978 
z
" clip-path="url(#pc6f8142115)" style="fill: #1f77b4"/>
   </g>
   <g id="patch_11">
    <path d="M 102.520193 333.36 
L 120.47675 333.36 
L 120.47675 26.346282 
L 102.520193 26.346282 
z
" clip-path="url(#pc6f8142115)" style="fill: #ff7f0e"/>
   </g>
   <g id="patch_12">
    <path d="M 169.857281 333.36 
L 187.813837 333.36 
L 187.813837 43.529935 
L 169.857281 43.529935 
z
" clip-path="url(#pc6f8142115)" style="fill: #ff7f0e"/>
   </g>
   <g id="patch_13">
    <path d="M 237.194368 333.36 
L 255.150925 333.36 
L 255.150925 83.620758 
L 237.194368 83.620758 
z
" clip-path="url(#pc6f8142115)" style="fill: #ff7f0e"/>
   </g>
   <g id="patch_14">
    <path d="M 304.531456 333.36 
L 322.488013 333.36 
L 322.488013 139.271169 
L 304.531456 139.271169 
z
" clip-path="url(#pc6f8142115)" style="fill: #ff7f0e"/>
   </g>
   <g id="patch_15">
    <path d="M 371.868544 333.36 
L 389.825101 333.36 
L 389.825101 170.010523 
L 371.868544 170.010523 
z
" clip-path="url(#pc6f8142115)" style="fill: #ff7f0e"/>
   </g>
   <g id="patch_16">
    <path d="M 439.205632 333.36 
L 457.162188 333.36 
L 457.162188 174.686258 
L 439.205632 174.686258 
z
" clip-path="url(#pc6f8142115)" style="fill: #ff7f0e"/>
   </g>
   <g id="patch_17">
    <path d="M 506.542719 333.36 
L 524.499276 333.36 
L 524.499276 205.949504 
L 506.542719 205.949504 
z
" clip-path="url(#pc6f8142115)" style="fill: #ff7f0e"/>
   </g>
   <g id="patch_18">
    <path d="M 573.879807 333.36 
L 591.836364 333.36 
L 591.836364 218.693173 
L 573.879807 218.693173 
z
" clip-path="url(#pc6f8142115)" style="fill: #ff7f0e"/>
   </g>
   <g id="matplotlib.axis_1">
    <g id="xtick_1">
     <g id="line2d_1">
      <defs>
       <path id="mc0ca426679" d="M 0 0 
L 0 3.5 
" style="stroke: #000000; stroke-width: 0.8"/>
      </defs>
      <g>
       <use xlink:href="#mc0ca426679" x="102.520193" y="333.36" style="stroke: #000000; stroke-width: 0.8"/>
      </g>
     </g>
     <g id="text_1">
      <!-- anticipation -->
      <g transform="translate(60.033162 352.85875)scale(0.18 -0.18)">
       <defs>
        <path id="TimesNewRomanPSMT-61" d="M 1822 413 
Q 1381 72 1269 19 
Q 1100 -59 909 -59 
Q 613 -59 420 144 
Q 228 347 228 678 
Q 228 888 322 1041 
Q 450 1253 767 1440 
Q 1084 1628 1822 1897 
L 1822 2009 
Q 1822 2438 1686 2597 
Q 1550 2756 1291 2756 
Q 1094 2756 978 2650 
Q 859 2544 859 2406 
L 866 2225 
Q 866 2081 792 2003 
Q 719 1925 600 1925 
Q 484 1925 411 2006 
Q 338 2088 338 2228 
Q 338 2497 613 2722 
Q 888 2947 1384 2947 
Q 1766 2947 2009 2819 
Q 2194 2722 2281 2516 
Q 2338 2381 2338 1966 
L 2338 994 
Q 2338 584 2353 492 
Q 2369 400 2405 369 
Q 2441 338 2488 338 
Q 2538 338 2575 359 
Q 2641 400 2828 588 
L 2828 413 
Q 2478 -56 2159 -56 
Q 2006 -56 1915 50 
Q 1825 156 1822 413 
z
M 1822 616 
L 1822 1706 
Q 1350 1519 1213 1441 
Q 966 1303 859 1153 
Q 753 1003 753 825 
Q 753 600 887 451 
Q 1022 303 1197 303 
Q 1434 303 1822 616 
z
" transform="scale(0.015625)"/>
        <path id="TimesNewRomanPSMT-6e" d="M 1034 2341 
Q 1538 2947 1994 2947 
Q 2228 2947 2397 2830 
Q 2566 2713 2666 2444 
Q 2734 2256 2734 1869 
L 2734 647 
Q 2734 375 2778 278 
Q 2813 200 2889 156 
Q 2966 113 3172 113 
L 3172 0 
L 1756 0 
L 1756 113 
L 1816 113 
Q 2016 113 2095 173 
Q 2175 234 2206 353 
Q 2219 400 2219 647 
L 2219 1819 
Q 2219 2209 2117 2386 
Q 2016 2563 1775 2563 
Q 1403 2563 1034 2156 
L 1034 647 
Q 1034 356 1069 288 
Q 1113 197 1189 155 
Q 1266 113 1500 113 
L 1500 0 
L 84 0 
L 84 113 
L 147 113 
Q 366 113 442 223 
Q 519 334 519 647 
L 519 1709 
Q 519 2225 495 2337 
Q 472 2450 423 2490 
Q 375 2531 294 2531 
Q 206 2531 84 2484 
L 38 2597 
L 900 2947 
L 1034 2947 
L 1034 2341 
z
" transform="scale(0.015625)"/>
        <path id="TimesNewRomanPSMT-74" d="M 1031 3803 
L 1031 2863 
L 1700 2863 
L 1700 2644 
L 1031 2644 
L 1031 788 
Q 1031 509 1111 412 
Q 1191 316 1316 316 
Q 1419 316 1516 380 
Q 1613 444 1666 569 
L 1788 569 
Q 1678 263 1478 108 
Q 1278 -47 1066 -47 
Q 922 -47 784 33 
Q 647 113 581 261 
Q 516 409 516 719 
L 516 2644 
L 63 2644 
L 63 2747 
Q 234 2816 414 2980 
Q 594 3144 734 3369 
Q 806 3488 934 3803 
L 1031 3803 
z
" transform="scale(0.015625)"/>
        <path id="TimesNewRomanPSMT-69" d="M 928 4444 
Q 1059 4444 1151 4351 
Q 1244 4259 1244 4128 
Q 1244 3997 1151 3903 
Q 1059 3809 928 3809 
Q 797 3809 703 3903 
Q 609 3997 609 4128 
Q 609 4259 701 4351 
Q 794 4444 928 4444 
z
M 1188 2947 
L 1188 647 
Q 1188 378 1227 289 
Q 1266 200 1342 156 
Q 1419 113 1622 113 
L 1622 0 
L 231 0 
L 231 113 
Q 441 113 512 153 
Q 584 194 626 287 
Q 669 381 669 647 
L 669 1750 
Q 669 2216 641 2353 
Q 619 2453 572 2492 
Q 525 2531 444 2531 
Q 356 2531 231 2484 
L 188 2597 
L 1050 2947 
L 1188 2947 
z
" transform="scale(0.015625)"/>
        <path id="TimesNewRomanPSMT-63" d="M 2631 1088 
Q 2516 522 2178 217 
Q 1841 -88 1431 -88 
Q 944 -88 581 321 
Q 219 731 219 1428 
Q 219 2103 620 2525 
Q 1022 2947 1584 2947 
Q 2006 2947 2278 2723 
Q 2550 2500 2550 2259 
Q 2550 2141 2473 2067 
Q 2397 1994 2259 1994 
Q 2075 1994 1981 2113 
Q 1928 2178 1911 2362 
Q 1894 2547 1784 2644 
Q 1675 2738 1481 2738 
Q 1169 2738 978 2506 
Q 725 2200 725 1697 
Q 725 1184 976 792 
Q 1228 400 1656 400 
Q 1963 400 2206 609 
Q 2378 753 2541 1131 
L 2631 1088 
z
" transform="scale(0.015625)"/>
        <path id="TimesNewRomanPSMT-70" d="M -6 2578 
L 875 2934 
L 994 2934 
L 994 2266 
Q 1216 2644 1439 2795 
Q 1663 2947 1909 2947 
Q 2341 2947 2628 2609 
Q 2981 2197 2981 1534 
Q 2981 794 2556 309 
Q 2206 -88 1675 -88 
Q 1444 -88 1275 -22 
Q 1150 25 994 166 
L 994 -706 
Q 994 -1000 1030 -1079 
Q 1066 -1159 1155 -1206 
Q 1244 -1253 1478 -1253 
L 1478 -1369 
L -22 -1369 
L -22 -1253 
L 56 -1253 
Q 228 -1256 350 -1188 
Q 409 -1153 442 -1076 
Q 475 -1000 475 -688 
L 475 2019 
Q 475 2297 450 2372 
Q 425 2447 370 2484 
Q 316 2522 222 2522 
Q 147 2522 31 2478 
L -6 2578 
z
M 994 2081 
L 994 1013 
Q 994 666 1022 556 
Q 1066 375 1236 237 
Q 1406 100 1666 100 
Q 1978 100 2172 344 
Q 2425 663 2425 1241 
Q 2425 1897 2138 2250 
Q 1938 2494 1663 2494 
Q 1513 2494 1366 2419 
Q 1253 2363 994 2081 
z
" transform="scale(0.015625)"/>
        <path id="TimesNewRomanPSMT-6f" d="M 1600 2947 
Q 2250 2947 2644 2453 
Q 2978 2031 2978 1484 
Q 2978 1100 2793 706 
Q 2609 313 2286 112 
Q 1963 -88 1566 -88 
Q 919 -88 538 428 
Q 216 863 216 1403 
Q 216 1797 411 2186 
Q 606 2575 925 2761 
Q 1244 2947 1600 2947 
z
M 1503 2744 
Q 1338 2744 1170 2645 
Q 1003 2547 900 2300 
Q 797 2053 797 1666 
Q 797 1041 1045 587 
Q 1294 134 1700 134 
Q 2003 134 2200 384 
Q 2397 634 2397 1244 
Q 2397 2006 2069 2444 
Q 1847 2744 1503 2744 
z
" transform="scale(0.015625)"/>
       </defs>
       <use xlink:href="#TimesNewRomanPSMT-61"/>
       <use xlink:href="#TimesNewRomanPSMT-6e" x="44.384766"/>
       <use xlink:href="#TimesNewRomanPSMT-74" x="94.384766"/>
       <use xlink:href="#TimesNewRomanPSMT-69" x="122.167969"/>
       <use xlink:href="#TimesNewRomanPSMT-63" x="149.951172"/>
       <use xlink:href="#TimesNewRomanPSMT-69" x="194.335938"/>
       <use xlink:href="#TimesNewRomanPSMT-70" x="222.119141"/>
       <use xlink:href="#TimesNewRomanPSMT-61" x="272.119141"/>
       <use xlink:href="#TimesNewRomanPSMT-74" x="316.503906"/>
       <use xlink:href="#TimesNewRomanPSMT-69" x="344.287109"/>
       <use xlink:href="#TimesNewRomanPSMT-6f" x="372.070312"/>
       <use xlink:href="#TimesNewRomanPSMT-6e" x="422.070312"/>
      </g>
     </g>
    </g>
    <g id="xtick_2">
     <g id="line2d_2">
      <g>
       <use xlink:href="#mc0ca426679" x="169.857281" y="333.36" style="stroke: #000000; stroke-width: 0.8"/>
      </g>
     </g>
     <g id="text_2">
      <!-- joy -->
      <g transform="translate(158.356968 352.867187)scale(0.18 -0.18)">
       <defs>
        <path id="TimesNewRomanPSMT-6a" d="M 925 4447 
Q 1059 4447 1153 4353 
Q 1247 4259 1247 4125 
Q 1247 3994 1153 3900 
Q 1059 3806 925 3806 
Q 794 3806 700 3900 
Q 606 3994 606 4125 
Q 606 4259 700 4353 
Q 794 4447 925 4447 
z
M 1194 2947 
L 1194 66 
Q 1194 -669 881 -1025 
Q 569 -1381 69 -1381 
Q -216 -1381 -353 -1278 
Q -491 -1175 -491 -1066 
Q -491 -956 -414 -878 
Q -338 -800 -234 -800 
Q -153 -800 -69 -841 
Q -16 -863 136 -998 
Q 288 -1134 391 -1134 
Q 466 -1134 537 -1076 
Q 609 -1019 643 -883 
Q 678 -747 678 -294 
L 678 1744 
Q 678 2216 650 2350 
Q 628 2453 581 2492 
Q 534 2531 453 2531 
Q 366 2531 241 2484 
L 197 2597 
L 1059 2947 
L 1194 2947 
z
" transform="scale(0.015625)"/>
        <path id="TimesNewRomanPSMT-79" d="M 38 2863 
L 1372 2863 
L 1372 2747 
L 1306 2747 
Q 1166 2747 1095 2686 
Q 1025 2625 1025 2534 
Q 1025 2413 1128 2197 
L 1825 753 
L 2466 2334 
Q 2519 2463 2519 2588 
Q 2519 2644 2497 2672 
Q 2472 2706 2419 2726 
Q 2366 2747 2231 2747 
L 2231 2863 
L 3163 2863 
L 3163 2747 
Q 3047 2734 2984 2696 
Q 2922 2659 2847 2556 
Q 2819 2513 2741 2316 
L 1575 -541 
Q 1406 -956 1132 -1168 
Q 859 -1381 606 -1381 
Q 422 -1381 303 -1275 
Q 184 -1169 184 -1031 
Q 184 -900 270 -820 
Q 356 -741 506 -741 
Q 609 -741 788 -809 
Q 913 -856 944 -856 
Q 1038 -856 1148 -759 
Q 1259 -663 1372 -384 
L 1575 113 
L 547 2272 
Q 500 2369 397 2513 
Q 319 2622 269 2659 
Q 197 2709 38 2747 
L 38 2863 
z
" transform="scale(0.015625)"/>
       </defs>
       <use xlink:href="#TimesNewRomanPSMT-6a"/>
       <use xlink:href="#TimesNewRomanPSMT-6f" x="27.783203"/>
       <use xlink:href="#TimesNewRomanPSMT-79" x="77.783203"/>
      </g>
     </g>
    </g>
    <g id="xtick_3">
     <g id="line2d_3">
      <g>
       <use xlink:href="#mc0ca426679" x="237.194368" y="333.36" style="stroke: #000000; stroke-width: 0.8"/>
      </g>
     </g>
     <g id="text_3">
      <!-- surprise -->
      <g transform="translate(208.699525 352.85875)scale(0.18 -0.18)">
       <defs>
        <path id="TimesNewRomanPSMT-73" d="M 2050 2947 
L 2050 1972 
L 1947 1972 
Q 1828 2431 1642 2597 
Q 1456 2763 1169 2763 
Q 950 2763 815 2647 
Q 681 2531 681 2391 
Q 681 2216 781 2091 
Q 878 1963 1175 1819 
L 1631 1597 
Q 2266 1288 2266 781 
Q 2266 391 1970 151 
Q 1675 -88 1309 -88 
Q 1047 -88 709 6 
Q 606 38 541 38 
Q 469 38 428 -44 
L 325 -44 
L 325 978 
L 428 978 
Q 516 541 762 319 
Q 1009 97 1316 97 
Q 1531 97 1667 223 
Q 1803 350 1803 528 
Q 1803 744 1651 891 
Q 1500 1038 1047 1263 
Q 594 1488 453 1669 
Q 313 1847 313 2119 
Q 313 2472 555 2709 
Q 797 2947 1181 2947 
Q 1350 2947 1591 2875 
Q 1750 2828 1803 2828 
Q 1853 2828 1881 2850 
Q 1909 2872 1947 2947 
L 2050 2947 
z
" transform="scale(0.015625)"/>
        <path id="TimesNewRomanPSMT-75" d="M 2709 2863 
L 2709 1128 
Q 2709 631 2732 520 
Q 2756 409 2807 365 
Q 2859 322 2928 322 
Q 3025 322 3147 375 
L 3191 266 
L 2334 -88 
L 2194 -88 
L 2194 519 
Q 1825 119 1631 15 
Q 1438 -88 1222 -88 
Q 981 -88 804 51 
Q 628 191 559 409 
Q 491 628 491 1028 
L 491 2306 
Q 491 2509 447 2587 
Q 403 2666 317 2708 
Q 231 2750 6 2747 
L 6 2863 
L 1009 2863 
L 1009 947 
Q 1009 547 1148 422 
Q 1288 297 1484 297 
Q 1619 297 1789 381 
Q 1959 466 2194 703 
L 2194 2325 
Q 2194 2569 2105 2655 
Q 2016 2741 1734 2747 
L 1734 2863 
L 2709 2863 
z
" transform="scale(0.015625)"/>
        <path id="TimesNewRomanPSMT-72" d="M 1038 2947 
L 1038 2303 
Q 1397 2947 1775 2947 
Q 1947 2947 2059 2842 
Q 2172 2738 2172 2600 
Q 2172 2478 2090 2393 
Q 2009 2309 1897 2309 
Q 1788 2309 1652 2417 
Q 1516 2525 1450 2525 
Q 1394 2525 1328 2463 
Q 1188 2334 1038 2041 
L 1038 669 
Q 1038 431 1097 309 
Q 1138 225 1241 169 
Q 1344 113 1538 113 
L 1538 0 
L 72 0 
L 72 113 
Q 291 113 397 181 
Q 475 231 506 341 
Q 522 394 522 644 
L 522 1753 
Q 522 2253 501 2348 
Q 481 2444 426 2487 
Q 372 2531 291 2531 
Q 194 2531 72 2484 
L 41 2597 
L 906 2947 
L 1038 2947 
z
" transform="scale(0.015625)"/>
        <path id="TimesNewRomanPSMT-65" d="M 681 1784 
Q 678 1147 991 784 
Q 1303 422 1725 422 
Q 2006 422 2214 576 
Q 2422 731 2563 1106 
L 2659 1044 
Q 2594 616 2278 264 
Q 1963 -88 1488 -88 
Q 972 -88 605 314 
Q 238 716 238 1394 
Q 238 2128 614 2539 
Q 991 2950 1559 2950 
Q 2041 2950 2350 2633 
Q 2659 2316 2659 1784 
L 681 1784 
z
M 681 1966 
L 2006 1966 
Q 1991 2241 1941 2353 
Q 1863 2528 1708 2628 
Q 1553 2728 1384 2728 
Q 1125 2728 920 2526 
Q 716 2325 681 1966 
z
" transform="scale(0.015625)"/>
       </defs>
       <use xlink:href="#TimesNewRomanPSMT-73"/>
       <use xlink:href="#TimesNewRomanPSMT-75" x="38.916016"/>
       <use xlink:href="#TimesNewRomanPSMT-72" x="88.916016"/>
       <use xlink:href="#TimesNewRomanPSMT-70" x="122.216797"/>
       <use xlink:href="#TimesNewRomanPSMT-72" x="172.216797"/>
       <use xlink:href="#TimesNewRomanPSMT-69" x="205.517578"/>
       <use xlink:href="#TimesNewRomanPSMT-73" x="233.300781"/>
       <use xlink:href="#TimesNewRomanPSMT-65" x="272.216797"/>
      </g>
     </g>
    </g>
    <g id="xtick_4">
     <g id="line2d_4">
      <g>
       <use xlink:href="#mc0ca426679" x="304.531456" y="333.36" style="stroke: #000000; stroke-width: 0.8"/>
      </g>
     </g>
     <g id="text_4">
      <!-- trust -->
      <g transform="translate(288.531144 352.85875)scale(0.18 -0.18)">
       <use xlink:href="#TimesNewRomanPSMT-74"/>
       <use xlink:href="#TimesNewRomanPSMT-72" x="27.783203"/>
       <use xlink:href="#TimesNewRomanPSMT-75" x="61.083984"/>
       <use xlink:href="#TimesNewRomanPSMT-73" x="111.083984"/>
       <use xlink:href="#TimesNewRomanPSMT-74" x="150"/>
      </g>
     </g>
    </g>
    <g id="xtick_5">
     <g id="line2d_5">
      <g>
       <use xlink:href="#mc0ca426679" x="371.868544" y="333.36" style="stroke: #000000; stroke-width: 0.8"/>
      </g>
     </g>
     <g id="text_5">
      <!-- fear -->
      <g transform="translate(357.884794 352.85875)scale(0.18 -0.18)">
       <defs>
        <path id="TimesNewRomanPSMT-66" d="M 1319 2638 
L 1319 756 
Q 1319 356 1406 250 
Q 1522 113 1716 113 
L 1975 113 
L 1975 0 
L 266 0 
L 266 113 
L 394 113 
Q 519 113 622 175 
Q 725 238 764 344 
Q 803 450 803 756 
L 803 2638 
L 247 2638 
L 247 2863 
L 803 2863 
L 803 3050 
Q 803 3478 940 3775 
Q 1078 4072 1361 4255 
Q 1644 4438 1997 4438 
Q 2325 4438 2600 4225 
Q 2781 4084 2781 3909 
Q 2781 3816 2700 3733 
Q 2619 3650 2525 3650 
Q 2453 3650 2373 3701 
Q 2294 3753 2178 3923 
Q 2063 4094 1966 4153 
Q 1869 4213 1750 4213 
Q 1606 4213 1506 4136 
Q 1406 4059 1362 3898 
Q 1319 3738 1319 3069 
L 1319 2863 
L 2056 2863 
L 2056 2638 
L 1319 2638 
z
" transform="scale(0.015625)"/>
       </defs>
       <use xlink:href="#TimesNewRomanPSMT-66"/>
       <use xlink:href="#TimesNewRomanPSMT-65" x="33.300781"/>
       <use xlink:href="#TimesNewRomanPSMT-61" x="77.685547"/>
       <use xlink:href="#TimesNewRomanPSMT-72" x="122.070312"/>
      </g>
     </g>
    </g>
    <g id="xtick_6">
     <g id="line2d_6">
      <g>
       <use xlink:href="#mc0ca426679" x="439.205632" y="333.36" style="stroke: #000000; stroke-width: 0.8"/>
      </g>
     </g>
     <g id="text_6">
      <!-- sadness -->
      <g transform="translate(411.706413 352.85875)scale(0.18 -0.18)">
       <defs>
        <path id="TimesNewRomanPSMT-64" d="M 2222 322 
Q 2013 103 1813 7 
Q 1613 -88 1381 -88 
Q 913 -88 563 304 
Q 213 697 213 1313 
Q 213 1928 600 2439 
Q 988 2950 1597 2950 
Q 1975 2950 2222 2709 
L 2222 3238 
Q 2222 3728 2198 3840 
Q 2175 3953 2125 3993 
Q 2075 4034 2000 4034 
Q 1919 4034 1784 3984 
L 1744 4094 
L 2597 4444 
L 2738 4444 
L 2738 1134 
Q 2738 631 2761 520 
Q 2784 409 2836 365 
Q 2888 322 2956 322 
Q 3041 322 3181 375 
L 3216 266 
L 2366 -88 
L 2222 -88 
L 2222 322 
z
M 2222 541 
L 2222 2016 
Q 2203 2228 2109 2403 
Q 2016 2578 1861 2667 
Q 1706 2756 1559 2756 
Q 1284 2756 1069 2509 
Q 784 2184 784 1559 
Q 784 928 1059 592 
Q 1334 256 1672 256 
Q 1956 256 2222 541 
z
" transform="scale(0.015625)"/>
       </defs>
       <use xlink:href="#TimesNewRomanPSMT-73"/>
       <use xlink:href="#TimesNewRomanPSMT-61" x="38.916016"/>
       <use xlink:href="#TimesNewRomanPSMT-64" x="83.300781"/>
       <use xlink:href="#TimesNewRomanPSMT-6e" x="133.300781"/>
       <use xlink:href="#TimesNewRomanPSMT-65" x="183.300781"/>
       <use xlink:href="#TimesNewRomanPSMT-73" x="227.685547"/>
       <use xlink:href="#TimesNewRomanPSMT-73" x="266.601562"/>
      </g>
     </g>
    </g>
    <g id="xtick_7">
     <g id="line2d_7">
      <g>
       <use xlink:href="#mc0ca426679" x="506.542719" y="333.36" style="stroke: #000000; stroke-width: 0.8"/>
      </g>
     </g>
     <g id="text_7">
      <!-- anger -->
      <g transform="translate(486.555688 352.825)scale(0.18 -0.18)">
       <defs>
        <path id="TimesNewRomanPSMT-67" d="M 966 1044 
Q 703 1172 562 1401 
Q 422 1631 422 1909 
Q 422 2334 742 2640 
Q 1063 2947 1563 2947 
Q 1972 2947 2272 2747 
L 2878 2747 
Q 3013 2747 3034 2739 
Q 3056 2731 3066 2713 
Q 3084 2684 3084 2613 
Q 3084 2531 3069 2500 
Q 3059 2484 3036 2475 
Q 3013 2466 2878 2466 
L 2506 2466 
Q 2681 2241 2681 1891 
Q 2681 1491 2375 1206 
Q 2069 922 1553 922 
Q 1341 922 1119 984 
Q 981 866 932 777 
Q 884 688 884 625 
Q 884 572 936 522 
Q 988 472 1138 450 
Q 1225 438 1575 428 
Q 2219 413 2409 384 
Q 2700 344 2873 169 
Q 3047 -6 3047 -263 
Q 3047 -616 2716 -925 
Q 2228 -1381 1444 -1381 
Q 841 -1381 425 -1109 
Q 191 -953 191 -784 
Q 191 -709 225 -634 
Q 278 -519 444 -313 
Q 466 -284 763 25 
Q 600 122 533 198 
Q 466 275 466 372 
Q 466 481 555 628 
Q 644 775 966 1044 
z
M 1509 2797 
Q 1278 2797 1122 2612 
Q 966 2428 966 2047 
Q 966 1553 1178 1281 
Q 1341 1075 1591 1075 
Q 1828 1075 1981 1253 
Q 2134 1431 2134 1813 
Q 2134 2309 1919 2591 
Q 1759 2797 1509 2797 
z
M 934 0 
Q 788 -159 713 -296 
Q 638 -434 638 -550 
Q 638 -700 819 -813 
Q 1131 -1006 1722 -1006 
Q 2284 -1006 2551 -807 
Q 2819 -609 2819 -384 
Q 2819 -222 2659 -153 
Q 2497 -84 2016 -72 
Q 1313 -53 934 0 
z
" transform="scale(0.015625)"/>
       </defs>
       <use xlink:href="#TimesNewRomanPSMT-61"/>
       <use xlink:href="#TimesNewRomanPSMT-6e" x="44.384766"/>
       <use xlink:href="#TimesNewRomanPSMT-67" x="94.384766"/>
       <use xlink:href="#TimesNewRomanPSMT-65" x="144.384766"/>
       <use xlink:href="#TimesNewRomanPSMT-72" x="188.769531"/>
      </g>
     </g>
    </g>
    <g id="xtick_8">
     <g id="line2d_8">
      <g>
       <use xlink:href="#mc0ca426679" x="573.879807" y="333.36" style="stroke: #000000; stroke-width: 0.8"/>
      </g>
     </g>
     <g id="text_8">
      <!-- disgust -->
      <g transform="translate(548.373244 352.85875)scale(0.18 -0.18)">
       <use xlink:href="#TimesNewRomanPSMT-64"/>
       <use xlink:href="#TimesNewRomanPSMT-69" x="50"/>
       <use xlink:href="#TimesNewRomanPSMT-73" x="77.783203"/>
       <use xlink:href="#TimesNewRomanPSMT-67" x="116.699219"/>
       <use xlink:href="#TimesNewRomanPSMT-75" x="166.699219"/>
       <use xlink:href="#TimesNewRomanPSMT-73" x="216.699219"/>
       <use xlink:href="#TimesNewRomanPSMT-74" x="255.615234"/>
      </g>
     </g>
    </g>
   </g>
   <g id="matplotlib.axis_2">
    <g id="ytick_1">
     <g id="line2d_9">
      <defs>
       <path id="m0117711f95" d="M 0 0 
L -3.5 0 
" style="stroke: #000000; stroke-width: 0.8"/>
      </defs>
      <g>
       <use xlink:href="#m0117711f95" x="59.2" y="333.36" style="stroke: #000000; stroke-width: 0.8"/>
      </g>
     </g>
     <g id="text_9">
      <!-- 0 -->
      <g transform="translate(43.2 339.609375)scale(0.18 -0.18)">
       <defs>
        <path id="TimesNewRomanPSMT-30" d="M 231 2094 
Q 231 2819 450 3342 
Q 669 3866 1031 4122 
Q 1313 4325 1613 4325 
Q 2100 4325 2488 3828 
Q 2972 3213 2972 2159 
Q 2972 1422 2759 906 
Q 2547 391 2217 158 
Q 1888 -75 1581 -75 
Q 975 -75 572 641 
Q 231 1244 231 2094 
z
M 844 2016 
Q 844 1141 1059 588 
Q 1238 122 1591 122 
Q 1759 122 1940 273 
Q 2122 425 2216 781 
Q 2359 1319 2359 2297 
Q 2359 3022 2209 3506 
Q 2097 3866 1919 4016 
Q 1791 4119 1609 4119 
Q 1397 4119 1231 3928 
Q 1006 3669 925 3112 
Q 844 2556 844 2016 
z
" transform="scale(0.015625)"/>
       </defs>
       <use xlink:href="#TimesNewRomanPSMT-30"/>
      </g>
     </g>
    </g>
    <g id="ytick_2">
     <g id="line2d_10">
      <g>
       <use xlink:href="#m0117711f95" x="59.2" y="267.87352" style="stroke: #000000; stroke-width: 0.8"/>
      </g>
     </g>
     <g id="text_10">
      <!-- 5000 -->
      <g transform="translate(16.2 274.122895)scale(0.18 -0.18)">
       <defs>
        <path id="TimesNewRomanPSMT-35" d="M 2778 4238 
L 2534 3706 
L 1259 3706 
L 981 3138 
Q 1809 3016 2294 2522 
Q 2709 2097 2709 1522 
Q 2709 1188 2573 903 
Q 2438 619 2231 419 
Q 2025 219 1772 97 
Q 1413 -75 1034 -75 
Q 653 -75 479 54 
Q 306 184 306 341 
Q 306 428 378 495 
Q 450 563 559 563 
Q 641 563 702 538 
Q 763 513 909 409 
Q 1144 247 1384 247 
Q 1750 247 2026 523 
Q 2303 800 2303 1197 
Q 2303 1581 2056 1914 
Q 1809 2247 1375 2428 
Q 1034 2569 447 2591 
L 1259 4238 
L 2778 4238 
z
" transform="scale(0.015625)"/>
       </defs>
       <use xlink:href="#TimesNewRomanPSMT-35"/>
       <use xlink:href="#TimesNewRomanPSMT-30" x="50"/>
       <use xlink:href="#TimesNewRomanPSMT-30" x="100"/>
       <use xlink:href="#TimesNewRomanPSMT-30" x="150"/>
      </g>
     </g>
    </g>
    <g id="ytick_3">
     <g id="line2d_11">
      <g>
       <use xlink:href="#m0117711f95" x="59.2" y="202.387039" style="stroke: #000000; stroke-width: 0.8"/>
      </g>
     </g>
     <g id="text_11">
      <!-- 10000 -->
      <g transform="translate(7.2 208.636414)scale(0.18 -0.18)">
       <defs>
        <path id="TimesNewRomanPSMT-31" d="M 750 3822 
L 1781 4325 
L 1884 4325 
L 1884 747 
Q 1884 391 1914 303 
Q 1944 216 2037 169 
Q 2131 122 2419 116 
L 2419 0 
L 825 0 
L 825 116 
Q 1125 122 1212 167 
Q 1300 213 1334 289 
Q 1369 366 1369 747 
L 1369 3034 
Q 1369 3497 1338 3628 
Q 1316 3728 1258 3775 
Q 1200 3822 1119 3822 
Q 1003 3822 797 3725 
L 750 3822 
z
" transform="scale(0.015625)"/>
       </defs>
       <use xlink:href="#TimesNewRomanPSMT-31"/>
       <use xlink:href="#TimesNewRomanPSMT-30" x="50"/>
       <use xlink:href="#TimesNewRomanPSMT-30" x="100"/>
       <use xlink:href="#TimesNewRomanPSMT-30" x="150"/>
       <use xlink:href="#TimesNewRomanPSMT-30" x="200"/>
      </g>
     </g>
    </g>
    <g id="ytick_4">
     <g id="line2d_12">
      <g>
       <use xlink:href="#m0117711f95" x="59.2" y="136.900559" style="stroke: #000000; stroke-width: 0.8"/>
      </g>
     </g>
     <g id="text_12">
      <!-- 15000 -->
      <g transform="translate(7.2 143.149934)scale(0.18 -0.18)">
       <use xlink:href="#TimesNewRomanPSMT-31"/>
       <use xlink:href="#TimesNewRomanPSMT-35" x="50"/>
       <use xlink:href="#TimesNewRomanPSMT-30" x="100"/>
       <use xlink:href="#TimesNewRomanPSMT-30" x="150"/>
       <use xlink:href="#TimesNewRomanPSMT-30" x="200"/>
      </g>
     </g>
    </g>
    <g id="ytick_5">
     <g id="line2d_13">
      <g>
       <use xlink:href="#m0117711f95" x="59.2" y="71.414078" style="stroke: #000000; stroke-width: 0.8"/>
      </g>
     </g>
     <g id="text_13">
      <!-- 20000 -->
      <g transform="translate(7.2 77.663453)scale(0.18 -0.18)">
       <defs>
        <path id="TimesNewRomanPSMT-32" d="M 2934 816 
L 2638 0 
L 138 0 
L 138 116 
Q 1241 1122 1691 1759 
Q 2141 2397 2141 2925 
Q 2141 3328 1894 3587 
Q 1647 3847 1303 3847 
Q 991 3847 742 3664 
Q 494 3481 375 3128 
L 259 3128 
Q 338 3706 661 4015 
Q 984 4325 1469 4325 
Q 1984 4325 2329 3994 
Q 2675 3663 2675 3213 
Q 2675 2891 2525 2569 
Q 2294 2063 1775 1497 
Q 997 647 803 472 
L 1909 472 
Q 2247 472 2383 497 
Q 2519 522 2628 598 
Q 2738 675 2819 816 
L 2934 816 
z
" transform="scale(0.015625)"/>
       </defs>
       <use xlink:href="#TimesNewRomanPSMT-32"/>
       <use xlink:href="#TimesNewRomanPSMT-30" x="50"/>
       <use xlink:href="#TimesNewRomanPSMT-30" x="100"/>
       <use xlink:href="#TimesNewRomanPSMT-30" x="150"/>
       <use xlink:href="#TimesNewRomanPSMT-30" x="200"/>
      </g>
     </g>
    </g>
   </g>
   <g id="patch_19">
    <path d="M 59.2 333.36 
L 59.2 7.2 
" style="fill: none; stroke: #000000; stroke-width: 0.8; stroke-linejoin: miter; stroke-linecap: square"/>
   </g>
   <g id="patch_20">
    <path d="M 617.2 333.36 
L 617.2 7.2 
" style="fill: none; stroke: #000000; stroke-width: 0.8; stroke-linejoin: miter; stroke-linecap: square"/>
   </g>
   <g id="patch_21">
    <path d="M 59.2 333.36 
L 617.2 333.36 
" style="fill: none; stroke: #000000; stroke-width: 0.8; stroke-linejoin: miter; stroke-linecap: square"/>
   </g>
   <g id="patch_22">
    <path d="M 59.2 7.2 
L 617.2 7.2 
" style="fill: none; stroke: #000000; stroke-width: 0.8; stroke-linejoin: miter; stroke-linecap: square"/>
   </g>
   <g id="text_14">
    <!-- 23717 -->
    <g transform="translate(70.685921 20.164554)scale(0.12 -0.12)">
     <defs>
      <path id="TimesNewRomanPSMT-33" d="M 325 3431 
Q 506 3859 782 4092 
Q 1059 4325 1472 4325 
Q 1981 4325 2253 3994 
Q 2459 3747 2459 3466 
Q 2459 3003 1878 2509 
Q 2269 2356 2469 2072 
Q 2669 1788 2669 1403 
Q 2669 853 2319 450 
Q 1863 -75 997 -75 
Q 569 -75 414 31 
Q 259 138 259 259 
Q 259 350 332 419 
Q 406 488 509 488 
Q 588 488 669 463 
Q 722 447 909 348 
Q 1097 250 1169 231 
Q 1284 197 1416 197 
Q 1734 197 1970 444 
Q 2206 691 2206 1028 
Q 2206 1275 2097 1509 
Q 2016 1684 1919 1775 
Q 1784 1900 1550 2001 
Q 1316 2103 1072 2103 
L 972 2103 
L 972 2197 
Q 1219 2228 1467 2375 
Q 1716 2522 1828 2728 
Q 1941 2934 1941 3181 
Q 1941 3503 1739 3701 
Q 1538 3900 1238 3900 
Q 753 3900 428 3381 
L 325 3431 
z
" transform="scale(0.015625)"/>
      <path id="TimesNewRomanPSMT-37" d="M 644 4238 
L 2916 4238 
L 2916 4119 
L 1503 -88 
L 1153 -88 
L 2419 3728 
L 1253 3728 
Q 900 3728 750 3644 
Q 488 3500 328 3200 
L 238 3234 
L 644 4238 
z
" transform="scale(0.015625)"/>
     </defs>
     <use xlink:href="#TimesNewRomanPSMT-32"/>
     <use xlink:href="#TimesNewRomanPSMT-33" x="50"/>
     <use xlink:href="#TimesNewRomanPSMT-37" x="100"/>
     <use xlink:href="#TimesNewRomanPSMT-31" x="150"/>
     <use xlink:href="#TimesNewRomanPSMT-37" x="200"/>
    </g>
   </g>
   <g id="text_15">
    <!-- 22337 -->
    <g transform="translate(138.023009 38.238822)scale(0.12 -0.12)">
     <use xlink:href="#TimesNewRomanPSMT-32"/>
     <use xlink:href="#TimesNewRomanPSMT-32" x="50"/>
     <use xlink:href="#TimesNewRomanPSMT-33" x="100"/>
     <use xlink:href="#TimesNewRomanPSMT-33" x="150"/>
     <use xlink:href="#TimesNewRomanPSMT-37" x="200"/>
    </g>
   </g>
   <g id="text_16">
    <!-- 19296 -->
    <g transform="translate(205.360097 78.0677)scale(0.12 -0.12)">
     <defs>
      <path id="TimesNewRomanPSMT-39" d="M 338 -88 
L 338 28 
Q 744 34 1094 217 
Q 1444 400 1770 856 
Q 2097 1313 2225 1859 
Q 1734 1544 1338 1544 
Q 891 1544 572 1889 
Q 253 2234 253 2806 
Q 253 3363 572 3797 
Q 956 4325 1575 4325 
Q 2097 4325 2469 3894 
Q 2925 3359 2925 2575 
Q 2925 1869 2578 1258 
Q 2231 647 1613 244 
Q 1109 -88 516 -88 
L 338 -88 
z
M 2275 2091 
Q 2331 2497 2331 2741 
Q 2331 3044 2228 3395 
Q 2125 3747 1936 3934 
Q 1747 4122 1506 4122 
Q 1228 4122 1018 3872 
Q 809 3622 809 3128 
Q 809 2469 1088 2097 
Q 1291 1828 1588 1828 
Q 1731 1828 1928 1897 
Q 2125 1966 2275 2091 
z
" transform="scale(0.015625)"/>
      <path id="TimesNewRomanPSMT-36" d="M 2869 4325 
L 2869 4209 
Q 2456 4169 2195 4045 
Q 1934 3922 1679 3669 
Q 1425 3416 1258 3105 
Q 1091 2794 978 2366 
Q 1428 2675 1881 2675 
Q 2316 2675 2634 2325 
Q 2953 1975 2953 1425 
Q 2953 894 2631 456 
Q 2244 -75 1606 -75 
Q 1172 -75 869 213 
Q 275 772 275 1663 
Q 275 2231 503 2743 
Q 731 3256 1154 3653 
Q 1578 4050 1965 4187 
Q 2353 4325 2688 4325 
L 2869 4325 
z
M 925 2138 
Q 869 1716 869 1456 
Q 869 1156 980 804 
Q 1091 453 1309 247 
Q 1469 100 1697 100 
Q 1969 100 2183 356 
Q 2397 613 2397 1088 
Q 2397 1622 2184 2012 
Q 1972 2403 1581 2403 
Q 1463 2403 1327 2353 
Q 1191 2303 925 2138 
z
" transform="scale(0.015625)"/>
     </defs>
     <use xlink:href="#TimesNewRomanPSMT-31"/>
     <use xlink:href="#TimesNewRomanPSMT-39" x="50"/>
     <use xlink:href="#TimesNewRomanPSMT-32" x="100"/>
     <use xlink:href="#TimesNewRomanPSMT-39" x="150"/>
     <use xlink:href="#TimesNewRomanPSMT-36" x="200"/>
    </g>
   </g>
   <g id="text_17">
    <!-- 15032 -->
    <g transform="translate(272.697184 133.91457)scale(0.12 -0.12)">
     <use xlink:href="#TimesNewRomanPSMT-31"/>
     <use xlink:href="#TimesNewRomanPSMT-35" x="50"/>
     <use xlink:href="#TimesNewRomanPSMT-30" x="100"/>
     <use xlink:href="#TimesNewRomanPSMT-33" x="150"/>
     <use xlink:href="#TimesNewRomanPSMT-32" x="200"/>
    </g>
   </g>
   <g id="text_18">
    <!-- 12690 -->
    <g transform="translate(340.034272 164.588438)scale(0.12 -0.12)">
     <use xlink:href="#TimesNewRomanPSMT-31"/>
     <use xlink:href="#TimesNewRomanPSMT-32" x="50"/>
     <use xlink:href="#TimesNewRomanPSMT-36" x="100"/>
     <use xlink:href="#TimesNewRomanPSMT-39" x="150"/>
     <use xlink:href="#TimesNewRomanPSMT-30" x="200"/>
    </g>
   </g>
   <g id="text_19">
    <!-- 12318 -->
    <g transform="translate(407.37136 169.460632)scale(0.12 -0.12)">
     <defs>
      <path id="TimesNewRomanPSMT-38" d="M 1228 2134 
Q 725 2547 579 2797 
Q 434 3047 434 3316 
Q 434 3728 753 4026 
Q 1072 4325 1600 4325 
Q 2113 4325 2425 4047 
Q 2738 3769 2738 3413 
Q 2738 3175 2569 2928 
Q 2400 2681 1866 2347 
Q 2416 1922 2594 1678 
Q 2831 1359 2831 1006 
Q 2831 559 2490 242 
Q 2150 -75 1597 -75 
Q 994 -75 656 303 
Q 388 606 388 966 
Q 388 1247 577 1523 
Q 766 1800 1228 2134 
z
M 1719 2469 
Q 2094 2806 2194 3001 
Q 2294 3197 2294 3444 
Q 2294 3772 2109 3958 
Q 1925 4144 1606 4144 
Q 1288 4144 1088 3959 
Q 888 3775 888 3528 
Q 888 3366 970 3203 
Q 1053 3041 1206 2894 
L 1719 2469 
z
M 1375 2016 
Q 1116 1797 991 1539 
Q 866 1281 866 981 
Q 866 578 1086 336 
Q 1306 94 1647 94 
Q 1984 94 2187 284 
Q 2391 475 2391 747 
Q 2391 972 2272 1150 
Q 2050 1481 1375 2016 
z
" transform="scale(0.015625)"/>
     </defs>
     <use xlink:href="#TimesNewRomanPSMT-31"/>
     <use xlink:href="#TimesNewRomanPSMT-32" x="50"/>
     <use xlink:href="#TimesNewRomanPSMT-33" x="100"/>
     <use xlink:href="#TimesNewRomanPSMT-31" x="150"/>
     <use xlink:href="#TimesNewRomanPSMT-38" x="200"/>
    </g>
   </g>
   <g id="text_20">
    <!-- 9919 -->
    <g transform="translate(477.708447 200.881045)scale(0.12 -0.12)">
     <use xlink:href="#TimesNewRomanPSMT-39"/>
     <use xlink:href="#TimesNewRomanPSMT-39" x="50"/>
     <use xlink:href="#TimesNewRomanPSMT-31" x="100"/>
     <use xlink:href="#TimesNewRomanPSMT-39" x="150"/>
    </g>
   </g>
   <g id="text_21">
    <!-- 8942 -->
    <g transform="translate(545.045535 213.677103)scale(0.12 -0.12)">
     <defs>
      <path id="TimesNewRomanPSMT-34" d="M 2978 1563 
L 2978 1119 
L 2409 1119 
L 2409 0 
L 1894 0 
L 1894 1119 
L 100 1119 
L 100 1519 
L 2066 4325 
L 2409 4325 
L 2409 1563 
L 2978 1563 
z
M 1894 1563 
L 1894 3666 
L 406 1563 
L 1894 1563 
z
" transform="scale(0.015625)"/>
     </defs>
     <use xlink:href="#TimesNewRomanPSMT-38"/>
     <use xlink:href="#TimesNewRomanPSMT-39" x="50"/>
     <use xlink:href="#TimesNewRomanPSMT-34" x="100"/>
     <use xlink:href="#TimesNewRomanPSMT-32" x="150"/>
    </g>
   </g>
   <g id="text_22">
    <!-- 23441 -->
    <g transform="translate(104.354465 23.779407)scale(0.12 -0.12)">
     <use xlink:href="#TimesNewRomanPSMT-32"/>
     <use xlink:href="#TimesNewRomanPSMT-33" x="50"/>
     <use xlink:href="#TimesNewRomanPSMT-34" x="100"/>
     <use xlink:href="#TimesNewRomanPSMT-34" x="150"/>
     <use xlink:href="#TimesNewRomanPSMT-31" x="200"/>
    </g>
   </g>
   <g id="text_23">
    <!-- 22129 -->
    <g transform="translate(171.691553 40.96306)scale(0.12 -0.12)">
     <use xlink:href="#TimesNewRomanPSMT-32"/>
     <use xlink:href="#TimesNewRomanPSMT-32" x="50"/>
     <use xlink:href="#TimesNewRomanPSMT-31" x="100"/>
     <use xlink:href="#TimesNewRomanPSMT-32" x="150"/>
     <use xlink:href="#TimesNewRomanPSMT-39" x="200"/>
    </g>
   </g>
   <g id="text_24">
    <!-- 19068 -->
    <g transform="translate(239.02864 81.053883)scale(0.12 -0.12)">
     <use xlink:href="#TimesNewRomanPSMT-31"/>
     <use xlink:href="#TimesNewRomanPSMT-39" x="50"/>
     <use xlink:href="#TimesNewRomanPSMT-30" x="100"/>
     <use xlink:href="#TimesNewRomanPSMT-36" x="150"/>
     <use xlink:href="#TimesNewRomanPSMT-38" x="200"/>
    </g>
   </g>
   <g id="text_25">
    <!-- 14819 -->
    <g transform="translate(306.365728 136.704294)scale(0.12 -0.12)">
     <use xlink:href="#TimesNewRomanPSMT-31"/>
     <use xlink:href="#TimesNewRomanPSMT-34" x="50"/>
     <use xlink:href="#TimesNewRomanPSMT-38" x="100"/>
     <use xlink:href="#TimesNewRomanPSMT-31" x="150"/>
     <use xlink:href="#TimesNewRomanPSMT-39" x="200"/>
    </g>
   </g>
   <g id="text_26">
    <!-- 12472 -->
    <g transform="translate(373.702816 167.443648)scale(0.12 -0.12)">
     <use xlink:href="#TimesNewRomanPSMT-31"/>
     <use xlink:href="#TimesNewRomanPSMT-32" x="50"/>
     <use xlink:href="#TimesNewRomanPSMT-34" x="100"/>
     <use xlink:href="#TimesNewRomanPSMT-37" x="150"/>
     <use xlink:href="#TimesNewRomanPSMT-32" x="200"/>
    </g>
   </g>
   <g id="text_27">
    <!-- 12115 -->
    <g transform="translate(441.264903 172.119383)scale(0.12 -0.12)">
     <use xlink:href="#TimesNewRomanPSMT-31"/>
     <use xlink:href="#TimesNewRomanPSMT-32" x="50"/>
     <use xlink:href="#TimesNewRomanPSMT-31" x="100"/>
     <use xlink:href="#TimesNewRomanPSMT-31" x="146.25"/>
     <use xlink:href="#TimesNewRomanPSMT-35" x="196.25"/>
    </g>
   </g>
   <g id="text_28">
    <!-- 9728 -->
    <g transform="translate(511.376991 203.382629)scale(0.12 -0.12)">
     <use xlink:href="#TimesNewRomanPSMT-39"/>
     <use xlink:href="#TimesNewRomanPSMT-37" x="50"/>
     <use xlink:href="#TimesNewRomanPSMT-32" x="100"/>
     <use xlink:href="#TimesNewRomanPSMT-38" x="150"/>
    </g>
   </g>
   <g id="text_29">
    <!-- 8755 -->
    <g transform="translate(578.714079 216.126298)scale(0.12 -0.12)">
     <use xlink:href="#TimesNewRomanPSMT-38"/>
     <use xlink:href="#TimesNewRomanPSMT-37" x="50"/>
     <use xlink:href="#TimesNewRomanPSMT-35" x="100"/>
     <use xlink:href="#TimesNewRomanPSMT-35" x="150"/>
    </g>
   </g>
   <g id="legend_1">
    <g id="patch_23">
     <path d="M 435.560313 72.568125 
L 604.6 72.568125 
Q 608.2 72.568125 608.2 68.968125 
L 608.2 19.8 
Q 608.2 16.2 604.6 16.2 
L 435.560313 16.2 
Q 431.960312 16.2 431.960312 19.8 
L 431.960312 68.968125 
Q 431.960312 72.568125 435.560313 72.568125 
z
" style="fill: #ffffff; opacity: 0.8; stroke: #cccccc; stroke-linejoin: miter"/>
    </g>
    <g id="patch_24">
     <path d="M 439.160312 36 
L 475.160312 36 
L 475.160312 23.4 
L 439.160312 23.4 
z
" style="fill: #1f77b4"/>
    </g>
    <g id="text_30">
     <!-- before cleaning -->
     <g transform="translate(489.560312 36)scale(0.18 -0.18)">
      <defs>
       <path id="TimesNewRomanPSMT-62" d="M 984 2369 
Q 1400 2947 1881 2947 
Q 2322 2947 2650 2570 
Q 2978 2194 2978 1541 
Q 2978 778 2472 313 
Q 2038 -88 1503 -88 
Q 1253 -88 995 3 
Q 738 94 469 275 
L 469 3241 
Q 469 3728 445 3840 
Q 422 3953 372 3993 
Q 322 4034 247 4034 
Q 159 4034 28 3984 
L -16 4094 
L 844 4444 
L 984 4444 
L 984 2369 
z
M 984 2169 
L 984 456 
Q 1144 300 1314 220 
Q 1484 141 1663 141 
Q 1947 141 2192 453 
Q 2438 766 2438 1363 
Q 2438 1913 2192 2208 
Q 1947 2503 1634 2503 
Q 1469 2503 1303 2419 
Q 1178 2356 984 2169 
z
" transform="scale(0.015625)"/>
       <path id="TimesNewRomanPSMT-20" transform="scale(0.015625)"/>
       <path id="TimesNewRomanPSMT-6c" d="M 1184 4444 
L 1184 647 
Q 1184 378 1223 290 
Q 1263 203 1344 158 
Q 1425 113 1647 113 
L 1647 0 
L 244 0 
L 244 113 
Q 441 113 512 153 
Q 584 194 625 287 
Q 666 381 666 647 
L 666 3247 
Q 666 3731 644 3842 
Q 622 3953 573 3993 
Q 525 4034 450 4034 
Q 369 4034 244 3984 
L 191 4094 
L 1044 4444 
L 1184 4444 
z
" transform="scale(0.015625)"/>
      </defs>
      <use xlink:href="#TimesNewRomanPSMT-62"/>
      <use xlink:href="#TimesNewRomanPSMT-65" x="50"/>
      <use xlink:href="#TimesNewRomanPSMT-66" x="94.384766"/>
      <use xlink:href="#TimesNewRomanPSMT-6f" x="127.685547"/>
      <use xlink:href="#TimesNewRomanPSMT-72" x="177.685547"/>
      <use xlink:href="#TimesNewRomanPSMT-65" x="210.986328"/>
      <use xlink:href="#TimesNewRomanPSMT-20" x="255.371094"/>
      <use xlink:href="#TimesNewRomanPSMT-63" x="280.371094"/>
      <use xlink:href="#TimesNewRomanPSMT-6c" x="324.755859"/>
      <use xlink:href="#TimesNewRomanPSMT-65" x="352.539062"/>
      <use xlink:href="#TimesNewRomanPSMT-61" x="396.923828"/>
      <use xlink:href="#TimesNewRomanPSMT-6e" x="441.308594"/>
      <use xlink:href="#TimesNewRomanPSMT-69" x="491.308594"/>
      <use xlink:href="#TimesNewRomanPSMT-6e" x="519.091797"/>
      <use xlink:href="#TimesNewRomanPSMT-67" x="569.091797"/>
     </g>
    </g>
    <g id="patch_25">
     <path d="M 439.160312 61.484062 
L 475.160312 61.484062 
L 475.160312 48.884062 
L 439.160312 48.884062 
z
" style="fill: #ff7f0e"/>
    </g>
    <g id="text_31">
     <!-- after cleaning -->
     <g transform="translate(489.560312 61.484062)scale(0.18 -0.18)">
      <use xlink:href="#TimesNewRomanPSMT-61"/>
      <use xlink:href="#TimesNewRomanPSMT-66" x="44.384766"/>
      <use xlink:href="#TimesNewRomanPSMT-74" x="77.685547"/>
      <use xlink:href="#TimesNewRomanPSMT-65" x="105.46875"/>
      <use xlink:href="#TimesNewRomanPSMT-72" x="149.853516"/>
      <use xlink:href="#TimesNewRomanPSMT-20" x="183.154297"/>
      <use xlink:href="#TimesNewRomanPSMT-63" x="208.154297"/>
      <use xlink:href="#TimesNewRomanPSMT-6c" x="252.539062"/>
      <use xlink:href="#TimesNewRomanPSMT-65" x="280.322266"/>
      <use xlink:href="#TimesNewRomanPSMT-61" x="324.707031"/>
      <use xlink:href="#TimesNewRomanPSMT-6e" x="369.091797"/>
      <use xlink:href="#TimesNewRomanPSMT-69" x="419.091797"/>
      <use xlink:href="#TimesNewRomanPSMT-6e" x="446.875"/>
      <use xlink:href="#TimesNewRomanPSMT-67" x="496.875"/>
     </g>
    </g>
   </g>
  </g>
 </g>
 <defs>
  <clipPath id="pc6f8142115">
   <rect x="59.2" y="7.2" width="558" height="326.16"/>
  </clipPath>
 </defs>
</svg>
